G04 #@! TF.GenerationSoftware,KiCad,Pcbnew,5.1.5-52549c5~84~ubuntu18.04.1*
G04 #@! TF.CreationDate,2020-02-04T19:06:30-07:00*
G04 #@! TF.ProjectId,001,3030312e-6b69-4636-9164-5f7063625858,rev?*
G04 #@! TF.SameCoordinates,Original*
G04 #@! TF.FileFunction,Other,Fab,Bot*
%FSLAX46Y46*%
G04 Gerber Fmt 4.6, Leading zero omitted, Abs format (unit mm)*
G04 Created by KiCad (PCBNEW 5.1.5-52549c5~84~ubuntu18.04.1) date 2020-02-04 19:06:30*
%MOMM*%
%LPD*%
G04 APERTURE LIST*
%ADD10C,0.100000*%
%ADD11C,0.150000*%
%ADD12C,0.120000*%
G04 APERTURE END LIST*
D10*
X155168400Y-88468200D02*
G75*
G03X155168400Y-88468200I-1600000J0D01*
G01*
D11*
X151968200Y-87071200D02*
X155168200Y-87071200D01*
X155168200Y-89871200D02*
X155168200Y-87071200D01*
X151968200Y-89871200D02*
X151968200Y-87071200D01*
X151968200Y-89871200D02*
X155168200Y-89871200D01*
X140639800Y-116973000D02*
X143839800Y-116973000D01*
X140639800Y-116973000D02*
X140639800Y-114173000D01*
X143839800Y-116973000D02*
X143839800Y-114173000D01*
X140639800Y-114173000D02*
X143839800Y-114173000D01*
D10*
X143840000Y-115570000D02*
G75*
G03X143840000Y-115570000I-1600000J0D01*
G01*
X148335800Y-73609200D02*
G75*
G03X148335800Y-73609200I-1600000J0D01*
G01*
D11*
X145135600Y-72212200D02*
X148335600Y-72212200D01*
X148335600Y-75012200D02*
X148335600Y-72212200D01*
X145135600Y-75012200D02*
X145135600Y-72212200D01*
X145135600Y-75012200D02*
X148335600Y-75012200D01*
X133731000Y-72104600D02*
X130531000Y-72104600D01*
X133731000Y-72104600D02*
X133731000Y-74904600D01*
X130531000Y-72104600D02*
X130531000Y-74904600D01*
X133731000Y-74904600D02*
X130531000Y-74904600D01*
D10*
X133730800Y-73507600D02*
G75*
G03X133730800Y-73507600I-1600000J0D01*
G01*
X132410000Y-86995000D02*
G75*
G03X132410000Y-86995000I-1600000J0D01*
G01*
D11*
X129209800Y-85598000D02*
X132409800Y-85598000D01*
X132409800Y-88398000D02*
X132409800Y-85598000D01*
X129209800Y-88398000D02*
X129209800Y-85598000D01*
X129209800Y-88398000D02*
X132409800Y-88398000D01*
X120624600Y-116185600D02*
X123824600Y-116185600D01*
X120624600Y-116185600D02*
X120624600Y-113385600D01*
X123824600Y-116185600D02*
X123824600Y-113385600D01*
X120624600Y-113385600D02*
X123824600Y-113385600D01*
D10*
X123824800Y-114782600D02*
G75*
G03X123824800Y-114782600I-1600000J0D01*
G01*
D11*
X163169600Y-107905200D02*
X166369600Y-107905200D01*
X163169600Y-107905200D02*
X163169600Y-105105200D01*
X166369600Y-107905200D02*
X166369600Y-105105200D01*
X163169600Y-105105200D02*
X166369600Y-105105200D01*
D10*
X166369800Y-106502200D02*
G75*
G03X166369800Y-106502200I-1600000J0D01*
G01*
X116560400Y-73482200D02*
G75*
G03X116560400Y-73482200I-1600000J0D01*
G01*
D11*
X116560600Y-74879200D02*
X113360600Y-74879200D01*
X113360600Y-72079200D02*
X113360600Y-74879200D01*
X116560600Y-72079200D02*
X116560600Y-74879200D01*
X116560600Y-72079200D02*
X113360600Y-72079200D01*
X158064200Y-55403400D02*
X161264200Y-55403400D01*
X158064200Y-55403400D02*
X158064200Y-52603400D01*
X161264200Y-55403400D02*
X161264200Y-52603400D01*
X158064200Y-52603400D02*
X161264200Y-52603400D01*
D10*
X161264400Y-54000400D02*
G75*
G03X161264400Y-54000400I-1600000J0D01*
G01*
X166282500Y-100800000D02*
X163082500Y-100800000D01*
X166282500Y-102400000D02*
X166282500Y-100800000D01*
X163082500Y-102400000D02*
X166282500Y-102400000D01*
X163082500Y-100800000D02*
X163082500Y-102400000D01*
X155270000Y-93815000D02*
X152070000Y-93815000D01*
X155270000Y-95415000D02*
X155270000Y-93815000D01*
X152070000Y-95415000D02*
X155270000Y-95415000D01*
X152070000Y-93815000D02*
X152070000Y-95415000D01*
X142545000Y-108420000D02*
X142545000Y-110020000D01*
X142545000Y-110020000D02*
X145745000Y-110020000D01*
X145745000Y-110020000D02*
X145745000Y-108420000D01*
X145745000Y-108420000D02*
X142545000Y-108420000D01*
X153340000Y-74460000D02*
X156540000Y-74460000D01*
X153340000Y-72860000D02*
X153340000Y-74460000D01*
X156540000Y-72860000D02*
X153340000Y-72860000D01*
X156540000Y-74460000D02*
X156540000Y-72860000D01*
X122860000Y-72860000D02*
X122860000Y-74460000D01*
X122860000Y-74460000D02*
X126060000Y-74460000D01*
X126060000Y-74460000D02*
X126060000Y-72860000D01*
X126060000Y-72860000D02*
X122860000Y-72860000D01*
X133045000Y-91910000D02*
X129845000Y-91910000D01*
X133045000Y-93510000D02*
X133045000Y-91910000D01*
X129845000Y-93510000D02*
X133045000Y-93510000D01*
X129845000Y-91910000D02*
X129845000Y-93510000D01*
X127330000Y-111290000D02*
X127330000Y-109690000D01*
X127330000Y-109690000D02*
X124130000Y-109690000D01*
X124130000Y-109690000D02*
X124130000Y-111290000D01*
X124130000Y-111290000D02*
X127330000Y-111290000D01*
X112700000Y-69380000D02*
X115900000Y-69380000D01*
X112700000Y-67780000D02*
X112700000Y-69380000D01*
X115900000Y-67780000D02*
X112700000Y-67780000D01*
X115900000Y-69380000D02*
X115900000Y-67780000D01*
X158420000Y-58255000D02*
X158420000Y-59855000D01*
X158420000Y-59855000D02*
X161620000Y-59855000D01*
X161620000Y-59855000D02*
X161620000Y-58255000D01*
X161620000Y-58255000D02*
X158420000Y-58255000D01*
G36*
X159994600Y-69113400D02*
G01*
X149199600Y-69113400D01*
X149199600Y-78003400D01*
X159994600Y-78003400D01*
X159994600Y-69113400D01*
G37*
X159994600Y-69113400D02*
X149199600Y-69113400D01*
X149199600Y-78003400D01*
X159994600Y-78003400D01*
X159994600Y-69113400D01*
G36*
X141579600Y-71018400D02*
G01*
X136499600Y-71018400D01*
X136499600Y-76098400D01*
X141579600Y-76098400D01*
X141579600Y-71018400D01*
G37*
X141579600Y-71018400D02*
X136499600Y-71018400D01*
X136499600Y-76098400D01*
X141579600Y-76098400D01*
X141579600Y-71018400D01*
G36*
X120624600Y-71018400D02*
G01*
X116814600Y-71018400D01*
X116814600Y-76098400D01*
X120624600Y-76098400D01*
X120624600Y-71018400D01*
G37*
X120624600Y-71018400D02*
X116814600Y-71018400D01*
X116814600Y-76098400D01*
X120624600Y-76098400D01*
X120624600Y-71018400D01*
X119889600Y-65303400D02*
X119889600Y-67208400D01*
X119889600Y-67208400D02*
X158189600Y-67208400D01*
X158189600Y-67208400D02*
X158189600Y-64668400D01*
X158189600Y-64668400D02*
X120524600Y-64668400D01*
X120524600Y-64668400D02*
X119889600Y-65303400D01*
X120959600Y-63668400D02*
X120959600Y-64668400D01*
X121559600Y-64668400D02*
X121559600Y-63668400D01*
X121559600Y-63668400D02*
X120959600Y-63668400D01*
X123499600Y-67208400D02*
X123499600Y-68208400D01*
X123499600Y-68208400D02*
X124099600Y-68208400D01*
X124099600Y-68208400D02*
X124099600Y-67208400D01*
X126039600Y-63668400D02*
X126039600Y-64668400D01*
X126639600Y-64668400D02*
X126639600Y-63668400D01*
X126639600Y-63668400D02*
X126039600Y-63668400D01*
X128579600Y-67208400D02*
X128579600Y-68208400D01*
X128579600Y-68208400D02*
X129179600Y-68208400D01*
X129179600Y-68208400D02*
X129179600Y-67208400D01*
X131119600Y-63668400D02*
X131119600Y-64668400D01*
X131719600Y-64668400D02*
X131719600Y-63668400D01*
X131719600Y-63668400D02*
X131119600Y-63668400D01*
X133659600Y-67208400D02*
X133659600Y-68208400D01*
X133659600Y-68208400D02*
X134259600Y-68208400D01*
X134259600Y-68208400D02*
X134259600Y-67208400D01*
X136199600Y-63668400D02*
X136199600Y-64668400D01*
X136799600Y-64668400D02*
X136799600Y-63668400D01*
X136799600Y-63668400D02*
X136199600Y-63668400D01*
X138739600Y-67208400D02*
X138739600Y-68208400D01*
X138739600Y-68208400D02*
X139339600Y-68208400D01*
X139339600Y-68208400D02*
X139339600Y-67208400D01*
X141279600Y-63668400D02*
X141279600Y-64668400D01*
X141879600Y-64668400D02*
X141879600Y-63668400D01*
X141879600Y-63668400D02*
X141279600Y-63668400D01*
X143819600Y-67208400D02*
X143819600Y-68208400D01*
X143819600Y-68208400D02*
X144419600Y-68208400D01*
X144419600Y-68208400D02*
X144419600Y-67208400D01*
X146359600Y-63668400D02*
X146359600Y-64668400D01*
X146959600Y-64668400D02*
X146959600Y-63668400D01*
X146959600Y-63668400D02*
X146359600Y-63668400D01*
X148899600Y-67208400D02*
X148899600Y-68208400D01*
X148899600Y-68208400D02*
X149499600Y-68208400D01*
X149499600Y-68208400D02*
X149499600Y-67208400D01*
X151439600Y-63668400D02*
X151439600Y-64668400D01*
X152039600Y-64668400D02*
X152039600Y-63668400D01*
X152039600Y-63668400D02*
X151439600Y-63668400D01*
X153979600Y-67208400D02*
X153979600Y-68208400D01*
X153979600Y-68208400D02*
X154579600Y-68208400D01*
X154579600Y-68208400D02*
X154579600Y-67208400D01*
X156519600Y-63668400D02*
X156519600Y-64668400D01*
X157119600Y-64668400D02*
X157119600Y-63668400D01*
X157119600Y-63668400D02*
X156519600Y-63668400D01*
D12*
X117449600Y-64287400D02*
X117449600Y-82829400D01*
D10*
X158189600Y-82448400D02*
X158189600Y-79908400D01*
X123499600Y-83448400D02*
X124099600Y-83448400D01*
X131719600Y-79908400D02*
X131719600Y-78908400D01*
X151439600Y-78908400D02*
X151439600Y-79908400D01*
X138739600Y-83448400D02*
X139339600Y-83448400D01*
X121559600Y-78908400D02*
X120959600Y-78908400D01*
X126639600Y-78908400D02*
X126039600Y-78908400D01*
X119889600Y-82448400D02*
X158189600Y-82448400D01*
X128579600Y-83448400D02*
X129179600Y-83448400D01*
X152039600Y-78908400D02*
X151439600Y-78908400D01*
X153979600Y-82448400D02*
X153979600Y-83448400D01*
X134259600Y-83448400D02*
X134259600Y-82448400D01*
X123499600Y-82448400D02*
X123499600Y-83448400D01*
X121559600Y-79908400D02*
X121559600Y-78908400D01*
X143819600Y-83448400D02*
X144419600Y-83448400D01*
X120524600Y-79908400D02*
X119889600Y-80543400D01*
X129179600Y-83448400D02*
X129179600Y-82448400D01*
X141879600Y-79908400D02*
X141879600Y-78908400D01*
X141879600Y-78908400D02*
X141279600Y-78908400D01*
X144419600Y-83448400D02*
X144419600Y-82448400D01*
X126639600Y-79908400D02*
X126639600Y-78908400D01*
X158189600Y-79908400D02*
X120524600Y-79908400D01*
X141279600Y-78908400D02*
X141279600Y-79908400D01*
X156519600Y-78908400D02*
X156519600Y-79908400D01*
X157119600Y-79908400D02*
X157119600Y-78908400D01*
X148899600Y-82448400D02*
X148899600Y-83448400D01*
X148899600Y-83448400D02*
X149499600Y-83448400D01*
X139339600Y-83448400D02*
X139339600Y-82448400D01*
X136799600Y-78908400D02*
X136199600Y-78908400D01*
X157119600Y-78908400D02*
X156519600Y-78908400D01*
X136199600Y-78908400D02*
X136199600Y-79908400D01*
X119889600Y-80543400D02*
X119889600Y-82448400D01*
X146959600Y-79908400D02*
X146959600Y-78908400D01*
X120959600Y-78908400D02*
X120959600Y-79908400D01*
X136799600Y-79908400D02*
X136799600Y-78908400D01*
X152039600Y-79908400D02*
X152039600Y-78908400D01*
X128579600Y-82448400D02*
X128579600Y-83448400D01*
X146959600Y-78908400D02*
X146359600Y-78908400D01*
X133659600Y-82448400D02*
X133659600Y-83448400D01*
X126039600Y-78908400D02*
X126039600Y-79908400D01*
X153979600Y-83448400D02*
X154579600Y-83448400D01*
X154579600Y-83448400D02*
X154579600Y-82448400D01*
X143819600Y-82448400D02*
X143819600Y-83448400D01*
X149499600Y-83448400D02*
X149499600Y-82448400D01*
X133659600Y-83448400D02*
X134259600Y-83448400D01*
X138739600Y-82448400D02*
X138739600Y-83448400D01*
X131119600Y-78908400D02*
X131119600Y-79908400D01*
X131719600Y-78908400D02*
X131119600Y-78908400D01*
X124099600Y-83448400D02*
X124099600Y-82448400D01*
X146359600Y-78908400D02*
X146359600Y-79908400D01*
D12*
X160629600Y-64287400D02*
X117449600Y-64287400D01*
X160629600Y-82829400D02*
X117449600Y-82829400D01*
X160629600Y-64287400D02*
X160629600Y-82829400D01*
D11*
X154306495Y-94000580D02*
X154306495Y-93000580D01*
X154068400Y-93000580D01*
X153925542Y-93048200D01*
X153830304Y-93143438D01*
X153782685Y-93238676D01*
X153735066Y-93429152D01*
X153735066Y-93572009D01*
X153782685Y-93762485D01*
X153830304Y-93857723D01*
X153925542Y-93952961D01*
X154068400Y-94000580D01*
X154306495Y-94000580D01*
X152782685Y-94000580D02*
X153354114Y-94000580D01*
X153068400Y-94000580D02*
X153068400Y-93000580D01*
X153163638Y-93143438D01*
X153258876Y-93238676D01*
X153354114Y-93286295D01*
X154211257Y-85999580D02*
X154687447Y-85999580D01*
X154687447Y-84999580D01*
X153877923Y-85475771D02*
X153544590Y-85475771D01*
X153401733Y-85999580D02*
X153877923Y-85999580D01*
X153877923Y-84999580D01*
X153401733Y-84999580D01*
X152973161Y-85999580D02*
X152973161Y-84999580D01*
X152735066Y-84999580D01*
X152592209Y-85047200D01*
X152496971Y-85142438D01*
X152449352Y-85237676D01*
X152401733Y-85428152D01*
X152401733Y-85571009D01*
X152449352Y-85761485D01*
X152496971Y-85856723D01*
X152592209Y-85951961D01*
X152735066Y-85999580D01*
X152973161Y-85999580D01*
D10*
X153863638Y-88649152D02*
X153863638Y-88249152D01*
X153768400Y-88249152D01*
X153711257Y-88268200D01*
X153673161Y-88306295D01*
X153654114Y-88344390D01*
X153635066Y-88420580D01*
X153635066Y-88477723D01*
X153654114Y-88553914D01*
X153673161Y-88592009D01*
X153711257Y-88630104D01*
X153768400Y-88649152D01*
X153863638Y-88649152D01*
X153254114Y-88649152D02*
X153482685Y-88649152D01*
X153368400Y-88649152D02*
X153368400Y-88249152D01*
X153406495Y-88306295D01*
X153444590Y-88344390D01*
X153482685Y-88363438D01*
D11*
X142978095Y-121102380D02*
X142978095Y-120102380D01*
X142740000Y-120102380D01*
X142597142Y-120150000D01*
X142501904Y-120245238D01*
X142454285Y-120340476D01*
X142406666Y-120530952D01*
X142406666Y-120673809D01*
X142454285Y-120864285D01*
X142501904Y-120959523D01*
X142597142Y-121054761D01*
X142740000Y-121102380D01*
X142978095Y-121102380D01*
X142025714Y-120197619D02*
X141978095Y-120150000D01*
X141882857Y-120102380D01*
X141644761Y-120102380D01*
X141549523Y-120150000D01*
X141501904Y-120197619D01*
X141454285Y-120292857D01*
X141454285Y-120388095D01*
X141501904Y-120530952D01*
X142073333Y-121102380D01*
X141454285Y-121102380D01*
X142882857Y-113101380D02*
X143359047Y-113101380D01*
X143359047Y-112101380D01*
X142549523Y-112577571D02*
X142216190Y-112577571D01*
X142073333Y-113101380D02*
X142549523Y-113101380D01*
X142549523Y-112101380D01*
X142073333Y-112101380D01*
X141644761Y-113101380D02*
X141644761Y-112101380D01*
X141406666Y-112101380D01*
X141263809Y-112149000D01*
X141168571Y-112244238D01*
X141120952Y-112339476D01*
X141073333Y-112529952D01*
X141073333Y-112672809D01*
X141120952Y-112863285D01*
X141168571Y-112958523D01*
X141263809Y-113053761D01*
X141406666Y-113101380D01*
X141644761Y-113101380D01*
D10*
X142535238Y-115750952D02*
X142535238Y-115350952D01*
X142440000Y-115350952D01*
X142382857Y-115370000D01*
X142344761Y-115408095D01*
X142325714Y-115446190D01*
X142306666Y-115522380D01*
X142306666Y-115579523D01*
X142325714Y-115655714D01*
X142344761Y-115693809D01*
X142382857Y-115731904D01*
X142440000Y-115750952D01*
X142535238Y-115750952D01*
X142154285Y-115389047D02*
X142135238Y-115370000D01*
X142097142Y-115350952D01*
X142001904Y-115350952D01*
X141963809Y-115370000D01*
X141944761Y-115389047D01*
X141925714Y-115427142D01*
X141925714Y-115465238D01*
X141944761Y-115522380D01*
X142173333Y-115750952D01*
X141925714Y-115750952D01*
D11*
X147473895Y-79141580D02*
X147473895Y-78141580D01*
X147235800Y-78141580D01*
X147092942Y-78189200D01*
X146997704Y-78284438D01*
X146950085Y-78379676D01*
X146902466Y-78570152D01*
X146902466Y-78713009D01*
X146950085Y-78903485D01*
X146997704Y-78998723D01*
X147092942Y-79093961D01*
X147235800Y-79141580D01*
X147473895Y-79141580D01*
X146569133Y-78141580D02*
X145950085Y-78141580D01*
X146283419Y-78522533D01*
X146140561Y-78522533D01*
X146045323Y-78570152D01*
X145997704Y-78617771D01*
X145950085Y-78713009D01*
X145950085Y-78951104D01*
X145997704Y-79046342D01*
X146045323Y-79093961D01*
X146140561Y-79141580D01*
X146426276Y-79141580D01*
X146521514Y-79093961D01*
X146569133Y-79046342D01*
X147378657Y-71140580D02*
X147854847Y-71140580D01*
X147854847Y-70140580D01*
X147045323Y-70616771D02*
X146711990Y-70616771D01*
X146569133Y-71140580D02*
X147045323Y-71140580D01*
X147045323Y-70140580D01*
X146569133Y-70140580D01*
X146140561Y-71140580D02*
X146140561Y-70140580D01*
X145902466Y-70140580D01*
X145759609Y-70188200D01*
X145664371Y-70283438D01*
X145616752Y-70378676D01*
X145569133Y-70569152D01*
X145569133Y-70712009D01*
X145616752Y-70902485D01*
X145664371Y-70997723D01*
X145759609Y-71092961D01*
X145902466Y-71140580D01*
X146140561Y-71140580D01*
D10*
X147031038Y-73790152D02*
X147031038Y-73390152D01*
X146935800Y-73390152D01*
X146878657Y-73409200D01*
X146840561Y-73447295D01*
X146821514Y-73485390D01*
X146802466Y-73561580D01*
X146802466Y-73618723D01*
X146821514Y-73694914D01*
X146840561Y-73733009D01*
X146878657Y-73771104D01*
X146935800Y-73790152D01*
X147031038Y-73790152D01*
X146669133Y-73390152D02*
X146421514Y-73390152D01*
X146554847Y-73542533D01*
X146497704Y-73542533D01*
X146459609Y-73561580D01*
X146440561Y-73580628D01*
X146421514Y-73618723D01*
X146421514Y-73713961D01*
X146440561Y-73752057D01*
X146459609Y-73771104D01*
X146497704Y-73790152D01*
X146611990Y-73790152D01*
X146650085Y-73771104D01*
X146669133Y-73752057D01*
D11*
X132868895Y-68879980D02*
X132868895Y-67879980D01*
X132630800Y-67879980D01*
X132487942Y-67927600D01*
X132392704Y-68022838D01*
X132345085Y-68118076D01*
X132297466Y-68308552D01*
X132297466Y-68451409D01*
X132345085Y-68641885D01*
X132392704Y-68737123D01*
X132487942Y-68832361D01*
X132630800Y-68879980D01*
X132868895Y-68879980D01*
X131440323Y-68213314D02*
X131440323Y-68879980D01*
X131678419Y-67832361D02*
X131916514Y-68546647D01*
X131297466Y-68546647D01*
X132773657Y-76880980D02*
X133249847Y-76880980D01*
X133249847Y-75880980D01*
X132440323Y-76357171D02*
X132106990Y-76357171D01*
X131964133Y-76880980D02*
X132440323Y-76880980D01*
X132440323Y-75880980D01*
X131964133Y-75880980D01*
X131535561Y-76880980D02*
X131535561Y-75880980D01*
X131297466Y-75880980D01*
X131154609Y-75928600D01*
X131059371Y-76023838D01*
X131011752Y-76119076D01*
X130964133Y-76309552D01*
X130964133Y-76452409D01*
X131011752Y-76642885D01*
X131059371Y-76738123D01*
X131154609Y-76833361D01*
X131297466Y-76880980D01*
X131535561Y-76880980D01*
D10*
X132426038Y-73688552D02*
X132426038Y-73288552D01*
X132330800Y-73288552D01*
X132273657Y-73307600D01*
X132235561Y-73345695D01*
X132216514Y-73383790D01*
X132197466Y-73459980D01*
X132197466Y-73517123D01*
X132216514Y-73593314D01*
X132235561Y-73631409D01*
X132273657Y-73669504D01*
X132330800Y-73688552D01*
X132426038Y-73688552D01*
X131854609Y-73421885D02*
X131854609Y-73688552D01*
X131949847Y-73269504D02*
X132045085Y-73555219D01*
X131797466Y-73555219D01*
D11*
X131548095Y-92527380D02*
X131548095Y-91527380D01*
X131310000Y-91527380D01*
X131167142Y-91575000D01*
X131071904Y-91670238D01*
X131024285Y-91765476D01*
X130976666Y-91955952D01*
X130976666Y-92098809D01*
X131024285Y-92289285D01*
X131071904Y-92384523D01*
X131167142Y-92479761D01*
X131310000Y-92527380D01*
X131548095Y-92527380D01*
X130071904Y-91527380D02*
X130548095Y-91527380D01*
X130595714Y-92003571D01*
X130548095Y-91955952D01*
X130452857Y-91908333D01*
X130214761Y-91908333D01*
X130119523Y-91955952D01*
X130071904Y-92003571D01*
X130024285Y-92098809D01*
X130024285Y-92336904D01*
X130071904Y-92432142D01*
X130119523Y-92479761D01*
X130214761Y-92527380D01*
X130452857Y-92527380D01*
X130548095Y-92479761D01*
X130595714Y-92432142D01*
X131452857Y-84526380D02*
X131929047Y-84526380D01*
X131929047Y-83526380D01*
X131119523Y-84002571D02*
X130786190Y-84002571D01*
X130643333Y-84526380D02*
X131119523Y-84526380D01*
X131119523Y-83526380D01*
X130643333Y-83526380D01*
X130214761Y-84526380D02*
X130214761Y-83526380D01*
X129976666Y-83526380D01*
X129833809Y-83574000D01*
X129738571Y-83669238D01*
X129690952Y-83764476D01*
X129643333Y-83954952D01*
X129643333Y-84097809D01*
X129690952Y-84288285D01*
X129738571Y-84383523D01*
X129833809Y-84478761D01*
X129976666Y-84526380D01*
X130214761Y-84526380D01*
D10*
X131105238Y-87175952D02*
X131105238Y-86775952D01*
X131010000Y-86775952D01*
X130952857Y-86795000D01*
X130914761Y-86833095D01*
X130895714Y-86871190D01*
X130876666Y-86947380D01*
X130876666Y-87004523D01*
X130895714Y-87080714D01*
X130914761Y-87118809D01*
X130952857Y-87156904D01*
X131010000Y-87175952D01*
X131105238Y-87175952D01*
X130514761Y-86775952D02*
X130705238Y-86775952D01*
X130724285Y-86966428D01*
X130705238Y-86947380D01*
X130667142Y-86928333D01*
X130571904Y-86928333D01*
X130533809Y-86947380D01*
X130514761Y-86966428D01*
X130495714Y-87004523D01*
X130495714Y-87099761D01*
X130514761Y-87137857D01*
X130533809Y-87156904D01*
X130571904Y-87175952D01*
X130667142Y-87175952D01*
X130705238Y-87156904D01*
X130724285Y-87137857D01*
D11*
X122962895Y-120314980D02*
X122962895Y-119314980D01*
X122724800Y-119314980D01*
X122581942Y-119362600D01*
X122486704Y-119457838D01*
X122439085Y-119553076D01*
X122391466Y-119743552D01*
X122391466Y-119886409D01*
X122439085Y-120076885D01*
X122486704Y-120172123D01*
X122581942Y-120267361D01*
X122724800Y-120314980D01*
X122962895Y-120314980D01*
X121534323Y-119314980D02*
X121724800Y-119314980D01*
X121820038Y-119362600D01*
X121867657Y-119410219D01*
X121962895Y-119553076D01*
X122010514Y-119743552D01*
X122010514Y-120124504D01*
X121962895Y-120219742D01*
X121915276Y-120267361D01*
X121820038Y-120314980D01*
X121629561Y-120314980D01*
X121534323Y-120267361D01*
X121486704Y-120219742D01*
X121439085Y-120124504D01*
X121439085Y-119886409D01*
X121486704Y-119791171D01*
X121534323Y-119743552D01*
X121629561Y-119695933D01*
X121820038Y-119695933D01*
X121915276Y-119743552D01*
X121962895Y-119791171D01*
X122010514Y-119886409D01*
X122867657Y-112313980D02*
X123343847Y-112313980D01*
X123343847Y-111313980D01*
X122534323Y-111790171D02*
X122200990Y-111790171D01*
X122058133Y-112313980D02*
X122534323Y-112313980D01*
X122534323Y-111313980D01*
X122058133Y-111313980D01*
X121629561Y-112313980D02*
X121629561Y-111313980D01*
X121391466Y-111313980D01*
X121248609Y-111361600D01*
X121153371Y-111456838D01*
X121105752Y-111552076D01*
X121058133Y-111742552D01*
X121058133Y-111885409D01*
X121105752Y-112075885D01*
X121153371Y-112171123D01*
X121248609Y-112266361D01*
X121391466Y-112313980D01*
X121629561Y-112313980D01*
D10*
X122520038Y-114963552D02*
X122520038Y-114563552D01*
X122424800Y-114563552D01*
X122367657Y-114582600D01*
X122329561Y-114620695D01*
X122310514Y-114658790D01*
X122291466Y-114734980D01*
X122291466Y-114792123D01*
X122310514Y-114868314D01*
X122329561Y-114906409D01*
X122367657Y-114944504D01*
X122424800Y-114963552D01*
X122520038Y-114963552D01*
X121948609Y-114563552D02*
X122024800Y-114563552D01*
X122062895Y-114582600D01*
X122081942Y-114601647D01*
X122120038Y-114658790D01*
X122139085Y-114734980D01*
X122139085Y-114887361D01*
X122120038Y-114925457D01*
X122100990Y-114944504D01*
X122062895Y-114963552D01*
X121986704Y-114963552D01*
X121948609Y-114944504D01*
X121929561Y-114925457D01*
X121910514Y-114887361D01*
X121910514Y-114792123D01*
X121929561Y-114754028D01*
X121948609Y-114734980D01*
X121986704Y-114715933D01*
X122062895Y-114715933D01*
X122100990Y-114734980D01*
X122120038Y-114754028D01*
X122139085Y-114792123D01*
D11*
X165507895Y-112034580D02*
X165507895Y-111034580D01*
X165269800Y-111034580D01*
X165126942Y-111082200D01*
X165031704Y-111177438D01*
X164984085Y-111272676D01*
X164936466Y-111463152D01*
X164936466Y-111606009D01*
X164984085Y-111796485D01*
X165031704Y-111891723D01*
X165126942Y-111986961D01*
X165269800Y-112034580D01*
X165507895Y-112034580D01*
X164603133Y-111034580D02*
X163936466Y-111034580D01*
X164365038Y-112034580D01*
X165412657Y-104033580D02*
X165888847Y-104033580D01*
X165888847Y-103033580D01*
X165079323Y-103509771D02*
X164745990Y-103509771D01*
X164603133Y-104033580D02*
X165079323Y-104033580D01*
X165079323Y-103033580D01*
X164603133Y-103033580D01*
X164174561Y-104033580D02*
X164174561Y-103033580D01*
X163936466Y-103033580D01*
X163793609Y-103081200D01*
X163698371Y-103176438D01*
X163650752Y-103271676D01*
X163603133Y-103462152D01*
X163603133Y-103605009D01*
X163650752Y-103795485D01*
X163698371Y-103890723D01*
X163793609Y-103985961D01*
X163936466Y-104033580D01*
X164174561Y-104033580D01*
D10*
X165065038Y-106683152D02*
X165065038Y-106283152D01*
X164969800Y-106283152D01*
X164912657Y-106302200D01*
X164874561Y-106340295D01*
X164855514Y-106378390D01*
X164836466Y-106454580D01*
X164836466Y-106511723D01*
X164855514Y-106587914D01*
X164874561Y-106626009D01*
X164912657Y-106664104D01*
X164969800Y-106683152D01*
X165065038Y-106683152D01*
X164703133Y-106283152D02*
X164436466Y-106283152D01*
X164607895Y-106683152D01*
D11*
X115698495Y-68854580D02*
X115698495Y-67854580D01*
X115460400Y-67854580D01*
X115317542Y-67902200D01*
X115222304Y-67997438D01*
X115174685Y-68092676D01*
X115127066Y-68283152D01*
X115127066Y-68426009D01*
X115174685Y-68616485D01*
X115222304Y-68711723D01*
X115317542Y-68806961D01*
X115460400Y-68854580D01*
X115698495Y-68854580D01*
X114555638Y-68283152D02*
X114650876Y-68235533D01*
X114698495Y-68187914D01*
X114746114Y-68092676D01*
X114746114Y-68045057D01*
X114698495Y-67949819D01*
X114650876Y-67902200D01*
X114555638Y-67854580D01*
X114365161Y-67854580D01*
X114269923Y-67902200D01*
X114222304Y-67949819D01*
X114174685Y-68045057D01*
X114174685Y-68092676D01*
X114222304Y-68187914D01*
X114269923Y-68235533D01*
X114365161Y-68283152D01*
X114555638Y-68283152D01*
X114650876Y-68330771D01*
X114698495Y-68378390D01*
X114746114Y-68473628D01*
X114746114Y-68664104D01*
X114698495Y-68759342D01*
X114650876Y-68806961D01*
X114555638Y-68854580D01*
X114365161Y-68854580D01*
X114269923Y-68806961D01*
X114222304Y-68759342D01*
X114174685Y-68664104D01*
X114174685Y-68473628D01*
X114222304Y-68378390D01*
X114269923Y-68330771D01*
X114365161Y-68283152D01*
X115603257Y-76855580D02*
X116079447Y-76855580D01*
X116079447Y-75855580D01*
X115269923Y-76331771D02*
X114936590Y-76331771D01*
X114793733Y-76855580D02*
X115269923Y-76855580D01*
X115269923Y-75855580D01*
X114793733Y-75855580D01*
X114365161Y-76855580D02*
X114365161Y-75855580D01*
X114127066Y-75855580D01*
X113984209Y-75903200D01*
X113888971Y-75998438D01*
X113841352Y-76093676D01*
X113793733Y-76284152D01*
X113793733Y-76427009D01*
X113841352Y-76617485D01*
X113888971Y-76712723D01*
X113984209Y-76807961D01*
X114127066Y-76855580D01*
X114365161Y-76855580D01*
D10*
X115255638Y-73663152D02*
X115255638Y-73263152D01*
X115160400Y-73263152D01*
X115103257Y-73282200D01*
X115065161Y-73320295D01*
X115046114Y-73358390D01*
X115027066Y-73434580D01*
X115027066Y-73491723D01*
X115046114Y-73567914D01*
X115065161Y-73606009D01*
X115103257Y-73644104D01*
X115160400Y-73663152D01*
X115255638Y-73663152D01*
X114798495Y-73434580D02*
X114836590Y-73415533D01*
X114855638Y-73396485D01*
X114874685Y-73358390D01*
X114874685Y-73339342D01*
X114855638Y-73301247D01*
X114836590Y-73282200D01*
X114798495Y-73263152D01*
X114722304Y-73263152D01*
X114684209Y-73282200D01*
X114665161Y-73301247D01*
X114646114Y-73339342D01*
X114646114Y-73358390D01*
X114665161Y-73396485D01*
X114684209Y-73415533D01*
X114722304Y-73434580D01*
X114798495Y-73434580D01*
X114836590Y-73453628D01*
X114855638Y-73472676D01*
X114874685Y-73510771D01*
X114874685Y-73586961D01*
X114855638Y-73625057D01*
X114836590Y-73644104D01*
X114798495Y-73663152D01*
X114722304Y-73663152D01*
X114684209Y-73644104D01*
X114665161Y-73625057D01*
X114646114Y-73586961D01*
X114646114Y-73510771D01*
X114665161Y-73472676D01*
X114684209Y-73453628D01*
X114722304Y-73434580D01*
D11*
X160402495Y-59532780D02*
X160402495Y-58532780D01*
X160164400Y-58532780D01*
X160021542Y-58580400D01*
X159926304Y-58675638D01*
X159878685Y-58770876D01*
X159831066Y-58961352D01*
X159831066Y-59104209D01*
X159878685Y-59294685D01*
X159926304Y-59389923D01*
X160021542Y-59485161D01*
X160164400Y-59532780D01*
X160402495Y-59532780D01*
X159354876Y-59532780D02*
X159164400Y-59532780D01*
X159069161Y-59485161D01*
X159021542Y-59437542D01*
X158926304Y-59294685D01*
X158878685Y-59104209D01*
X158878685Y-58723257D01*
X158926304Y-58628019D01*
X158973923Y-58580400D01*
X159069161Y-58532780D01*
X159259638Y-58532780D01*
X159354876Y-58580400D01*
X159402495Y-58628019D01*
X159450114Y-58723257D01*
X159450114Y-58961352D01*
X159402495Y-59056590D01*
X159354876Y-59104209D01*
X159259638Y-59151828D01*
X159069161Y-59151828D01*
X158973923Y-59104209D01*
X158926304Y-59056590D01*
X158878685Y-58961352D01*
X160307257Y-51531780D02*
X160783447Y-51531780D01*
X160783447Y-50531780D01*
X159973923Y-51007971D02*
X159640590Y-51007971D01*
X159497733Y-51531780D02*
X159973923Y-51531780D01*
X159973923Y-50531780D01*
X159497733Y-50531780D01*
X159069161Y-51531780D02*
X159069161Y-50531780D01*
X158831066Y-50531780D01*
X158688209Y-50579400D01*
X158592971Y-50674638D01*
X158545352Y-50769876D01*
X158497733Y-50960352D01*
X158497733Y-51103209D01*
X158545352Y-51293685D01*
X158592971Y-51388923D01*
X158688209Y-51484161D01*
X158831066Y-51531780D01*
X159069161Y-51531780D01*
D10*
X159959638Y-54181352D02*
X159959638Y-53781352D01*
X159864400Y-53781352D01*
X159807257Y-53800400D01*
X159769161Y-53838495D01*
X159750114Y-53876590D01*
X159731066Y-53952780D01*
X159731066Y-54009923D01*
X159750114Y-54086114D01*
X159769161Y-54124209D01*
X159807257Y-54162304D01*
X159864400Y-54181352D01*
X159959638Y-54181352D01*
X159540590Y-54181352D02*
X159464400Y-54181352D01*
X159426304Y-54162304D01*
X159407257Y-54143257D01*
X159369161Y-54086114D01*
X159350114Y-54009923D01*
X159350114Y-53857542D01*
X159369161Y-53819447D01*
X159388209Y-53800400D01*
X159426304Y-53781352D01*
X159502495Y-53781352D01*
X159540590Y-53800400D01*
X159559638Y-53819447D01*
X159578685Y-53857542D01*
X159578685Y-53952780D01*
X159559638Y-53990876D01*
X159540590Y-54009923D01*
X159502495Y-54028971D01*
X159426304Y-54028971D01*
X159388209Y-54009923D01*
X159369161Y-53990876D01*
X159350114Y-53952780D01*
D11*
X166872976Y-100232380D02*
X167206309Y-99756190D01*
X167444404Y-100232380D02*
X167444404Y-99232380D01*
X167063452Y-99232380D01*
X166968214Y-99280000D01*
X166920595Y-99327619D01*
X166872976Y-99422857D01*
X166872976Y-99565714D01*
X166920595Y-99660952D01*
X166968214Y-99708571D01*
X167063452Y-99756190D01*
X167444404Y-99756190D01*
X166682500Y-100327619D02*
X165920595Y-100327619D01*
X165730119Y-100184761D02*
X165587261Y-100232380D01*
X165349166Y-100232380D01*
X165253928Y-100184761D01*
X165206309Y-100137142D01*
X165158690Y-100041904D01*
X165158690Y-99946666D01*
X165206309Y-99851428D01*
X165253928Y-99803809D01*
X165349166Y-99756190D01*
X165539642Y-99708571D01*
X165634880Y-99660952D01*
X165682500Y-99613333D01*
X165730119Y-99518095D01*
X165730119Y-99422857D01*
X165682500Y-99327619D01*
X165634880Y-99280000D01*
X165539642Y-99232380D01*
X165301547Y-99232380D01*
X165158690Y-99280000D01*
X164730119Y-100232380D02*
X164730119Y-99565714D01*
X164730119Y-99660952D02*
X164682500Y-99613333D01*
X164587261Y-99565714D01*
X164444404Y-99565714D01*
X164349166Y-99613333D01*
X164301547Y-99708571D01*
X164301547Y-100232380D01*
X164301547Y-99708571D02*
X164253928Y-99613333D01*
X164158690Y-99565714D01*
X164015833Y-99565714D01*
X163920595Y-99613333D01*
X163872976Y-99708571D01*
X163872976Y-100232380D01*
X162968214Y-100232380D02*
X162968214Y-99708571D01*
X163015833Y-99613333D01*
X163111071Y-99565714D01*
X163301547Y-99565714D01*
X163396785Y-99613333D01*
X162968214Y-100184761D02*
X163063452Y-100232380D01*
X163301547Y-100232380D01*
X163396785Y-100184761D01*
X163444404Y-100089523D01*
X163444404Y-99994285D01*
X163396785Y-99899047D01*
X163301547Y-99851428D01*
X163063452Y-99851428D01*
X162968214Y-99803809D01*
X162349166Y-100232380D02*
X162444404Y-100184761D01*
X162492023Y-100089523D01*
X162492023Y-99232380D01*
X161825357Y-100232380D02*
X161920595Y-100184761D01*
X161968214Y-100089523D01*
X161968214Y-99232380D01*
D12*
X164815833Y-101961904D02*
X165082500Y-101580952D01*
X165272976Y-101961904D02*
X165272976Y-101161904D01*
X164968214Y-101161904D01*
X164892023Y-101200000D01*
X164853928Y-101238095D01*
X164815833Y-101314285D01*
X164815833Y-101428571D01*
X164853928Y-101504761D01*
X164892023Y-101542857D01*
X164968214Y-101580952D01*
X165272976Y-101580952D01*
X164053928Y-101961904D02*
X164511071Y-101961904D01*
X164282500Y-101961904D02*
X164282500Y-101161904D01*
X164358690Y-101276190D01*
X164434880Y-101352380D01*
X164511071Y-101390476D01*
D11*
X155860476Y-93247380D02*
X156193809Y-92771190D01*
X156431904Y-93247380D02*
X156431904Y-92247380D01*
X156050952Y-92247380D01*
X155955714Y-92295000D01*
X155908095Y-92342619D01*
X155860476Y-92437857D01*
X155860476Y-92580714D01*
X155908095Y-92675952D01*
X155955714Y-92723571D01*
X156050952Y-92771190D01*
X156431904Y-92771190D01*
X155670000Y-93342619D02*
X154908095Y-93342619D01*
X154717619Y-93199761D02*
X154574761Y-93247380D01*
X154336666Y-93247380D01*
X154241428Y-93199761D01*
X154193809Y-93152142D01*
X154146190Y-93056904D01*
X154146190Y-92961666D01*
X154193809Y-92866428D01*
X154241428Y-92818809D01*
X154336666Y-92771190D01*
X154527142Y-92723571D01*
X154622380Y-92675952D01*
X154670000Y-92628333D01*
X154717619Y-92533095D01*
X154717619Y-92437857D01*
X154670000Y-92342619D01*
X154622380Y-92295000D01*
X154527142Y-92247380D01*
X154289047Y-92247380D01*
X154146190Y-92295000D01*
X153717619Y-93247380D02*
X153717619Y-92580714D01*
X153717619Y-92675952D02*
X153670000Y-92628333D01*
X153574761Y-92580714D01*
X153431904Y-92580714D01*
X153336666Y-92628333D01*
X153289047Y-92723571D01*
X153289047Y-93247380D01*
X153289047Y-92723571D02*
X153241428Y-92628333D01*
X153146190Y-92580714D01*
X153003333Y-92580714D01*
X152908095Y-92628333D01*
X152860476Y-92723571D01*
X152860476Y-93247380D01*
X151955714Y-93247380D02*
X151955714Y-92723571D01*
X152003333Y-92628333D01*
X152098571Y-92580714D01*
X152289047Y-92580714D01*
X152384285Y-92628333D01*
X151955714Y-93199761D02*
X152050952Y-93247380D01*
X152289047Y-93247380D01*
X152384285Y-93199761D01*
X152431904Y-93104523D01*
X152431904Y-93009285D01*
X152384285Y-92914047D01*
X152289047Y-92866428D01*
X152050952Y-92866428D01*
X151955714Y-92818809D01*
X151336666Y-93247380D02*
X151431904Y-93199761D01*
X151479523Y-93104523D01*
X151479523Y-92247380D01*
X150812857Y-93247380D02*
X150908095Y-93199761D01*
X150955714Y-93104523D01*
X150955714Y-92247380D01*
D12*
X153803333Y-94976904D02*
X154070000Y-94595952D01*
X154260476Y-94976904D02*
X154260476Y-94176904D01*
X153955714Y-94176904D01*
X153879523Y-94215000D01*
X153841428Y-94253095D01*
X153803333Y-94329285D01*
X153803333Y-94443571D01*
X153841428Y-94519761D01*
X153879523Y-94557857D01*
X153955714Y-94595952D01*
X154260476Y-94595952D01*
X153498571Y-94253095D02*
X153460476Y-94215000D01*
X153384285Y-94176904D01*
X153193809Y-94176904D01*
X153117619Y-94215000D01*
X153079523Y-94253095D01*
X153041428Y-94329285D01*
X153041428Y-94405476D01*
X153079523Y-94519761D01*
X153536666Y-94976904D01*
X153041428Y-94976904D01*
D11*
X146335476Y-107852380D02*
X146668809Y-107376190D01*
X146906904Y-107852380D02*
X146906904Y-106852380D01*
X146525952Y-106852380D01*
X146430714Y-106900000D01*
X146383095Y-106947619D01*
X146335476Y-107042857D01*
X146335476Y-107185714D01*
X146383095Y-107280952D01*
X146430714Y-107328571D01*
X146525952Y-107376190D01*
X146906904Y-107376190D01*
X146145000Y-107947619D02*
X145383095Y-107947619D01*
X145192619Y-107804761D02*
X145049761Y-107852380D01*
X144811666Y-107852380D01*
X144716428Y-107804761D01*
X144668809Y-107757142D01*
X144621190Y-107661904D01*
X144621190Y-107566666D01*
X144668809Y-107471428D01*
X144716428Y-107423809D01*
X144811666Y-107376190D01*
X145002142Y-107328571D01*
X145097380Y-107280952D01*
X145145000Y-107233333D01*
X145192619Y-107138095D01*
X145192619Y-107042857D01*
X145145000Y-106947619D01*
X145097380Y-106900000D01*
X145002142Y-106852380D01*
X144764047Y-106852380D01*
X144621190Y-106900000D01*
X144192619Y-107852380D02*
X144192619Y-107185714D01*
X144192619Y-107280952D02*
X144145000Y-107233333D01*
X144049761Y-107185714D01*
X143906904Y-107185714D01*
X143811666Y-107233333D01*
X143764047Y-107328571D01*
X143764047Y-107852380D01*
X143764047Y-107328571D02*
X143716428Y-107233333D01*
X143621190Y-107185714D01*
X143478333Y-107185714D01*
X143383095Y-107233333D01*
X143335476Y-107328571D01*
X143335476Y-107852380D01*
X142430714Y-107852380D02*
X142430714Y-107328571D01*
X142478333Y-107233333D01*
X142573571Y-107185714D01*
X142764047Y-107185714D01*
X142859285Y-107233333D01*
X142430714Y-107804761D02*
X142525952Y-107852380D01*
X142764047Y-107852380D01*
X142859285Y-107804761D01*
X142906904Y-107709523D01*
X142906904Y-107614285D01*
X142859285Y-107519047D01*
X142764047Y-107471428D01*
X142525952Y-107471428D01*
X142430714Y-107423809D01*
X141811666Y-107852380D02*
X141906904Y-107804761D01*
X141954523Y-107709523D01*
X141954523Y-106852380D01*
X141287857Y-107852380D02*
X141383095Y-107804761D01*
X141430714Y-107709523D01*
X141430714Y-106852380D01*
D12*
X144278333Y-109581904D02*
X144545000Y-109200952D01*
X144735476Y-109581904D02*
X144735476Y-108781904D01*
X144430714Y-108781904D01*
X144354523Y-108820000D01*
X144316428Y-108858095D01*
X144278333Y-108934285D01*
X144278333Y-109048571D01*
X144316428Y-109124761D01*
X144354523Y-109162857D01*
X144430714Y-109200952D01*
X144735476Y-109200952D01*
X144011666Y-108781904D02*
X143516428Y-108781904D01*
X143783095Y-109086666D01*
X143668809Y-109086666D01*
X143592619Y-109124761D01*
X143554523Y-109162857D01*
X143516428Y-109239047D01*
X143516428Y-109429523D01*
X143554523Y-109505714D01*
X143592619Y-109543809D01*
X143668809Y-109581904D01*
X143897380Y-109581904D01*
X143973571Y-109543809D01*
X144011666Y-109505714D01*
D11*
X157130476Y-75932380D02*
X157463809Y-75456190D01*
X157701904Y-75932380D02*
X157701904Y-74932380D01*
X157320952Y-74932380D01*
X157225714Y-74980000D01*
X157178095Y-75027619D01*
X157130476Y-75122857D01*
X157130476Y-75265714D01*
X157178095Y-75360952D01*
X157225714Y-75408571D01*
X157320952Y-75456190D01*
X157701904Y-75456190D01*
X156940000Y-76027619D02*
X156178095Y-76027619D01*
X155987619Y-75884761D02*
X155844761Y-75932380D01*
X155606666Y-75932380D01*
X155511428Y-75884761D01*
X155463809Y-75837142D01*
X155416190Y-75741904D01*
X155416190Y-75646666D01*
X155463809Y-75551428D01*
X155511428Y-75503809D01*
X155606666Y-75456190D01*
X155797142Y-75408571D01*
X155892380Y-75360952D01*
X155940000Y-75313333D01*
X155987619Y-75218095D01*
X155987619Y-75122857D01*
X155940000Y-75027619D01*
X155892380Y-74980000D01*
X155797142Y-74932380D01*
X155559047Y-74932380D01*
X155416190Y-74980000D01*
X154987619Y-75932380D02*
X154987619Y-75265714D01*
X154987619Y-75360952D02*
X154940000Y-75313333D01*
X154844761Y-75265714D01*
X154701904Y-75265714D01*
X154606666Y-75313333D01*
X154559047Y-75408571D01*
X154559047Y-75932380D01*
X154559047Y-75408571D02*
X154511428Y-75313333D01*
X154416190Y-75265714D01*
X154273333Y-75265714D01*
X154178095Y-75313333D01*
X154130476Y-75408571D01*
X154130476Y-75932380D01*
X153225714Y-75932380D02*
X153225714Y-75408571D01*
X153273333Y-75313333D01*
X153368571Y-75265714D01*
X153559047Y-75265714D01*
X153654285Y-75313333D01*
X153225714Y-75884761D02*
X153320952Y-75932380D01*
X153559047Y-75932380D01*
X153654285Y-75884761D01*
X153701904Y-75789523D01*
X153701904Y-75694285D01*
X153654285Y-75599047D01*
X153559047Y-75551428D01*
X153320952Y-75551428D01*
X153225714Y-75503809D01*
X152606666Y-75932380D02*
X152701904Y-75884761D01*
X152749523Y-75789523D01*
X152749523Y-74932380D01*
X152082857Y-75932380D02*
X152178095Y-75884761D01*
X152225714Y-75789523D01*
X152225714Y-74932380D01*
D12*
X155073333Y-74021904D02*
X155340000Y-73640952D01*
X155530476Y-74021904D02*
X155530476Y-73221904D01*
X155225714Y-73221904D01*
X155149523Y-73260000D01*
X155111428Y-73298095D01*
X155073333Y-73374285D01*
X155073333Y-73488571D01*
X155111428Y-73564761D01*
X155149523Y-73602857D01*
X155225714Y-73640952D01*
X155530476Y-73640952D01*
X154387619Y-73488571D02*
X154387619Y-74021904D01*
X154578095Y-73183809D02*
X154768571Y-73755238D01*
X154273333Y-73755238D01*
D11*
X126650476Y-72292380D02*
X126983809Y-71816190D01*
X127221904Y-72292380D02*
X127221904Y-71292380D01*
X126840952Y-71292380D01*
X126745714Y-71340000D01*
X126698095Y-71387619D01*
X126650476Y-71482857D01*
X126650476Y-71625714D01*
X126698095Y-71720952D01*
X126745714Y-71768571D01*
X126840952Y-71816190D01*
X127221904Y-71816190D01*
X126460000Y-72387619D02*
X125698095Y-72387619D01*
X125507619Y-72244761D02*
X125364761Y-72292380D01*
X125126666Y-72292380D01*
X125031428Y-72244761D01*
X124983809Y-72197142D01*
X124936190Y-72101904D01*
X124936190Y-72006666D01*
X124983809Y-71911428D01*
X125031428Y-71863809D01*
X125126666Y-71816190D01*
X125317142Y-71768571D01*
X125412380Y-71720952D01*
X125460000Y-71673333D01*
X125507619Y-71578095D01*
X125507619Y-71482857D01*
X125460000Y-71387619D01*
X125412380Y-71340000D01*
X125317142Y-71292380D01*
X125079047Y-71292380D01*
X124936190Y-71340000D01*
X124507619Y-72292380D02*
X124507619Y-71625714D01*
X124507619Y-71720952D02*
X124460000Y-71673333D01*
X124364761Y-71625714D01*
X124221904Y-71625714D01*
X124126666Y-71673333D01*
X124079047Y-71768571D01*
X124079047Y-72292380D01*
X124079047Y-71768571D02*
X124031428Y-71673333D01*
X123936190Y-71625714D01*
X123793333Y-71625714D01*
X123698095Y-71673333D01*
X123650476Y-71768571D01*
X123650476Y-72292380D01*
X122745714Y-72292380D02*
X122745714Y-71768571D01*
X122793333Y-71673333D01*
X122888571Y-71625714D01*
X123079047Y-71625714D01*
X123174285Y-71673333D01*
X122745714Y-72244761D02*
X122840952Y-72292380D01*
X123079047Y-72292380D01*
X123174285Y-72244761D01*
X123221904Y-72149523D01*
X123221904Y-72054285D01*
X123174285Y-71959047D01*
X123079047Y-71911428D01*
X122840952Y-71911428D01*
X122745714Y-71863809D01*
X122126666Y-72292380D02*
X122221904Y-72244761D01*
X122269523Y-72149523D01*
X122269523Y-71292380D01*
X121602857Y-72292380D02*
X121698095Y-72244761D01*
X121745714Y-72149523D01*
X121745714Y-71292380D01*
D12*
X124593333Y-74021904D02*
X124860000Y-73640952D01*
X125050476Y-74021904D02*
X125050476Y-73221904D01*
X124745714Y-73221904D01*
X124669523Y-73260000D01*
X124631428Y-73298095D01*
X124593333Y-73374285D01*
X124593333Y-73488571D01*
X124631428Y-73564761D01*
X124669523Y-73602857D01*
X124745714Y-73640952D01*
X125050476Y-73640952D01*
X123869523Y-73221904D02*
X124250476Y-73221904D01*
X124288571Y-73602857D01*
X124250476Y-73564761D01*
X124174285Y-73526666D01*
X123983809Y-73526666D01*
X123907619Y-73564761D01*
X123869523Y-73602857D01*
X123831428Y-73679047D01*
X123831428Y-73869523D01*
X123869523Y-73945714D01*
X123907619Y-73983809D01*
X123983809Y-74021904D01*
X124174285Y-74021904D01*
X124250476Y-73983809D01*
X124288571Y-73945714D01*
D11*
X133635476Y-91342380D02*
X133968809Y-90866190D01*
X134206904Y-91342380D02*
X134206904Y-90342380D01*
X133825952Y-90342380D01*
X133730714Y-90390000D01*
X133683095Y-90437619D01*
X133635476Y-90532857D01*
X133635476Y-90675714D01*
X133683095Y-90770952D01*
X133730714Y-90818571D01*
X133825952Y-90866190D01*
X134206904Y-90866190D01*
X133445000Y-91437619D02*
X132683095Y-91437619D01*
X132492619Y-91294761D02*
X132349761Y-91342380D01*
X132111666Y-91342380D01*
X132016428Y-91294761D01*
X131968809Y-91247142D01*
X131921190Y-91151904D01*
X131921190Y-91056666D01*
X131968809Y-90961428D01*
X132016428Y-90913809D01*
X132111666Y-90866190D01*
X132302142Y-90818571D01*
X132397380Y-90770952D01*
X132445000Y-90723333D01*
X132492619Y-90628095D01*
X132492619Y-90532857D01*
X132445000Y-90437619D01*
X132397380Y-90390000D01*
X132302142Y-90342380D01*
X132064047Y-90342380D01*
X131921190Y-90390000D01*
X131492619Y-91342380D02*
X131492619Y-90675714D01*
X131492619Y-90770952D02*
X131445000Y-90723333D01*
X131349761Y-90675714D01*
X131206904Y-90675714D01*
X131111666Y-90723333D01*
X131064047Y-90818571D01*
X131064047Y-91342380D01*
X131064047Y-90818571D02*
X131016428Y-90723333D01*
X130921190Y-90675714D01*
X130778333Y-90675714D01*
X130683095Y-90723333D01*
X130635476Y-90818571D01*
X130635476Y-91342380D01*
X129730714Y-91342380D02*
X129730714Y-90818571D01*
X129778333Y-90723333D01*
X129873571Y-90675714D01*
X130064047Y-90675714D01*
X130159285Y-90723333D01*
X129730714Y-91294761D02*
X129825952Y-91342380D01*
X130064047Y-91342380D01*
X130159285Y-91294761D01*
X130206904Y-91199523D01*
X130206904Y-91104285D01*
X130159285Y-91009047D01*
X130064047Y-90961428D01*
X129825952Y-90961428D01*
X129730714Y-90913809D01*
X129111666Y-91342380D02*
X129206904Y-91294761D01*
X129254523Y-91199523D01*
X129254523Y-90342380D01*
X128587857Y-91342380D02*
X128683095Y-91294761D01*
X128730714Y-91199523D01*
X128730714Y-90342380D01*
D12*
X131578333Y-93071904D02*
X131845000Y-92690952D01*
X132035476Y-93071904D02*
X132035476Y-92271904D01*
X131730714Y-92271904D01*
X131654523Y-92310000D01*
X131616428Y-92348095D01*
X131578333Y-92424285D01*
X131578333Y-92538571D01*
X131616428Y-92614761D01*
X131654523Y-92652857D01*
X131730714Y-92690952D01*
X132035476Y-92690952D01*
X130892619Y-92271904D02*
X131045000Y-92271904D01*
X131121190Y-92310000D01*
X131159285Y-92348095D01*
X131235476Y-92462380D01*
X131273571Y-92614761D01*
X131273571Y-92919523D01*
X131235476Y-92995714D01*
X131197380Y-93033809D01*
X131121190Y-93071904D01*
X130968809Y-93071904D01*
X130892619Y-93033809D01*
X130854523Y-92995714D01*
X130816428Y-92919523D01*
X130816428Y-92729047D01*
X130854523Y-92652857D01*
X130892619Y-92614761D01*
X130968809Y-92576666D01*
X131121190Y-92576666D01*
X131197380Y-92614761D01*
X131235476Y-92652857D01*
X131273571Y-92729047D01*
D11*
X127920476Y-112762380D02*
X128253809Y-112286190D01*
X128491904Y-112762380D02*
X128491904Y-111762380D01*
X128110952Y-111762380D01*
X128015714Y-111810000D01*
X127968095Y-111857619D01*
X127920476Y-111952857D01*
X127920476Y-112095714D01*
X127968095Y-112190952D01*
X128015714Y-112238571D01*
X128110952Y-112286190D01*
X128491904Y-112286190D01*
X127730000Y-112857619D02*
X126968095Y-112857619D01*
X126777619Y-112714761D02*
X126634761Y-112762380D01*
X126396666Y-112762380D01*
X126301428Y-112714761D01*
X126253809Y-112667142D01*
X126206190Y-112571904D01*
X126206190Y-112476666D01*
X126253809Y-112381428D01*
X126301428Y-112333809D01*
X126396666Y-112286190D01*
X126587142Y-112238571D01*
X126682380Y-112190952D01*
X126730000Y-112143333D01*
X126777619Y-112048095D01*
X126777619Y-111952857D01*
X126730000Y-111857619D01*
X126682380Y-111810000D01*
X126587142Y-111762380D01*
X126349047Y-111762380D01*
X126206190Y-111810000D01*
X125777619Y-112762380D02*
X125777619Y-112095714D01*
X125777619Y-112190952D02*
X125730000Y-112143333D01*
X125634761Y-112095714D01*
X125491904Y-112095714D01*
X125396666Y-112143333D01*
X125349047Y-112238571D01*
X125349047Y-112762380D01*
X125349047Y-112238571D02*
X125301428Y-112143333D01*
X125206190Y-112095714D01*
X125063333Y-112095714D01*
X124968095Y-112143333D01*
X124920476Y-112238571D01*
X124920476Y-112762380D01*
X124015714Y-112762380D02*
X124015714Y-112238571D01*
X124063333Y-112143333D01*
X124158571Y-112095714D01*
X124349047Y-112095714D01*
X124444285Y-112143333D01*
X124015714Y-112714761D02*
X124110952Y-112762380D01*
X124349047Y-112762380D01*
X124444285Y-112714761D01*
X124491904Y-112619523D01*
X124491904Y-112524285D01*
X124444285Y-112429047D01*
X124349047Y-112381428D01*
X124110952Y-112381428D01*
X124015714Y-112333809D01*
X123396666Y-112762380D02*
X123491904Y-112714761D01*
X123539523Y-112619523D01*
X123539523Y-111762380D01*
X122872857Y-112762380D02*
X122968095Y-112714761D01*
X123015714Y-112619523D01*
X123015714Y-111762380D01*
D12*
X125863333Y-110851904D02*
X126130000Y-110470952D01*
X126320476Y-110851904D02*
X126320476Y-110051904D01*
X126015714Y-110051904D01*
X125939523Y-110090000D01*
X125901428Y-110128095D01*
X125863333Y-110204285D01*
X125863333Y-110318571D01*
X125901428Y-110394761D01*
X125939523Y-110432857D01*
X126015714Y-110470952D01*
X126320476Y-110470952D01*
X125596666Y-110051904D02*
X125063333Y-110051904D01*
X125406190Y-110851904D01*
D11*
X116490476Y-70852380D02*
X116823809Y-70376190D01*
X117061904Y-70852380D02*
X117061904Y-69852380D01*
X116680952Y-69852380D01*
X116585714Y-69900000D01*
X116538095Y-69947619D01*
X116490476Y-70042857D01*
X116490476Y-70185714D01*
X116538095Y-70280952D01*
X116585714Y-70328571D01*
X116680952Y-70376190D01*
X117061904Y-70376190D01*
X116300000Y-70947619D02*
X115538095Y-70947619D01*
X115347619Y-70804761D02*
X115204761Y-70852380D01*
X114966666Y-70852380D01*
X114871428Y-70804761D01*
X114823809Y-70757142D01*
X114776190Y-70661904D01*
X114776190Y-70566666D01*
X114823809Y-70471428D01*
X114871428Y-70423809D01*
X114966666Y-70376190D01*
X115157142Y-70328571D01*
X115252380Y-70280952D01*
X115300000Y-70233333D01*
X115347619Y-70138095D01*
X115347619Y-70042857D01*
X115300000Y-69947619D01*
X115252380Y-69900000D01*
X115157142Y-69852380D01*
X114919047Y-69852380D01*
X114776190Y-69900000D01*
X114347619Y-70852380D02*
X114347619Y-70185714D01*
X114347619Y-70280952D02*
X114300000Y-70233333D01*
X114204761Y-70185714D01*
X114061904Y-70185714D01*
X113966666Y-70233333D01*
X113919047Y-70328571D01*
X113919047Y-70852380D01*
X113919047Y-70328571D02*
X113871428Y-70233333D01*
X113776190Y-70185714D01*
X113633333Y-70185714D01*
X113538095Y-70233333D01*
X113490476Y-70328571D01*
X113490476Y-70852380D01*
X112585714Y-70852380D02*
X112585714Y-70328571D01*
X112633333Y-70233333D01*
X112728571Y-70185714D01*
X112919047Y-70185714D01*
X113014285Y-70233333D01*
X112585714Y-70804761D02*
X112680952Y-70852380D01*
X112919047Y-70852380D01*
X113014285Y-70804761D01*
X113061904Y-70709523D01*
X113061904Y-70614285D01*
X113014285Y-70519047D01*
X112919047Y-70471428D01*
X112680952Y-70471428D01*
X112585714Y-70423809D01*
X111966666Y-70852380D02*
X112061904Y-70804761D01*
X112109523Y-70709523D01*
X112109523Y-69852380D01*
X111442857Y-70852380D02*
X111538095Y-70804761D01*
X111585714Y-70709523D01*
X111585714Y-69852380D01*
D12*
X114433333Y-68941904D02*
X114700000Y-68560952D01*
X114890476Y-68941904D02*
X114890476Y-68141904D01*
X114585714Y-68141904D01*
X114509523Y-68180000D01*
X114471428Y-68218095D01*
X114433333Y-68294285D01*
X114433333Y-68408571D01*
X114471428Y-68484761D01*
X114509523Y-68522857D01*
X114585714Y-68560952D01*
X114890476Y-68560952D01*
X113976190Y-68484761D02*
X114052380Y-68446666D01*
X114090476Y-68408571D01*
X114128571Y-68332380D01*
X114128571Y-68294285D01*
X114090476Y-68218095D01*
X114052380Y-68180000D01*
X113976190Y-68141904D01*
X113823809Y-68141904D01*
X113747619Y-68180000D01*
X113709523Y-68218095D01*
X113671428Y-68294285D01*
X113671428Y-68332380D01*
X113709523Y-68408571D01*
X113747619Y-68446666D01*
X113823809Y-68484761D01*
X113976190Y-68484761D01*
X114052380Y-68522857D01*
X114090476Y-68560952D01*
X114128571Y-68637142D01*
X114128571Y-68789523D01*
X114090476Y-68865714D01*
X114052380Y-68903809D01*
X113976190Y-68941904D01*
X113823809Y-68941904D01*
X113747619Y-68903809D01*
X113709523Y-68865714D01*
X113671428Y-68789523D01*
X113671428Y-68637142D01*
X113709523Y-68560952D01*
X113747619Y-68522857D01*
X113823809Y-68484761D01*
D11*
X162210476Y-57687380D02*
X162543809Y-57211190D01*
X162781904Y-57687380D02*
X162781904Y-56687380D01*
X162400952Y-56687380D01*
X162305714Y-56735000D01*
X162258095Y-56782619D01*
X162210476Y-56877857D01*
X162210476Y-57020714D01*
X162258095Y-57115952D01*
X162305714Y-57163571D01*
X162400952Y-57211190D01*
X162781904Y-57211190D01*
X162020000Y-57782619D02*
X161258095Y-57782619D01*
X161067619Y-57639761D02*
X160924761Y-57687380D01*
X160686666Y-57687380D01*
X160591428Y-57639761D01*
X160543809Y-57592142D01*
X160496190Y-57496904D01*
X160496190Y-57401666D01*
X160543809Y-57306428D01*
X160591428Y-57258809D01*
X160686666Y-57211190D01*
X160877142Y-57163571D01*
X160972380Y-57115952D01*
X161020000Y-57068333D01*
X161067619Y-56973095D01*
X161067619Y-56877857D01*
X161020000Y-56782619D01*
X160972380Y-56735000D01*
X160877142Y-56687380D01*
X160639047Y-56687380D01*
X160496190Y-56735000D01*
X160067619Y-57687380D02*
X160067619Y-57020714D01*
X160067619Y-57115952D02*
X160020000Y-57068333D01*
X159924761Y-57020714D01*
X159781904Y-57020714D01*
X159686666Y-57068333D01*
X159639047Y-57163571D01*
X159639047Y-57687380D01*
X159639047Y-57163571D02*
X159591428Y-57068333D01*
X159496190Y-57020714D01*
X159353333Y-57020714D01*
X159258095Y-57068333D01*
X159210476Y-57163571D01*
X159210476Y-57687380D01*
X158305714Y-57687380D02*
X158305714Y-57163571D01*
X158353333Y-57068333D01*
X158448571Y-57020714D01*
X158639047Y-57020714D01*
X158734285Y-57068333D01*
X158305714Y-57639761D02*
X158400952Y-57687380D01*
X158639047Y-57687380D01*
X158734285Y-57639761D01*
X158781904Y-57544523D01*
X158781904Y-57449285D01*
X158734285Y-57354047D01*
X158639047Y-57306428D01*
X158400952Y-57306428D01*
X158305714Y-57258809D01*
X157686666Y-57687380D02*
X157781904Y-57639761D01*
X157829523Y-57544523D01*
X157829523Y-56687380D01*
X157162857Y-57687380D02*
X157258095Y-57639761D01*
X157305714Y-57544523D01*
X157305714Y-56687380D01*
D12*
X160153333Y-59416904D02*
X160420000Y-59035952D01*
X160610476Y-59416904D02*
X160610476Y-58616904D01*
X160305714Y-58616904D01*
X160229523Y-58655000D01*
X160191428Y-58693095D01*
X160153333Y-58769285D01*
X160153333Y-58883571D01*
X160191428Y-58959761D01*
X160229523Y-58997857D01*
X160305714Y-59035952D01*
X160610476Y-59035952D01*
X159772380Y-59416904D02*
X159620000Y-59416904D01*
X159543809Y-59378809D01*
X159505714Y-59340714D01*
X159429523Y-59226428D01*
X159391428Y-59074047D01*
X159391428Y-58769285D01*
X159429523Y-58693095D01*
X159467619Y-58655000D01*
X159543809Y-58616904D01*
X159696190Y-58616904D01*
X159772380Y-58655000D01*
X159810476Y-58693095D01*
X159848571Y-58769285D01*
X159848571Y-58959761D01*
X159810476Y-59035952D01*
X159772380Y-59074047D01*
X159696190Y-59112142D01*
X159543809Y-59112142D01*
X159467619Y-59074047D01*
X159429523Y-59035952D01*
X159391428Y-58959761D01*
D11*
X145825314Y-61945780D02*
X145825314Y-60945780D01*
X145253885Y-61945780D01*
X145253885Y-60945780D01*
X144396742Y-61898161D02*
X144491980Y-61945780D01*
X144682457Y-61945780D01*
X144777695Y-61898161D01*
X144825314Y-61802923D01*
X144825314Y-61421971D01*
X144777695Y-61326733D01*
X144682457Y-61279114D01*
X144491980Y-61279114D01*
X144396742Y-61326733D01*
X144349123Y-61421971D01*
X144349123Y-61517209D01*
X144825314Y-61612447D01*
X144015790Y-61279114D02*
X143825314Y-61945780D01*
X143634838Y-61469590D01*
X143444361Y-61945780D01*
X143253885Y-61279114D01*
X143111028Y-62041019D02*
X142349123Y-62041019D01*
X142158647Y-61660066D02*
X141682457Y-61660066D01*
X142253885Y-61945780D02*
X141920552Y-60945780D01*
X141587219Y-61945780D01*
X141253885Y-61945780D02*
X141253885Y-61279114D01*
X141253885Y-61469590D02*
X141206266Y-61374352D01*
X141158647Y-61326733D01*
X141063409Y-61279114D01*
X140968171Y-61279114D01*
X140206266Y-61945780D02*
X140206266Y-60945780D01*
X140206266Y-61898161D02*
X140301504Y-61945780D01*
X140491980Y-61945780D01*
X140587219Y-61898161D01*
X140634838Y-61850542D01*
X140682457Y-61755304D01*
X140682457Y-61469590D01*
X140634838Y-61374352D01*
X140587219Y-61326733D01*
X140491980Y-61279114D01*
X140301504Y-61279114D01*
X140206266Y-61326733D01*
X139301504Y-61279114D02*
X139301504Y-61945780D01*
X139730076Y-61279114D02*
X139730076Y-61802923D01*
X139682457Y-61898161D01*
X139587219Y-61945780D01*
X139444361Y-61945780D01*
X139349123Y-61898161D01*
X139301504Y-61850542D01*
X138825314Y-61945780D02*
X138825314Y-61279114D01*
X138825314Y-60945780D02*
X138872933Y-60993400D01*
X138825314Y-61041019D01*
X138777695Y-60993400D01*
X138825314Y-60945780D01*
X138825314Y-61041019D01*
X138349123Y-61279114D02*
X138349123Y-61945780D01*
X138349123Y-61374352D02*
X138301504Y-61326733D01*
X138206266Y-61279114D01*
X138063409Y-61279114D01*
X137968171Y-61326733D01*
X137920552Y-61421971D01*
X137920552Y-61945780D01*
X137301504Y-61945780D02*
X137396742Y-61898161D01*
X137444361Y-61850542D01*
X137491980Y-61755304D01*
X137491980Y-61469590D01*
X137444361Y-61374352D01*
X137396742Y-61326733D01*
X137301504Y-61279114D01*
X137158647Y-61279114D01*
X137063409Y-61326733D01*
X137015790Y-61374352D01*
X136968171Y-61469590D01*
X136968171Y-61755304D01*
X137015790Y-61850542D01*
X137063409Y-61898161D01*
X137158647Y-61945780D01*
X137301504Y-61945780D01*
X136777695Y-62041019D02*
X136015790Y-62041019D01*
X135777695Y-61945780D02*
X135777695Y-60945780D01*
X135206266Y-61945780D01*
X135206266Y-60945780D01*
X134777695Y-61660066D02*
X134301504Y-61660066D01*
X134872933Y-61945780D02*
X134539600Y-60945780D01*
X134206266Y-61945780D01*
X133872933Y-61945780D02*
X133872933Y-60945780D01*
X133301504Y-61945780D01*
X133301504Y-60945780D01*
X132634838Y-60945780D02*
X132444361Y-60945780D01*
X132349123Y-60993400D01*
X132253885Y-61088638D01*
X132206266Y-61279114D01*
X132206266Y-61612447D01*
X132253885Y-61802923D01*
X132349123Y-61898161D01*
X132444361Y-61945780D01*
X132634838Y-61945780D01*
X132730076Y-61898161D01*
X132825314Y-61802923D01*
X132872933Y-61612447D01*
X132872933Y-61279114D01*
X132825314Y-61088638D01*
X132730076Y-60993400D01*
X132634838Y-60945780D01*
X139372933Y-84440780D02*
X139372933Y-85155066D01*
X139420552Y-85297923D01*
X139515790Y-85393161D01*
X139658647Y-85440780D01*
X139753885Y-85440780D01*
X138372933Y-85440780D02*
X138944361Y-85440780D01*
X138658647Y-85440780D02*
X138658647Y-84440780D01*
X138753885Y-84583638D01*
X138849123Y-84678876D01*
X138944361Y-84726495D01*
X139372933Y-84440780D02*
X139372933Y-85155066D01*
X139420552Y-85297923D01*
X139515790Y-85393161D01*
X139658647Y-85440780D01*
X139753885Y-85440780D01*
X138372933Y-85440780D02*
X138944361Y-85440780D01*
X138658647Y-85440780D02*
X138658647Y-84440780D01*
X138753885Y-84583638D01*
X138849123Y-84678876D01*
X138944361Y-84726495D01*
M02*
