G04 #@! TF.GenerationSoftware,KiCad,Pcbnew,5.1.5-52549c5~84~ubuntu18.04.1*
G04 #@! TF.CreationDate,2020-02-04T19:06:30-07:00*
G04 #@! TF.ProjectId,001,3030312e-6b69-4636-9164-5f7063625858,rev?*
G04 #@! TF.SameCoordinates,Original*
G04 #@! TF.FileFunction,Soldermask,Bot*
G04 #@! TF.FilePolarity,Negative*
%FSLAX46Y46*%
G04 Gerber Fmt 4.6, Leading zero omitted, Abs format (unit mm)*
G04 Created by KiCad (PCBNEW 5.1.5-52549c5~84~ubuntu18.04.1) date 2020-02-04 19:06:30*
%MOMM*%
%LPD*%
G04 APERTURE LIST*
%ADD10C,0.010000*%
%ADD11C,0.009375*%
%ADD12C,0.100000*%
G04 APERTURE END LIST*
D10*
G36*
X140716558Y-50845378D02*
G01*
X141071770Y-50845921D01*
X141388994Y-50846741D01*
X141668955Y-50847842D01*
X141912376Y-50849226D01*
X142119981Y-50850896D01*
X142292494Y-50852855D01*
X142430640Y-50855105D01*
X142535142Y-50857650D01*
X142606726Y-50860491D01*
X142642166Y-50863135D01*
X142921901Y-50913287D01*
X143179751Y-50998039D01*
X143419193Y-51119141D01*
X143643706Y-51278344D01*
X143851540Y-51471909D01*
X144047227Y-51705893D01*
X144206828Y-51960700D01*
X144331007Y-52237680D01*
X144420427Y-52538181D01*
X144451322Y-52691897D01*
X144459494Y-52747743D01*
X144466250Y-52814350D01*
X144471705Y-52895834D01*
X144475976Y-52996314D01*
X144479179Y-53119907D01*
X144481431Y-53270731D01*
X144482847Y-53452904D01*
X144483544Y-53670544D01*
X144483666Y-53837416D01*
X144483384Y-54080994D01*
X144482460Y-54286360D01*
X144480779Y-54457631D01*
X144478223Y-54598925D01*
X144474677Y-54714360D01*
X144470025Y-54808053D01*
X144464149Y-54884123D01*
X144456934Y-54946687D01*
X144451322Y-54982935D01*
X144380882Y-55283323D01*
X144277568Y-55564446D01*
X144143785Y-55823823D01*
X143981938Y-56058972D01*
X143794432Y-56267412D01*
X143583672Y-56446662D01*
X143352062Y-56594242D01*
X143102008Y-56707670D01*
X142835915Y-56784464D01*
X142679606Y-56810693D01*
X142634150Y-56813693D01*
X142549208Y-56816459D01*
X142427329Y-56818995D01*
X142271060Y-56821302D01*
X142082949Y-56823385D01*
X141865542Y-56825245D01*
X141621389Y-56826886D01*
X141353035Y-56828310D01*
X141063030Y-56829520D01*
X140753920Y-56830519D01*
X140428253Y-56831309D01*
X140088577Y-56831894D01*
X139737439Y-56832277D01*
X139377387Y-56832460D01*
X139010969Y-56832446D01*
X138640731Y-56832237D01*
X138269222Y-56831838D01*
X137898990Y-56831250D01*
X137532581Y-56830476D01*
X137172543Y-56829519D01*
X136821425Y-56828382D01*
X136481773Y-56827068D01*
X136156135Y-56825579D01*
X135847059Y-56823919D01*
X135557093Y-56822089D01*
X135288783Y-56820094D01*
X135044678Y-56817936D01*
X134827325Y-56815617D01*
X134639272Y-56813141D01*
X134483066Y-56810510D01*
X134361254Y-56807727D01*
X134276386Y-56804795D01*
X134231007Y-56801716D01*
X134228416Y-56801350D01*
X133958218Y-56738824D01*
X133706144Y-56639560D01*
X133469661Y-56502231D01*
X133246235Y-56325514D01*
X133157891Y-56241441D01*
X132959732Y-56013536D01*
X132793754Y-55758969D01*
X132661024Y-55479789D01*
X132562612Y-55178043D01*
X132530720Y-55039937D01*
X132521787Y-54992005D01*
X132514350Y-54940946D01*
X132508278Y-54882547D01*
X132503435Y-54812592D01*
X132499689Y-54726866D01*
X132496908Y-54621156D01*
X132494958Y-54491246D01*
X132493705Y-54332921D01*
X132493018Y-54141967D01*
X132492762Y-53914170D01*
X132492750Y-53837416D01*
X132492880Y-53599211D01*
X132493365Y-53399093D01*
X132494345Y-53232815D01*
X132495960Y-53096130D01*
X132498352Y-52984792D01*
X132501659Y-52894555D01*
X132506009Y-52821416D01*
X133445250Y-52821416D01*
X133445250Y-54853416D01*
X133507202Y-55042449D01*
X133597883Y-55259989D01*
X133717408Y-55450459D01*
X133863324Y-55611216D01*
X134033178Y-55739617D01*
X134224517Y-55833021D01*
X134249306Y-55841926D01*
X134263855Y-55846310D01*
X134282260Y-55850333D01*
X134306307Y-55854011D01*
X134337785Y-55857358D01*
X134378481Y-55860392D01*
X134430185Y-55863128D01*
X134494682Y-55865582D01*
X134573761Y-55867769D01*
X134669210Y-55869705D01*
X134782816Y-55871406D01*
X134916367Y-55872889D01*
X135071652Y-55874168D01*
X135250457Y-55875260D01*
X135454571Y-55876180D01*
X135685781Y-55876944D01*
X135945875Y-55877568D01*
X136236642Y-55878068D01*
X136559867Y-55878460D01*
X136917341Y-55878760D01*
X137310849Y-55878982D01*
X137742181Y-55879144D01*
X138213123Y-55879260D01*
X138475739Y-55879308D01*
X138966954Y-55879381D01*
X139417643Y-55879415D01*
X139829611Y-55879394D01*
X140204665Y-55879301D01*
X140544610Y-55879119D01*
X140851254Y-55878833D01*
X141126402Y-55878424D01*
X141371860Y-55877876D01*
X141589436Y-55877173D01*
X141780935Y-55876298D01*
X141948163Y-55875233D01*
X142092927Y-55873963D01*
X142217034Y-55872470D01*
X142322289Y-55870737D01*
X142410498Y-55868749D01*
X142483469Y-55866487D01*
X142543007Y-55863936D01*
X142590918Y-55861079D01*
X142629010Y-55857899D01*
X142659087Y-55854379D01*
X142682958Y-55850502D01*
X142702426Y-55846252D01*
X142719300Y-55841611D01*
X142724908Y-55839898D01*
X142904754Y-55762243D01*
X143069984Y-55647679D01*
X143217177Y-55500122D01*
X143342914Y-55323487D01*
X143443774Y-55121692D01*
X143503167Y-54948666D01*
X143512337Y-54912718D01*
X143519943Y-54873434D01*
X143526130Y-54826681D01*
X143531039Y-54768325D01*
X143534816Y-54694233D01*
X143537603Y-54600270D01*
X143539545Y-54482303D01*
X143540784Y-54336200D01*
X143541463Y-54157825D01*
X143541728Y-53943046D01*
X143541750Y-53837416D01*
X143541619Y-53605455D01*
X143541133Y-53411694D01*
X143540149Y-53252001D01*
X143538522Y-53122244D01*
X143536111Y-53018289D01*
X143532773Y-52936005D01*
X143528363Y-52871259D01*
X143522740Y-52819919D01*
X143515761Y-52777851D01*
X143507281Y-52740924D01*
X143503298Y-52726166D01*
X143428093Y-52517854D01*
X143325798Y-52327286D01*
X143200605Y-52159154D01*
X143056706Y-52018151D01*
X142898294Y-51908969D01*
X142729563Y-51836303D01*
X142700985Y-51828139D01*
X142682780Y-51823934D01*
X142660071Y-51820084D01*
X142631070Y-51816578D01*
X142593988Y-51813403D01*
X142547037Y-51810547D01*
X142488429Y-51807998D01*
X142416373Y-51805743D01*
X142329083Y-51803771D01*
X142224768Y-51802070D01*
X142101641Y-51800627D01*
X141957913Y-51799430D01*
X141791794Y-51798468D01*
X141601498Y-51797727D01*
X141385234Y-51797196D01*
X141141214Y-51796863D01*
X140867649Y-51796716D01*
X140562751Y-51796742D01*
X140224732Y-51796929D01*
X139851802Y-51797266D01*
X139442172Y-51797739D01*
X138994055Y-51798338D01*
X138505661Y-51799049D01*
X138428897Y-51799164D01*
X134289711Y-51805416D01*
X134132064Y-51884098D01*
X134041287Y-51934180D01*
X133950681Y-51991966D01*
X133878863Y-52045524D01*
X133874878Y-52048929D01*
X133763854Y-52164906D01*
X133659787Y-52310911D01*
X133570426Y-52474646D01*
X133507202Y-52632384D01*
X133445250Y-52821416D01*
X132506009Y-52821416D01*
X132506024Y-52821173D01*
X132511585Y-52760398D01*
X132518485Y-52707985D01*
X132526863Y-52659686D01*
X132532657Y-52630916D01*
X132617004Y-52319301D01*
X132733603Y-52032127D01*
X132880964Y-51771068D01*
X133057595Y-51537799D01*
X133262005Y-51333993D01*
X133492703Y-51161325D01*
X133748197Y-51021468D01*
X134026997Y-50916097D01*
X134071785Y-50903076D01*
X134249583Y-50853368D01*
X138345333Y-50846732D01*
X138901346Y-50845928D01*
X139415752Y-50845388D01*
X139889273Y-50845114D01*
X140322633Y-50845110D01*
X140716558Y-50845378D01*
G37*
X140716558Y-50845378D02*
X141071770Y-50845921D01*
X141388994Y-50846741D01*
X141668955Y-50847842D01*
X141912376Y-50849226D01*
X142119981Y-50850896D01*
X142292494Y-50852855D01*
X142430640Y-50855105D01*
X142535142Y-50857650D01*
X142606726Y-50860491D01*
X142642166Y-50863135D01*
X142921901Y-50913287D01*
X143179751Y-50998039D01*
X143419193Y-51119141D01*
X143643706Y-51278344D01*
X143851540Y-51471909D01*
X144047227Y-51705893D01*
X144206828Y-51960700D01*
X144331007Y-52237680D01*
X144420427Y-52538181D01*
X144451322Y-52691897D01*
X144459494Y-52747743D01*
X144466250Y-52814350D01*
X144471705Y-52895834D01*
X144475976Y-52996314D01*
X144479179Y-53119907D01*
X144481431Y-53270731D01*
X144482847Y-53452904D01*
X144483544Y-53670544D01*
X144483666Y-53837416D01*
X144483384Y-54080994D01*
X144482460Y-54286360D01*
X144480779Y-54457631D01*
X144478223Y-54598925D01*
X144474677Y-54714360D01*
X144470025Y-54808053D01*
X144464149Y-54884123D01*
X144456934Y-54946687D01*
X144451322Y-54982935D01*
X144380882Y-55283323D01*
X144277568Y-55564446D01*
X144143785Y-55823823D01*
X143981938Y-56058972D01*
X143794432Y-56267412D01*
X143583672Y-56446662D01*
X143352062Y-56594242D01*
X143102008Y-56707670D01*
X142835915Y-56784464D01*
X142679606Y-56810693D01*
X142634150Y-56813693D01*
X142549208Y-56816459D01*
X142427329Y-56818995D01*
X142271060Y-56821302D01*
X142082949Y-56823385D01*
X141865542Y-56825245D01*
X141621389Y-56826886D01*
X141353035Y-56828310D01*
X141063030Y-56829520D01*
X140753920Y-56830519D01*
X140428253Y-56831309D01*
X140088577Y-56831894D01*
X139737439Y-56832277D01*
X139377387Y-56832460D01*
X139010969Y-56832446D01*
X138640731Y-56832237D01*
X138269222Y-56831838D01*
X137898990Y-56831250D01*
X137532581Y-56830476D01*
X137172543Y-56829519D01*
X136821425Y-56828382D01*
X136481773Y-56827068D01*
X136156135Y-56825579D01*
X135847059Y-56823919D01*
X135557093Y-56822089D01*
X135288783Y-56820094D01*
X135044678Y-56817936D01*
X134827325Y-56815617D01*
X134639272Y-56813141D01*
X134483066Y-56810510D01*
X134361254Y-56807727D01*
X134276386Y-56804795D01*
X134231007Y-56801716D01*
X134228416Y-56801350D01*
X133958218Y-56738824D01*
X133706144Y-56639560D01*
X133469661Y-56502231D01*
X133246235Y-56325514D01*
X133157891Y-56241441D01*
X132959732Y-56013536D01*
X132793754Y-55758969D01*
X132661024Y-55479789D01*
X132562612Y-55178043D01*
X132530720Y-55039937D01*
X132521787Y-54992005D01*
X132514350Y-54940946D01*
X132508278Y-54882547D01*
X132503435Y-54812592D01*
X132499689Y-54726866D01*
X132496908Y-54621156D01*
X132494958Y-54491246D01*
X132493705Y-54332921D01*
X132493018Y-54141967D01*
X132492762Y-53914170D01*
X132492750Y-53837416D01*
X132492880Y-53599211D01*
X132493365Y-53399093D01*
X132494345Y-53232815D01*
X132495960Y-53096130D01*
X132498352Y-52984792D01*
X132501659Y-52894555D01*
X132506009Y-52821416D01*
X133445250Y-52821416D01*
X133445250Y-54853416D01*
X133507202Y-55042449D01*
X133597883Y-55259989D01*
X133717408Y-55450459D01*
X133863324Y-55611216D01*
X134033178Y-55739617D01*
X134224517Y-55833021D01*
X134249306Y-55841926D01*
X134263855Y-55846310D01*
X134282260Y-55850333D01*
X134306307Y-55854011D01*
X134337785Y-55857358D01*
X134378481Y-55860392D01*
X134430185Y-55863128D01*
X134494682Y-55865582D01*
X134573761Y-55867769D01*
X134669210Y-55869705D01*
X134782816Y-55871406D01*
X134916367Y-55872889D01*
X135071652Y-55874168D01*
X135250457Y-55875260D01*
X135454571Y-55876180D01*
X135685781Y-55876944D01*
X135945875Y-55877568D01*
X136236642Y-55878068D01*
X136559867Y-55878460D01*
X136917341Y-55878760D01*
X137310849Y-55878982D01*
X137742181Y-55879144D01*
X138213123Y-55879260D01*
X138475739Y-55879308D01*
X138966954Y-55879381D01*
X139417643Y-55879415D01*
X139829611Y-55879394D01*
X140204665Y-55879301D01*
X140544610Y-55879119D01*
X140851254Y-55878833D01*
X141126402Y-55878424D01*
X141371860Y-55877876D01*
X141589436Y-55877173D01*
X141780935Y-55876298D01*
X141948163Y-55875233D01*
X142092927Y-55873963D01*
X142217034Y-55872470D01*
X142322289Y-55870737D01*
X142410498Y-55868749D01*
X142483469Y-55866487D01*
X142543007Y-55863936D01*
X142590918Y-55861079D01*
X142629010Y-55857899D01*
X142659087Y-55854379D01*
X142682958Y-55850502D01*
X142702426Y-55846252D01*
X142719300Y-55841611D01*
X142724908Y-55839898D01*
X142904754Y-55762243D01*
X143069984Y-55647679D01*
X143217177Y-55500122D01*
X143342914Y-55323487D01*
X143443774Y-55121692D01*
X143503167Y-54948666D01*
X143512337Y-54912718D01*
X143519943Y-54873434D01*
X143526130Y-54826681D01*
X143531039Y-54768325D01*
X143534816Y-54694233D01*
X143537603Y-54600270D01*
X143539545Y-54482303D01*
X143540784Y-54336200D01*
X143541463Y-54157825D01*
X143541728Y-53943046D01*
X143541750Y-53837416D01*
X143541619Y-53605455D01*
X143541133Y-53411694D01*
X143540149Y-53252001D01*
X143538522Y-53122244D01*
X143536111Y-53018289D01*
X143532773Y-52936005D01*
X143528363Y-52871259D01*
X143522740Y-52819919D01*
X143515761Y-52777851D01*
X143507281Y-52740924D01*
X143503298Y-52726166D01*
X143428093Y-52517854D01*
X143325798Y-52327286D01*
X143200605Y-52159154D01*
X143056706Y-52018151D01*
X142898294Y-51908969D01*
X142729563Y-51836303D01*
X142700985Y-51828139D01*
X142682780Y-51823934D01*
X142660071Y-51820084D01*
X142631070Y-51816578D01*
X142593988Y-51813403D01*
X142547037Y-51810547D01*
X142488429Y-51807998D01*
X142416373Y-51805743D01*
X142329083Y-51803771D01*
X142224768Y-51802070D01*
X142101641Y-51800627D01*
X141957913Y-51799430D01*
X141791794Y-51798468D01*
X141601498Y-51797727D01*
X141385234Y-51797196D01*
X141141214Y-51796863D01*
X140867649Y-51796716D01*
X140562751Y-51796742D01*
X140224732Y-51796929D01*
X139851802Y-51797266D01*
X139442172Y-51797739D01*
X138994055Y-51798338D01*
X138505661Y-51799049D01*
X138428897Y-51799164D01*
X134289711Y-51805416D01*
X134132064Y-51884098D01*
X134041287Y-51934180D01*
X133950681Y-51991966D01*
X133878863Y-52045524D01*
X133874878Y-52048929D01*
X133763854Y-52164906D01*
X133659787Y-52310911D01*
X133570426Y-52474646D01*
X133507202Y-52632384D01*
X133445250Y-52821416D01*
X132506009Y-52821416D01*
X132506024Y-52821173D01*
X132511585Y-52760398D01*
X132518485Y-52707985D01*
X132526863Y-52659686D01*
X132532657Y-52630916D01*
X132617004Y-52319301D01*
X132733603Y-52032127D01*
X132880964Y-51771068D01*
X133057595Y-51537799D01*
X133262005Y-51333993D01*
X133492703Y-51161325D01*
X133748197Y-51021468D01*
X134026997Y-50916097D01*
X134071785Y-50903076D01*
X134249583Y-50853368D01*
X138345333Y-50846732D01*
X138901346Y-50845928D01*
X139415752Y-50845388D01*
X139889273Y-50845114D01*
X140322633Y-50845110D01*
X140716558Y-50845378D01*
G36*
X162189583Y-50927413D02*
G01*
X162295416Y-50977531D01*
X162418424Y-51051943D01*
X162509061Y-51145774D01*
X162570796Y-51264306D01*
X162607099Y-51412822D01*
X162613281Y-51461458D01*
X162628431Y-51604333D01*
X161925000Y-51604333D01*
X161925000Y-53001333D01*
X162627617Y-53001333D01*
X162619149Y-54721125D01*
X162617472Y-55040265D01*
X162615751Y-55319659D01*
X162613931Y-55561891D01*
X162611956Y-55769549D01*
X162609771Y-55945219D01*
X162607320Y-56091486D01*
X162604549Y-56210937D01*
X162601402Y-56306158D01*
X162597823Y-56379736D01*
X162593758Y-56434256D01*
X162589150Y-56472305D01*
X162583945Y-56496469D01*
X162580978Y-56504416D01*
X162496638Y-56639041D01*
X162385285Y-56741293D01*
X162248210Y-56810280D01*
X162088074Y-56844973D01*
X162010508Y-56856330D01*
X161960747Y-56870759D01*
X161946166Y-56883879D01*
X161935089Y-56888113D01*
X161900725Y-56891884D01*
X161841378Y-56895212D01*
X161755348Y-56898115D01*
X161640938Y-56900613D01*
X161496450Y-56902726D01*
X161320185Y-56904474D01*
X161110447Y-56905877D01*
X160865538Y-56906953D01*
X160583758Y-56907722D01*
X160263411Y-56908204D01*
X159902798Y-56908419D01*
X159818916Y-56908432D01*
X159444901Y-56908326D01*
X159111706Y-56907927D01*
X158817818Y-56907218D01*
X158561724Y-56906182D01*
X158341911Y-56904803D01*
X158156866Y-56903064D01*
X158005077Y-56900949D01*
X157885031Y-56898440D01*
X157795215Y-56895520D01*
X157734116Y-56892174D01*
X157700222Y-56888384D01*
X157691666Y-56884890D01*
X157671948Y-56870742D01*
X157618315Y-56855413D01*
X157539044Y-56841140D01*
X157519789Y-56838469D01*
X157378178Y-56808811D01*
X157265858Y-56758078D01*
X157172606Y-56680394D01*
X157110695Y-56603285D01*
X157084100Y-56563051D01*
X157065535Y-56525125D01*
X157052953Y-56480097D01*
X157044309Y-56418557D01*
X157037555Y-56331098D01*
X157032566Y-56244043D01*
X157030075Y-56177098D01*
X157027665Y-56072066D01*
X157025377Y-55933191D01*
X157023249Y-55764720D01*
X157021320Y-55570896D01*
X157019632Y-55355967D01*
X157018223Y-55124176D01*
X157017133Y-54879771D01*
X157016402Y-54626995D01*
X157016169Y-54488291D01*
X157014333Y-53001333D01*
X157712833Y-53001333D01*
X157712833Y-51604333D01*
X157008211Y-51604333D01*
X157020764Y-51469905D01*
X157033539Y-51381217D01*
X157053199Y-51294653D01*
X157068522Y-51247491D01*
X157116597Y-51166376D01*
X157191021Y-51083466D01*
X157278507Y-51010955D01*
X157365766Y-50961038D01*
X157390341Y-50952162D01*
X157415705Y-50947960D01*
X157463360Y-50944203D01*
X157535017Y-50940873D01*
X157632385Y-50937952D01*
X157757172Y-50935424D01*
X157911089Y-50933271D01*
X158095843Y-50931475D01*
X158313145Y-50930019D01*
X158564704Y-50928885D01*
X158852229Y-50928057D01*
X159177428Y-50927515D01*
X159542012Y-50927244D01*
X159831955Y-50927206D01*
X162189583Y-50927413D01*
G37*
X162189583Y-50927413D02*
X162295416Y-50977531D01*
X162418424Y-51051943D01*
X162509061Y-51145774D01*
X162570796Y-51264306D01*
X162607099Y-51412822D01*
X162613281Y-51461458D01*
X162628431Y-51604333D01*
X161925000Y-51604333D01*
X161925000Y-53001333D01*
X162627617Y-53001333D01*
X162619149Y-54721125D01*
X162617472Y-55040265D01*
X162615751Y-55319659D01*
X162613931Y-55561891D01*
X162611956Y-55769549D01*
X162609771Y-55945219D01*
X162607320Y-56091486D01*
X162604549Y-56210937D01*
X162601402Y-56306158D01*
X162597823Y-56379736D01*
X162593758Y-56434256D01*
X162589150Y-56472305D01*
X162583945Y-56496469D01*
X162580978Y-56504416D01*
X162496638Y-56639041D01*
X162385285Y-56741293D01*
X162248210Y-56810280D01*
X162088074Y-56844973D01*
X162010508Y-56856330D01*
X161960747Y-56870759D01*
X161946166Y-56883879D01*
X161935089Y-56888113D01*
X161900725Y-56891884D01*
X161841378Y-56895212D01*
X161755348Y-56898115D01*
X161640938Y-56900613D01*
X161496450Y-56902726D01*
X161320185Y-56904474D01*
X161110447Y-56905877D01*
X160865538Y-56906953D01*
X160583758Y-56907722D01*
X160263411Y-56908204D01*
X159902798Y-56908419D01*
X159818916Y-56908432D01*
X159444901Y-56908326D01*
X159111706Y-56907927D01*
X158817818Y-56907218D01*
X158561724Y-56906182D01*
X158341911Y-56904803D01*
X158156866Y-56903064D01*
X158005077Y-56900949D01*
X157885031Y-56898440D01*
X157795215Y-56895520D01*
X157734116Y-56892174D01*
X157700222Y-56888384D01*
X157691666Y-56884890D01*
X157671948Y-56870742D01*
X157618315Y-56855413D01*
X157539044Y-56841140D01*
X157519789Y-56838469D01*
X157378178Y-56808811D01*
X157265858Y-56758078D01*
X157172606Y-56680394D01*
X157110695Y-56603285D01*
X157084100Y-56563051D01*
X157065535Y-56525125D01*
X157052953Y-56480097D01*
X157044309Y-56418557D01*
X157037555Y-56331098D01*
X157032566Y-56244043D01*
X157030075Y-56177098D01*
X157027665Y-56072066D01*
X157025377Y-55933191D01*
X157023249Y-55764720D01*
X157021320Y-55570896D01*
X157019632Y-55355967D01*
X157018223Y-55124176D01*
X157017133Y-54879771D01*
X157016402Y-54626995D01*
X157016169Y-54488291D01*
X157014333Y-53001333D01*
X157712833Y-53001333D01*
X157712833Y-51604333D01*
X157008211Y-51604333D01*
X157020764Y-51469905D01*
X157033539Y-51381217D01*
X157053199Y-51294653D01*
X157068522Y-51247491D01*
X157116597Y-51166376D01*
X157191021Y-51083466D01*
X157278507Y-51010955D01*
X157365766Y-50961038D01*
X157390341Y-50952162D01*
X157415705Y-50947960D01*
X157463360Y-50944203D01*
X157535017Y-50940873D01*
X157632385Y-50937952D01*
X157757172Y-50935424D01*
X157911089Y-50933271D01*
X158095843Y-50931475D01*
X158313145Y-50930019D01*
X158564704Y-50928885D01*
X158852229Y-50928057D01*
X159177428Y-50927515D01*
X159542012Y-50927244D01*
X159831955Y-50927206D01*
X162189583Y-50927413D01*
G36*
X115398832Y-71564729D02*
G01*
X115714225Y-71564894D01*
X115992152Y-71565234D01*
X116235045Y-71565786D01*
X116445339Y-71566585D01*
X116625467Y-71567665D01*
X116777861Y-71569061D01*
X116904956Y-71570809D01*
X117009185Y-71572943D01*
X117092980Y-71575500D01*
X117158777Y-71578513D01*
X117209007Y-71582018D01*
X117246104Y-71586050D01*
X117272503Y-71590643D01*
X117290635Y-71595834D01*
X117293927Y-71597131D01*
X117378282Y-71646052D01*
X117468004Y-71719810D01*
X117549285Y-71805502D01*
X117608317Y-71890224D01*
X117609075Y-71891631D01*
X117617263Y-71907387D01*
X117624423Y-71923927D01*
X117630634Y-71944069D01*
X117635976Y-71970633D01*
X117640529Y-72006437D01*
X117644373Y-72054299D01*
X117647587Y-72117036D01*
X117650251Y-72197468D01*
X117652444Y-72298413D01*
X117654247Y-72422689D01*
X117655739Y-72573114D01*
X117656999Y-72752507D01*
X117658107Y-72963685D01*
X117659144Y-73209468D01*
X117660188Y-73492674D01*
X117661015Y-73728791D01*
X117667114Y-75480333D01*
X112416166Y-75480333D01*
X112416166Y-72007592D01*
X112467180Y-71907754D01*
X112559845Y-71769595D01*
X112679789Y-71663009D01*
X112765416Y-71614414D01*
X112871250Y-71564913D01*
X115043540Y-71564706D01*
X115398832Y-71564729D01*
G37*
X115398832Y-71564729D02*
X115714225Y-71564894D01*
X115992152Y-71565234D01*
X116235045Y-71565786D01*
X116445339Y-71566585D01*
X116625467Y-71567665D01*
X116777861Y-71569061D01*
X116904956Y-71570809D01*
X117009185Y-71572943D01*
X117092980Y-71575500D01*
X117158777Y-71578513D01*
X117209007Y-71582018D01*
X117246104Y-71586050D01*
X117272503Y-71590643D01*
X117290635Y-71595834D01*
X117293927Y-71597131D01*
X117378282Y-71646052D01*
X117468004Y-71719810D01*
X117549285Y-71805502D01*
X117608317Y-71890224D01*
X117609075Y-71891631D01*
X117617263Y-71907387D01*
X117624423Y-71923927D01*
X117630634Y-71944069D01*
X117635976Y-71970633D01*
X117640529Y-72006437D01*
X117644373Y-72054299D01*
X117647587Y-72117036D01*
X117650251Y-72197468D01*
X117652444Y-72298413D01*
X117654247Y-72422689D01*
X117655739Y-72573114D01*
X117656999Y-72752507D01*
X117658107Y-72963685D01*
X117659144Y-73209468D01*
X117660188Y-73492674D01*
X117661015Y-73728791D01*
X117667114Y-75480333D01*
X112416166Y-75480333D01*
X112416166Y-72007592D01*
X112467180Y-71907754D01*
X112559845Y-71769595D01*
X112679789Y-71663009D01*
X112765416Y-71614414D01*
X112871250Y-71564913D01*
X115043540Y-71564706D01*
X115398832Y-71564729D01*
G36*
X132213804Y-69008902D02*
G01*
X132624867Y-69031140D01*
X133009849Y-69079351D01*
X133377686Y-69155723D01*
X133737315Y-69262442D01*
X134097674Y-69401695D01*
X134408333Y-69545834D01*
X134702804Y-69700716D01*
X134978804Y-69864788D01*
X135243285Y-70043187D01*
X135503199Y-70241053D01*
X135765496Y-70463525D01*
X136037129Y-70715740D01*
X136178133Y-70854124D01*
X136407257Y-71087625D01*
X136611830Y-71307628D01*
X136801645Y-71525387D01*
X136986495Y-71752156D01*
X137176171Y-71999189D01*
X137186788Y-72013386D01*
X137254294Y-72105487D01*
X137334395Y-72217593D01*
X137424097Y-72345261D01*
X137520406Y-72484047D01*
X137620328Y-72629508D01*
X137720868Y-72777200D01*
X137819034Y-72922681D01*
X137911830Y-73061508D01*
X137996263Y-73189235D01*
X138069339Y-73301421D01*
X138128063Y-73393622D01*
X138169442Y-73461395D01*
X138190482Y-73500296D01*
X138192406Y-73505796D01*
X138184673Y-73540193D01*
X138156233Y-73605218D01*
X138109777Y-73696220D01*
X138048001Y-73808550D01*
X137973596Y-73937558D01*
X137889258Y-74078595D01*
X137797679Y-74227011D01*
X137701553Y-74378156D01*
X137603574Y-74527381D01*
X137581728Y-74559952D01*
X137215947Y-75071785D01*
X136829169Y-75552907D01*
X136423206Y-76001501D01*
X135999873Y-76415753D01*
X135560983Y-76793847D01*
X135108350Y-77133966D01*
X134816113Y-77328457D01*
X134678010Y-77411156D01*
X134513406Y-77502173D01*
X134333175Y-77596093D01*
X134148192Y-77687504D01*
X133969331Y-77770992D01*
X133807466Y-77841144D01*
X133706960Y-77880576D01*
X133368856Y-77989827D01*
X133014249Y-78076002D01*
X132652601Y-78137799D01*
X132293375Y-78173917D01*
X131946033Y-78183053D01*
X131635500Y-78165536D01*
X131461088Y-78143613D01*
X131263165Y-78112172D01*
X131058648Y-78074254D01*
X130864452Y-78032902D01*
X130764649Y-78008907D01*
X130541449Y-77946664D01*
X130330083Y-77874712D01*
X130115451Y-77787418D01*
X129889250Y-77682465D01*
X129573086Y-77515436D01*
X129284640Y-77334023D01*
X129013668Y-77130793D01*
X128749925Y-76898310D01*
X128585894Y-76736580D01*
X128288305Y-76402497D01*
X128027291Y-76047177D01*
X127803180Y-75671251D01*
X127616299Y-75275353D01*
X127466978Y-74860114D01*
X127355544Y-74426166D01*
X127336125Y-74328144D01*
X127313912Y-74178499D01*
X127296590Y-73998752D01*
X127284556Y-73800896D01*
X127278209Y-73596923D01*
X127277944Y-73398826D01*
X127284161Y-73218596D01*
X127294989Y-73087070D01*
X127361948Y-72675446D01*
X127467603Y-72264387D01*
X127609168Y-71861918D01*
X127783856Y-71476064D01*
X127968671Y-71147086D01*
X128210634Y-70796920D01*
X128484943Y-70472956D01*
X128789437Y-70176873D01*
X129121955Y-69910349D01*
X129480335Y-69675063D01*
X129862417Y-69472696D01*
X130266039Y-69304926D01*
X130398885Y-69258988D01*
X130703902Y-69167397D01*
X131000041Y-69097785D01*
X131297425Y-69048758D01*
X131606176Y-69018920D01*
X131936419Y-69006878D01*
X132213804Y-69008902D01*
G37*
X132213804Y-69008902D02*
X132624867Y-69031140D01*
X133009849Y-69079351D01*
X133377686Y-69155723D01*
X133737315Y-69262442D01*
X134097674Y-69401695D01*
X134408333Y-69545834D01*
X134702804Y-69700716D01*
X134978804Y-69864788D01*
X135243285Y-70043187D01*
X135503199Y-70241053D01*
X135765496Y-70463525D01*
X136037129Y-70715740D01*
X136178133Y-70854124D01*
X136407257Y-71087625D01*
X136611830Y-71307628D01*
X136801645Y-71525387D01*
X136986495Y-71752156D01*
X137176171Y-71999189D01*
X137186788Y-72013386D01*
X137254294Y-72105487D01*
X137334395Y-72217593D01*
X137424097Y-72345261D01*
X137520406Y-72484047D01*
X137620328Y-72629508D01*
X137720868Y-72777200D01*
X137819034Y-72922681D01*
X137911830Y-73061508D01*
X137996263Y-73189235D01*
X138069339Y-73301421D01*
X138128063Y-73393622D01*
X138169442Y-73461395D01*
X138190482Y-73500296D01*
X138192406Y-73505796D01*
X138184673Y-73540193D01*
X138156233Y-73605218D01*
X138109777Y-73696220D01*
X138048001Y-73808550D01*
X137973596Y-73937558D01*
X137889258Y-74078595D01*
X137797679Y-74227011D01*
X137701553Y-74378156D01*
X137603574Y-74527381D01*
X137581728Y-74559952D01*
X137215947Y-75071785D01*
X136829169Y-75552907D01*
X136423206Y-76001501D01*
X135999873Y-76415753D01*
X135560983Y-76793847D01*
X135108350Y-77133966D01*
X134816113Y-77328457D01*
X134678010Y-77411156D01*
X134513406Y-77502173D01*
X134333175Y-77596093D01*
X134148192Y-77687504D01*
X133969331Y-77770992D01*
X133807466Y-77841144D01*
X133706960Y-77880576D01*
X133368856Y-77989827D01*
X133014249Y-78076002D01*
X132652601Y-78137799D01*
X132293375Y-78173917D01*
X131946033Y-78183053D01*
X131635500Y-78165536D01*
X131461088Y-78143613D01*
X131263165Y-78112172D01*
X131058648Y-78074254D01*
X130864452Y-78032902D01*
X130764649Y-78008907D01*
X130541449Y-77946664D01*
X130330083Y-77874712D01*
X130115451Y-77787418D01*
X129889250Y-77682465D01*
X129573086Y-77515436D01*
X129284640Y-77334023D01*
X129013668Y-77130793D01*
X128749925Y-76898310D01*
X128585894Y-76736580D01*
X128288305Y-76402497D01*
X128027291Y-76047177D01*
X127803180Y-75671251D01*
X127616299Y-75275353D01*
X127466978Y-74860114D01*
X127355544Y-74426166D01*
X127336125Y-74328144D01*
X127313912Y-74178499D01*
X127296590Y-73998752D01*
X127284556Y-73800896D01*
X127278209Y-73596923D01*
X127277944Y-73398826D01*
X127284161Y-73218596D01*
X127294989Y-73087070D01*
X127361948Y-72675446D01*
X127467603Y-72264387D01*
X127609168Y-71861918D01*
X127783856Y-71476064D01*
X127968671Y-71147086D01*
X128210634Y-70796920D01*
X128484943Y-70472956D01*
X128789437Y-70176873D01*
X129121955Y-69910349D01*
X129480335Y-69675063D01*
X129862417Y-69472696D01*
X130266039Y-69304926D01*
X130398885Y-69258988D01*
X130703902Y-69167397D01*
X131000041Y-69097785D01*
X131297425Y-69048758D01*
X131606176Y-69018920D01*
X131936419Y-69006878D01*
X132213804Y-69008902D01*
G36*
X147312168Y-68993621D02*
G01*
X147647712Y-69018894D01*
X147973366Y-69062447D01*
X148276022Y-69123201D01*
X148343710Y-69140203D01*
X148734327Y-69263304D01*
X149120854Y-69425492D01*
X149497802Y-69623545D01*
X149859681Y-69854240D01*
X150201003Y-70114356D01*
X150516280Y-70400669D01*
X150552578Y-70437117D01*
X150822981Y-70733798D01*
X151057824Y-71040410D01*
X151263883Y-71366518D01*
X151418341Y-71659750D01*
X151497149Y-71825866D01*
X151563552Y-71976367D01*
X151618582Y-72116943D01*
X151663270Y-72253286D01*
X151698646Y-72391088D01*
X151725742Y-72536040D01*
X151745590Y-72693832D01*
X151759220Y-72870158D01*
X151767663Y-73070708D01*
X151771952Y-73301174D01*
X151773116Y-73567246D01*
X151773075Y-73617666D01*
X151771851Y-73881819D01*
X151768302Y-74109103D01*
X151761440Y-74304959D01*
X151750277Y-74474831D01*
X151733827Y-74624161D01*
X151711099Y-74758391D01*
X151681108Y-74882965D01*
X151642864Y-75003325D01*
X151595380Y-75124912D01*
X151537669Y-75253171D01*
X151468741Y-75393544D01*
X151440740Y-75448583D01*
X151208628Y-75859543D01*
X150949481Y-76239185D01*
X150664061Y-76586767D01*
X150353132Y-76901547D01*
X150017457Y-77182784D01*
X149657801Y-77429736D01*
X149274925Y-77641663D01*
X149097894Y-77724243D01*
X148723884Y-77873122D01*
X148329627Y-78000356D01*
X147931986Y-78100868D01*
X147691750Y-78147439D01*
X147512138Y-78171789D01*
X147308863Y-78189190D01*
X147096389Y-78199097D01*
X146889182Y-78200966D01*
X146701708Y-78194255D01*
X146621500Y-78187676D01*
X146265517Y-78136977D01*
X145893916Y-78057138D01*
X145518392Y-77951363D01*
X145150640Y-77822856D01*
X144881369Y-77710987D01*
X144524893Y-77533876D01*
X144163141Y-77320311D01*
X143801986Y-77074676D01*
X143447306Y-76801353D01*
X143104974Y-76504727D01*
X142780867Y-76189180D01*
X142637992Y-76037215D01*
X142447594Y-75824077D01*
X142258355Y-75603412D01*
X142072592Y-75378478D01*
X141892623Y-75152529D01*
X141720767Y-74928823D01*
X141559340Y-74710616D01*
X141410661Y-74501163D01*
X141277047Y-74303722D01*
X141160817Y-74121548D01*
X141064288Y-73957897D01*
X140989777Y-73816026D01*
X140939603Y-73699191D01*
X140917501Y-73620140D01*
X140917701Y-73544933D01*
X140941614Y-73450243D01*
X140990501Y-73332932D01*
X141065622Y-73189862D01*
X141142670Y-73059294D01*
X141328759Y-72768434D01*
X141536102Y-72468053D01*
X141760331Y-72163301D01*
X141997078Y-71859327D01*
X142241976Y-71561280D01*
X142490656Y-71274310D01*
X142738751Y-71003564D01*
X142981893Y-70754193D01*
X143215715Y-70531345D01*
X143435849Y-70340170D01*
X143478250Y-70305869D01*
X143885768Y-70002688D01*
X144297550Y-69740831D01*
X144715956Y-69519331D01*
X145143349Y-69337221D01*
X145582091Y-69193536D01*
X146034544Y-69087308D01*
X146503070Y-69017570D01*
X146663833Y-69002216D01*
X146979839Y-68987702D01*
X147312168Y-68993621D01*
G37*
X147312168Y-68993621D02*
X147647712Y-69018894D01*
X147973366Y-69062447D01*
X148276022Y-69123201D01*
X148343710Y-69140203D01*
X148734327Y-69263304D01*
X149120854Y-69425492D01*
X149497802Y-69623545D01*
X149859681Y-69854240D01*
X150201003Y-70114356D01*
X150516280Y-70400669D01*
X150552578Y-70437117D01*
X150822981Y-70733798D01*
X151057824Y-71040410D01*
X151263883Y-71366518D01*
X151418341Y-71659750D01*
X151497149Y-71825866D01*
X151563552Y-71976367D01*
X151618582Y-72116943D01*
X151663270Y-72253286D01*
X151698646Y-72391088D01*
X151725742Y-72536040D01*
X151745590Y-72693832D01*
X151759220Y-72870158D01*
X151767663Y-73070708D01*
X151771952Y-73301174D01*
X151773116Y-73567246D01*
X151773075Y-73617666D01*
X151771851Y-73881819D01*
X151768302Y-74109103D01*
X151761440Y-74304959D01*
X151750277Y-74474831D01*
X151733827Y-74624161D01*
X151711099Y-74758391D01*
X151681108Y-74882965D01*
X151642864Y-75003325D01*
X151595380Y-75124912D01*
X151537669Y-75253171D01*
X151468741Y-75393544D01*
X151440740Y-75448583D01*
X151208628Y-75859543D01*
X150949481Y-76239185D01*
X150664061Y-76586767D01*
X150353132Y-76901547D01*
X150017457Y-77182784D01*
X149657801Y-77429736D01*
X149274925Y-77641663D01*
X149097894Y-77724243D01*
X148723884Y-77873122D01*
X148329627Y-78000356D01*
X147931986Y-78100868D01*
X147691750Y-78147439D01*
X147512138Y-78171789D01*
X147308863Y-78189190D01*
X147096389Y-78199097D01*
X146889182Y-78200966D01*
X146701708Y-78194255D01*
X146621500Y-78187676D01*
X146265517Y-78136977D01*
X145893916Y-78057138D01*
X145518392Y-77951363D01*
X145150640Y-77822856D01*
X144881369Y-77710987D01*
X144524893Y-77533876D01*
X144163141Y-77320311D01*
X143801986Y-77074676D01*
X143447306Y-76801353D01*
X143104974Y-76504727D01*
X142780867Y-76189180D01*
X142637992Y-76037215D01*
X142447594Y-75824077D01*
X142258355Y-75603412D01*
X142072592Y-75378478D01*
X141892623Y-75152529D01*
X141720767Y-74928823D01*
X141559340Y-74710616D01*
X141410661Y-74501163D01*
X141277047Y-74303722D01*
X141160817Y-74121548D01*
X141064288Y-73957897D01*
X140989777Y-73816026D01*
X140939603Y-73699191D01*
X140917501Y-73620140D01*
X140917701Y-73544933D01*
X140941614Y-73450243D01*
X140990501Y-73332932D01*
X141065622Y-73189862D01*
X141142670Y-73059294D01*
X141328759Y-72768434D01*
X141536102Y-72468053D01*
X141760331Y-72163301D01*
X141997078Y-71859327D01*
X142241976Y-71561280D01*
X142490656Y-71274310D01*
X142738751Y-71003564D01*
X142981893Y-70754193D01*
X143215715Y-70531345D01*
X143435849Y-70340170D01*
X143478250Y-70305869D01*
X143885768Y-70002688D01*
X144297550Y-69740831D01*
X144715956Y-69519331D01*
X145143349Y-69337221D01*
X145582091Y-69193536D01*
X146034544Y-69087308D01*
X146503070Y-69017570D01*
X146663833Y-69002216D01*
X146979839Y-68987702D01*
X147312168Y-68993621D01*
G36*
X132247837Y-83715810D02*
G01*
X132447907Y-83716555D01*
X132619962Y-83718015D01*
X132766387Y-83720312D01*
X132889568Y-83723566D01*
X132991891Y-83727899D01*
X133075743Y-83733430D01*
X133143510Y-83740282D01*
X133197578Y-83748575D01*
X133240333Y-83758430D01*
X133274162Y-83769967D01*
X133301450Y-83783308D01*
X133324584Y-83798574D01*
X133345951Y-83815885D01*
X133367935Y-83835362D01*
X133387494Y-83852518D01*
X133476575Y-83951699D01*
X133536305Y-84073877D01*
X133569305Y-84224681D01*
X133571964Y-84248625D01*
X133586202Y-84391500D01*
X132884333Y-84391500D01*
X132884333Y-85787451D01*
X133228291Y-85793267D01*
X133572250Y-85799083D01*
X133570559Y-87513583D01*
X133570280Y-87829458D01*
X133569986Y-88105854D01*
X133569492Y-88345623D01*
X133568615Y-88551618D01*
X133567171Y-88726693D01*
X133564977Y-88873701D01*
X133561849Y-88995495D01*
X133557604Y-89094928D01*
X133552057Y-89174853D01*
X133545026Y-89238124D01*
X133536326Y-89287594D01*
X133525774Y-89326115D01*
X133513186Y-89356542D01*
X133498379Y-89381726D01*
X133481169Y-89404522D01*
X133461373Y-89427783D01*
X133446226Y-89445456D01*
X133336533Y-89544317D01*
X133203753Y-89607872D01*
X133052082Y-89636033D01*
X132965399Y-89645485D01*
X132917729Y-89659050D01*
X132905500Y-89674396D01*
X132899204Y-89679060D01*
X132878857Y-89683198D01*
X132842265Y-89686840D01*
X132787237Y-89690014D01*
X132711580Y-89692749D01*
X132613103Y-89695075D01*
X132489612Y-89697019D01*
X132338916Y-89698611D01*
X132158823Y-89699880D01*
X131947140Y-89700854D01*
X131701675Y-89701562D01*
X131420237Y-89702034D01*
X131100632Y-89702297D01*
X130778250Y-89702381D01*
X130422645Y-89702317D01*
X130107174Y-89702070D01*
X129829635Y-89701609D01*
X129587829Y-89700907D01*
X129379555Y-89699933D01*
X129202614Y-89698660D01*
X129054804Y-89697059D01*
X128933926Y-89695100D01*
X128837780Y-89692755D01*
X128764165Y-89689996D01*
X128710882Y-89686792D01*
X128675730Y-89683116D01*
X128656508Y-89678938D01*
X128651000Y-89674505D01*
X128633849Y-89656554D01*
X128580272Y-89643628D01*
X128508125Y-89636265D01*
X128359917Y-89611107D01*
X128236853Y-89556440D01*
X128130265Y-89468235D01*
X128117652Y-89454632D01*
X128094171Y-89428991D01*
X128073616Y-89405533D01*
X128055794Y-89381415D01*
X128040509Y-89353792D01*
X128027567Y-89319818D01*
X128016774Y-89276648D01*
X128007935Y-89221438D01*
X128000855Y-89151342D01*
X127995341Y-89063515D01*
X127991198Y-88955113D01*
X127988231Y-88823290D01*
X127986246Y-88665202D01*
X127985048Y-88478003D01*
X127984443Y-88258849D01*
X127984236Y-88004894D01*
X127984234Y-87713294D01*
X127984250Y-87503000D01*
X127984250Y-85799083D01*
X128672166Y-85787451D01*
X128672166Y-84391500D01*
X127967545Y-84391500D01*
X127980245Y-84255495D01*
X128011516Y-84092790D01*
X128072878Y-83959176D01*
X128165474Y-83852856D01*
X128286805Y-83773812D01*
X128386416Y-83724750D01*
X130743724Y-83718592D01*
X131119668Y-83717572D01*
X131455666Y-83716662D01*
X131754102Y-83715985D01*
X132017364Y-83715660D01*
X132247837Y-83715810D01*
G37*
X132247837Y-83715810D02*
X132447907Y-83716555D01*
X132619962Y-83718015D01*
X132766387Y-83720312D01*
X132889568Y-83723566D01*
X132991891Y-83727899D01*
X133075743Y-83733430D01*
X133143510Y-83740282D01*
X133197578Y-83748575D01*
X133240333Y-83758430D01*
X133274162Y-83769967D01*
X133301450Y-83783308D01*
X133324584Y-83798574D01*
X133345951Y-83815885D01*
X133367935Y-83835362D01*
X133387494Y-83852518D01*
X133476575Y-83951699D01*
X133536305Y-84073877D01*
X133569305Y-84224681D01*
X133571964Y-84248625D01*
X133586202Y-84391500D01*
X132884333Y-84391500D01*
X132884333Y-85787451D01*
X133228291Y-85793267D01*
X133572250Y-85799083D01*
X133570559Y-87513583D01*
X133570280Y-87829458D01*
X133569986Y-88105854D01*
X133569492Y-88345623D01*
X133568615Y-88551618D01*
X133567171Y-88726693D01*
X133564977Y-88873701D01*
X133561849Y-88995495D01*
X133557604Y-89094928D01*
X133552057Y-89174853D01*
X133545026Y-89238124D01*
X133536326Y-89287594D01*
X133525774Y-89326115D01*
X133513186Y-89356542D01*
X133498379Y-89381726D01*
X133481169Y-89404522D01*
X133461373Y-89427783D01*
X133446226Y-89445456D01*
X133336533Y-89544317D01*
X133203753Y-89607872D01*
X133052082Y-89636033D01*
X132965399Y-89645485D01*
X132917729Y-89659050D01*
X132905500Y-89674396D01*
X132899204Y-89679060D01*
X132878857Y-89683198D01*
X132842265Y-89686840D01*
X132787237Y-89690014D01*
X132711580Y-89692749D01*
X132613103Y-89695075D01*
X132489612Y-89697019D01*
X132338916Y-89698611D01*
X132158823Y-89699880D01*
X131947140Y-89700854D01*
X131701675Y-89701562D01*
X131420237Y-89702034D01*
X131100632Y-89702297D01*
X130778250Y-89702381D01*
X130422645Y-89702317D01*
X130107174Y-89702070D01*
X129829635Y-89701609D01*
X129587829Y-89700907D01*
X129379555Y-89699933D01*
X129202614Y-89698660D01*
X129054804Y-89697059D01*
X128933926Y-89695100D01*
X128837780Y-89692755D01*
X128764165Y-89689996D01*
X128710882Y-89686792D01*
X128675730Y-89683116D01*
X128656508Y-89678938D01*
X128651000Y-89674505D01*
X128633849Y-89656554D01*
X128580272Y-89643628D01*
X128508125Y-89636265D01*
X128359917Y-89611107D01*
X128236853Y-89556440D01*
X128130265Y-89468235D01*
X128117652Y-89454632D01*
X128094171Y-89428991D01*
X128073616Y-89405533D01*
X128055794Y-89381415D01*
X128040509Y-89353792D01*
X128027567Y-89319818D01*
X128016774Y-89276648D01*
X128007935Y-89221438D01*
X128000855Y-89151342D01*
X127995341Y-89063515D01*
X127991198Y-88955113D01*
X127988231Y-88823290D01*
X127986246Y-88665202D01*
X127985048Y-88478003D01*
X127984443Y-88258849D01*
X127984236Y-88004894D01*
X127984234Y-87713294D01*
X127984250Y-87503000D01*
X127984250Y-85799083D01*
X128672166Y-85787451D01*
X128672166Y-84391500D01*
X127967545Y-84391500D01*
X127980245Y-84255495D01*
X128011516Y-84092790D01*
X128072878Y-83959176D01*
X128165474Y-83852856D01*
X128286805Y-83773812D01*
X128386416Y-83724750D01*
X130743724Y-83718592D01*
X131119668Y-83717572D01*
X131455666Y-83716662D01*
X131754102Y-83715985D01*
X132017364Y-83715660D01*
X132247837Y-83715810D01*
G36*
X155183253Y-86446994D02*
G01*
X155331760Y-86447696D01*
X155455661Y-86448818D01*
X155557490Y-86450401D01*
X155639778Y-86452487D01*
X155705059Y-86455115D01*
X155755865Y-86458328D01*
X155794729Y-86462167D01*
X155824183Y-86466672D01*
X155846760Y-86471886D01*
X155864992Y-86477849D01*
X155881412Y-86484602D01*
X155884324Y-86485884D01*
X156029963Y-86569830D01*
X156142866Y-86679196D01*
X156200497Y-86765901D01*
X156262916Y-86878583D01*
X156269232Y-88619541D01*
X156275548Y-90360500D01*
X151024166Y-90360500D01*
X151024365Y-88619541D01*
X151024563Y-86878583D01*
X151086620Y-86770387D01*
X151179406Y-86643367D01*
X151297369Y-86546467D01*
X151384000Y-86499527D01*
X151400034Y-86492349D01*
X151417112Y-86485983D01*
X151437764Y-86480374D01*
X151464522Y-86475465D01*
X151499915Y-86471199D01*
X151546476Y-86467519D01*
X151606734Y-86464370D01*
X151683222Y-86461695D01*
X151778469Y-86459436D01*
X151895006Y-86457539D01*
X152035366Y-86455945D01*
X152202077Y-86454599D01*
X152397672Y-86453444D01*
X152624682Y-86452424D01*
X152885636Y-86451481D01*
X153183067Y-86450560D01*
X153519504Y-86449605D01*
X153633683Y-86449288D01*
X153983004Y-86448337D01*
X154292525Y-86447558D01*
X154564778Y-86446993D01*
X154802295Y-86446683D01*
X155007609Y-86446670D01*
X155183253Y-86446994D01*
G37*
X155183253Y-86446994D02*
X155331760Y-86447696D01*
X155455661Y-86448818D01*
X155557490Y-86450401D01*
X155639778Y-86452487D01*
X155705059Y-86455115D01*
X155755865Y-86458328D01*
X155794729Y-86462167D01*
X155824183Y-86466672D01*
X155846760Y-86471886D01*
X155864992Y-86477849D01*
X155881412Y-86484602D01*
X155884324Y-86485884D01*
X156029963Y-86569830D01*
X156142866Y-86679196D01*
X156200497Y-86765901D01*
X156262916Y-86878583D01*
X156269232Y-88619541D01*
X156275548Y-90360500D01*
X151024166Y-90360500D01*
X151024365Y-88619541D01*
X151024563Y-86878583D01*
X151086620Y-86770387D01*
X151179406Y-86643367D01*
X151297369Y-86546467D01*
X151384000Y-86499527D01*
X151400034Y-86492349D01*
X151417112Y-86485983D01*
X151437764Y-86480374D01*
X151464522Y-86475465D01*
X151499915Y-86471199D01*
X151546476Y-86467519D01*
X151606734Y-86464370D01*
X151683222Y-86461695D01*
X151778469Y-86459436D01*
X151895006Y-86457539D01*
X152035366Y-86455945D01*
X152202077Y-86454599D01*
X152397672Y-86453444D01*
X152624682Y-86452424D01*
X152885636Y-86451481D01*
X153183067Y-86450560D01*
X153519504Y-86449605D01*
X153633683Y-86449288D01*
X153983004Y-86448337D01*
X154292525Y-86447558D01*
X154564778Y-86446993D01*
X154802295Y-86446683D01*
X155007609Y-86446670D01*
X155183253Y-86446994D01*
G36*
X165588978Y-104998573D02*
G01*
X165776687Y-105042629D01*
X165945185Y-105119518D01*
X166100809Y-105231732D01*
X166171896Y-105297974D01*
X166271068Y-105418442D01*
X166361385Y-105568218D01*
X166436542Y-105734353D01*
X166490238Y-105903897D01*
X166507212Y-105986791D01*
X166522408Y-106039322D01*
X166543583Y-106065305D01*
X166548031Y-106066166D01*
X166595436Y-106078075D01*
X166666251Y-106109848D01*
X166750320Y-106155554D01*
X166837486Y-106209264D01*
X166917592Y-106265047D01*
X166980480Y-106316972D01*
X166985001Y-106321304D01*
X167096105Y-106457376D01*
X167171146Y-106610303D01*
X167209684Y-106774069D01*
X167211278Y-106942656D01*
X167175489Y-107110048D01*
X167101876Y-107270228D01*
X167059103Y-107334549D01*
X166957245Y-107446844D01*
X166830257Y-107536786D01*
X166706074Y-107596466D01*
X166684832Y-107604974D01*
X166663510Y-107612384D01*
X166639172Y-107618777D01*
X166608880Y-107624236D01*
X166569697Y-107628843D01*
X166518686Y-107632680D01*
X166452910Y-107635828D01*
X166369430Y-107638370D01*
X166265312Y-107640388D01*
X166137616Y-107641962D01*
X165983406Y-107643177D01*
X165799745Y-107644112D01*
X165583695Y-107644851D01*
X165332320Y-107645476D01*
X165042682Y-107646068D01*
X164920083Y-107646305D01*
X164655282Y-107646603D01*
X164400969Y-107646478D01*
X164160584Y-107645957D01*
X163937564Y-107645066D01*
X163735349Y-107643832D01*
X163557378Y-107642281D01*
X163407088Y-107640439D01*
X163287920Y-107638332D01*
X163203310Y-107635988D01*
X163156699Y-107633432D01*
X163151219Y-107632734D01*
X162991103Y-107584050D01*
X162844846Y-107498419D01*
X162718262Y-107380453D01*
X162617162Y-107234768D01*
X162594951Y-107191201D01*
X162563652Y-107121382D01*
X162544001Y-107062994D01*
X162533332Y-107001947D01*
X162528978Y-106924147D01*
X162528250Y-106838750D01*
X162533906Y-106699260D01*
X162554232Y-106588309D01*
X162594261Y-106493210D01*
X162659027Y-106401278D01*
X162734543Y-106318937D01*
X162870277Y-106207127D01*
X163017186Y-106134977D01*
X163172765Y-106103297D01*
X163334510Y-106112899D01*
X163356358Y-106117331D01*
X163421527Y-106131645D01*
X163434198Y-105980501D01*
X163466767Y-105810877D01*
X163532409Y-105651938D01*
X163626094Y-105514905D01*
X163658543Y-105480114D01*
X163791121Y-105374923D01*
X163940584Y-105306981D01*
X164108325Y-105275983D01*
X164295739Y-105281628D01*
X164445772Y-105308711D01*
X164498605Y-105319671D01*
X164536967Y-105319172D01*
X164574618Y-105302860D01*
X164625316Y-105266380D01*
X164656186Y-105242118D01*
X164834969Y-105121133D01*
X165017734Y-105039763D01*
X165211729Y-104995416D01*
X165375722Y-104984859D01*
X165588978Y-104998573D01*
G37*
X165588978Y-104998573D02*
X165776687Y-105042629D01*
X165945185Y-105119518D01*
X166100809Y-105231732D01*
X166171896Y-105297974D01*
X166271068Y-105418442D01*
X166361385Y-105568218D01*
X166436542Y-105734353D01*
X166490238Y-105903897D01*
X166507212Y-105986791D01*
X166522408Y-106039322D01*
X166543583Y-106065305D01*
X166548031Y-106066166D01*
X166595436Y-106078075D01*
X166666251Y-106109848D01*
X166750320Y-106155554D01*
X166837486Y-106209264D01*
X166917592Y-106265047D01*
X166980480Y-106316972D01*
X166985001Y-106321304D01*
X167096105Y-106457376D01*
X167171146Y-106610303D01*
X167209684Y-106774069D01*
X167211278Y-106942656D01*
X167175489Y-107110048D01*
X167101876Y-107270228D01*
X167059103Y-107334549D01*
X166957245Y-107446844D01*
X166830257Y-107536786D01*
X166706074Y-107596466D01*
X166684832Y-107604974D01*
X166663510Y-107612384D01*
X166639172Y-107618777D01*
X166608880Y-107624236D01*
X166569697Y-107628843D01*
X166518686Y-107632680D01*
X166452910Y-107635828D01*
X166369430Y-107638370D01*
X166265312Y-107640388D01*
X166137616Y-107641962D01*
X165983406Y-107643177D01*
X165799745Y-107644112D01*
X165583695Y-107644851D01*
X165332320Y-107645476D01*
X165042682Y-107646068D01*
X164920083Y-107646305D01*
X164655282Y-107646603D01*
X164400969Y-107646478D01*
X164160584Y-107645957D01*
X163937564Y-107645066D01*
X163735349Y-107643832D01*
X163557378Y-107642281D01*
X163407088Y-107640439D01*
X163287920Y-107638332D01*
X163203310Y-107635988D01*
X163156699Y-107633432D01*
X163151219Y-107632734D01*
X162991103Y-107584050D01*
X162844846Y-107498419D01*
X162718262Y-107380453D01*
X162617162Y-107234768D01*
X162594951Y-107191201D01*
X162563652Y-107121382D01*
X162544001Y-107062994D01*
X162533332Y-107001947D01*
X162528978Y-106924147D01*
X162528250Y-106838750D01*
X162533906Y-106699260D01*
X162554232Y-106588309D01*
X162594261Y-106493210D01*
X162659027Y-106401278D01*
X162734543Y-106318937D01*
X162870277Y-106207127D01*
X163017186Y-106134977D01*
X163172765Y-106103297D01*
X163334510Y-106112899D01*
X163356358Y-106117331D01*
X163421527Y-106131645D01*
X163434198Y-105980501D01*
X163466767Y-105810877D01*
X163532409Y-105651938D01*
X163626094Y-105514905D01*
X163658543Y-105480114D01*
X163791121Y-105374923D01*
X163940584Y-105306981D01*
X164108325Y-105275983D01*
X164295739Y-105281628D01*
X164445772Y-105308711D01*
X164498605Y-105319671D01*
X164536967Y-105319172D01*
X164574618Y-105302860D01*
X164625316Y-105266380D01*
X164656186Y-105242118D01*
X164834969Y-105121133D01*
X165017734Y-105039763D01*
X165211729Y-104995416D01*
X165375722Y-104984859D01*
X165588978Y-104998573D01*
G36*
X122484276Y-112678001D02*
G01*
X122590651Y-112690597D01*
X122883646Y-112758993D01*
X123162365Y-112866815D01*
X123424567Y-113012904D01*
X123668011Y-113196098D01*
X123794924Y-113314075D01*
X123988902Y-113533539D01*
X124148233Y-113770869D01*
X124276195Y-114031656D01*
X124366769Y-114289416D01*
X124404371Y-114456866D01*
X124428281Y-114650538D01*
X124438032Y-114856441D01*
X124433156Y-115060583D01*
X124413186Y-115248972D01*
X124401031Y-115316000D01*
X124321861Y-115605798D01*
X124208585Y-115872751D01*
X124058987Y-116121024D01*
X123870852Y-116354784D01*
X123819317Y-116409604D01*
X123740741Y-116488842D01*
X123665496Y-116561151D01*
X123602122Y-116618542D01*
X123559163Y-116653021D01*
X123486622Y-116702416D01*
X123486477Y-117025208D01*
X123486333Y-117348000D01*
X122724333Y-117348000D01*
X122724333Y-116862225D01*
X122655541Y-116877570D01*
X122611619Y-116882710D01*
X122534103Y-116887118D01*
X122431729Y-116890481D01*
X122313237Y-116892487D01*
X122226916Y-116892916D01*
X122102407Y-116892026D01*
X121988008Y-116889562D01*
X121892455Y-116885840D01*
X121824487Y-116881170D01*
X121798291Y-116877570D01*
X121729500Y-116862225D01*
X121729500Y-117348000D01*
X120988666Y-117348000D01*
X120988666Y-116718148D01*
X120872748Y-116628717D01*
X120655544Y-116434963D01*
X120464120Y-116210417D01*
X120301829Y-115960192D01*
X120172024Y-115689399D01*
X120084094Y-115426189D01*
X120062298Y-115339632D01*
X120046995Y-115262521D01*
X120037037Y-115183751D01*
X120031277Y-115092212D01*
X120028568Y-114976799D01*
X120027895Y-114882083D01*
X120028450Y-114739407D01*
X120031880Y-114628345D01*
X120039095Y-114538223D01*
X120051007Y-114458368D01*
X120068527Y-114378106D01*
X120072167Y-114363500D01*
X120167774Y-114068364D01*
X120298942Y-113794059D01*
X120463284Y-113543062D01*
X120658412Y-113317853D01*
X120881938Y-113120909D01*
X121131475Y-112954710D01*
X121404635Y-112821732D01*
X121634250Y-112742178D01*
X121776450Y-112710513D01*
X121946395Y-112687516D01*
X122130242Y-112673934D01*
X122314149Y-112670513D01*
X122484276Y-112678001D01*
G37*
X122484276Y-112678001D02*
X122590651Y-112690597D01*
X122883646Y-112758993D01*
X123162365Y-112866815D01*
X123424567Y-113012904D01*
X123668011Y-113196098D01*
X123794924Y-113314075D01*
X123988902Y-113533539D01*
X124148233Y-113770869D01*
X124276195Y-114031656D01*
X124366769Y-114289416D01*
X124404371Y-114456866D01*
X124428281Y-114650538D01*
X124438032Y-114856441D01*
X124433156Y-115060583D01*
X124413186Y-115248972D01*
X124401031Y-115316000D01*
X124321861Y-115605798D01*
X124208585Y-115872751D01*
X124058987Y-116121024D01*
X123870852Y-116354784D01*
X123819317Y-116409604D01*
X123740741Y-116488842D01*
X123665496Y-116561151D01*
X123602122Y-116618542D01*
X123559163Y-116653021D01*
X123486622Y-116702416D01*
X123486477Y-117025208D01*
X123486333Y-117348000D01*
X122724333Y-117348000D01*
X122724333Y-116862225D01*
X122655541Y-116877570D01*
X122611619Y-116882710D01*
X122534103Y-116887118D01*
X122431729Y-116890481D01*
X122313237Y-116892487D01*
X122226916Y-116892916D01*
X122102407Y-116892026D01*
X121988008Y-116889562D01*
X121892455Y-116885840D01*
X121824487Y-116881170D01*
X121798291Y-116877570D01*
X121729500Y-116862225D01*
X121729500Y-117348000D01*
X120988666Y-117348000D01*
X120988666Y-116718148D01*
X120872748Y-116628717D01*
X120655544Y-116434963D01*
X120464120Y-116210417D01*
X120301829Y-115960192D01*
X120172024Y-115689399D01*
X120084094Y-115426189D01*
X120062298Y-115339632D01*
X120046995Y-115262521D01*
X120037037Y-115183751D01*
X120031277Y-115092212D01*
X120028568Y-114976799D01*
X120027895Y-114882083D01*
X120028450Y-114739407D01*
X120031880Y-114628345D01*
X120039095Y-114538223D01*
X120051007Y-114458368D01*
X120068527Y-114378106D01*
X120072167Y-114363500D01*
X120167774Y-114068364D01*
X120298942Y-113794059D01*
X120463284Y-113543062D01*
X120658412Y-113317853D01*
X120881938Y-113120909D01*
X121131475Y-112954710D01*
X121404635Y-112821732D01*
X121634250Y-112742178D01*
X121776450Y-112710513D01*
X121946395Y-112687516D01*
X122130242Y-112673934D01*
X122314149Y-112670513D01*
X122484276Y-112678001D01*
G36*
X144619197Y-112034197D02*
G01*
X144922230Y-112093304D01*
X145210430Y-112189096D01*
X145481379Y-112319346D01*
X145732658Y-112481828D01*
X145961849Y-112674317D01*
X146166535Y-112894587D01*
X146344296Y-113140412D01*
X146492715Y-113409566D01*
X146609373Y-113699822D01*
X146691852Y-114008956D01*
X146729237Y-114246567D01*
X146739977Y-114482386D01*
X146722937Y-114744948D01*
X146678798Y-115029659D01*
X146608244Y-115331928D01*
X146527978Y-115599342D01*
X146368625Y-116020957D01*
X146167654Y-116446178D01*
X145925559Y-116874314D01*
X145642837Y-117304671D01*
X145319984Y-117736557D01*
X144957494Y-118169279D01*
X144555863Y-118602145D01*
X144115588Y-119034461D01*
X143979740Y-119160558D01*
X143860631Y-119267501D01*
X143725088Y-119385337D01*
X143577277Y-119510762D01*
X143421364Y-119640472D01*
X143261514Y-119771162D01*
X143101894Y-119899529D01*
X142946670Y-120022268D01*
X142800008Y-120136075D01*
X142666073Y-120237646D01*
X142549032Y-120323677D01*
X142453050Y-120390863D01*
X142382293Y-120435900D01*
X142351804Y-120451732D01*
X142287240Y-120474622D01*
X142237825Y-120475385D01*
X142182129Y-120453205D01*
X142165916Y-120444631D01*
X142122007Y-120416887D01*
X142050339Y-120366898D01*
X141956317Y-120298729D01*
X141845348Y-120216446D01*
X141722835Y-120124113D01*
X141594185Y-120025797D01*
X141464804Y-119925563D01*
X141340095Y-119827476D01*
X141255750Y-119760076D01*
X140810352Y-119386846D01*
X140388195Y-119003897D01*
X139991856Y-118614104D01*
X139623914Y-118220340D01*
X139286947Y-117825482D01*
X138983532Y-117432402D01*
X138716248Y-117043975D01*
X138503705Y-116691833D01*
X138350064Y-116399651D01*
X138208326Y-116093953D01*
X138082547Y-115784925D01*
X137976781Y-115482752D01*
X137895085Y-115197619D01*
X137874892Y-115112552D01*
X137858172Y-115032269D01*
X137845888Y-114956388D01*
X137837400Y-114876093D01*
X137832072Y-114782568D01*
X137829264Y-114666998D01*
X137828339Y-114520566D01*
X137828333Y-114469333D01*
X137828824Y-114319091D01*
X137830501Y-114202805D01*
X137834100Y-114112096D01*
X137840357Y-114038591D01*
X137850007Y-113973911D01*
X137863786Y-113909682D01*
X137882430Y-113837527D01*
X137884475Y-113829976D01*
X137985809Y-113533991D01*
X138123338Y-113253839D01*
X138293822Y-112993424D01*
X138494025Y-112756649D01*
X138720707Y-112547418D01*
X138970633Y-112369633D01*
X139197885Y-112246643D01*
X139490731Y-112131834D01*
X139793256Y-112055930D01*
X140101002Y-112018911D01*
X140409511Y-112020754D01*
X140714324Y-112061441D01*
X141010985Y-112140949D01*
X141289287Y-112256404D01*
X141408059Y-112317669D01*
X141513941Y-112378725D01*
X141614304Y-112445019D01*
X141716521Y-112521998D01*
X141827962Y-112615109D01*
X141956000Y-112729801D01*
X142057907Y-112824397D01*
X142146726Y-112883595D01*
X142246752Y-112911214D01*
X142343363Y-112903708D01*
X142389181Y-112880518D01*
X142453834Y-112835060D01*
X142526504Y-112775279D01*
X142561444Y-112743467D01*
X142825281Y-112519839D01*
X143099326Y-112337232D01*
X143383938Y-112195495D01*
X143679479Y-112094478D01*
X143986308Y-112034030D01*
X144303750Y-112014000D01*
X144619197Y-112034197D01*
G37*
X144619197Y-112034197D02*
X144922230Y-112093304D01*
X145210430Y-112189096D01*
X145481379Y-112319346D01*
X145732658Y-112481828D01*
X145961849Y-112674317D01*
X146166535Y-112894587D01*
X146344296Y-113140412D01*
X146492715Y-113409566D01*
X146609373Y-113699822D01*
X146691852Y-114008956D01*
X146729237Y-114246567D01*
X146739977Y-114482386D01*
X146722937Y-114744948D01*
X146678798Y-115029659D01*
X146608244Y-115331928D01*
X146527978Y-115599342D01*
X146368625Y-116020957D01*
X146167654Y-116446178D01*
X145925559Y-116874314D01*
X145642837Y-117304671D01*
X145319984Y-117736557D01*
X144957494Y-118169279D01*
X144555863Y-118602145D01*
X144115588Y-119034461D01*
X143979740Y-119160558D01*
X143860631Y-119267501D01*
X143725088Y-119385337D01*
X143577277Y-119510762D01*
X143421364Y-119640472D01*
X143261514Y-119771162D01*
X143101894Y-119899529D01*
X142946670Y-120022268D01*
X142800008Y-120136075D01*
X142666073Y-120237646D01*
X142549032Y-120323677D01*
X142453050Y-120390863D01*
X142382293Y-120435900D01*
X142351804Y-120451732D01*
X142287240Y-120474622D01*
X142237825Y-120475385D01*
X142182129Y-120453205D01*
X142165916Y-120444631D01*
X142122007Y-120416887D01*
X142050339Y-120366898D01*
X141956317Y-120298729D01*
X141845348Y-120216446D01*
X141722835Y-120124113D01*
X141594185Y-120025797D01*
X141464804Y-119925563D01*
X141340095Y-119827476D01*
X141255750Y-119760076D01*
X140810352Y-119386846D01*
X140388195Y-119003897D01*
X139991856Y-118614104D01*
X139623914Y-118220340D01*
X139286947Y-117825482D01*
X138983532Y-117432402D01*
X138716248Y-117043975D01*
X138503705Y-116691833D01*
X138350064Y-116399651D01*
X138208326Y-116093953D01*
X138082547Y-115784925D01*
X137976781Y-115482752D01*
X137895085Y-115197619D01*
X137874892Y-115112552D01*
X137858172Y-115032269D01*
X137845888Y-114956388D01*
X137837400Y-114876093D01*
X137832072Y-114782568D01*
X137829264Y-114666998D01*
X137828339Y-114520566D01*
X137828333Y-114469333D01*
X137828824Y-114319091D01*
X137830501Y-114202805D01*
X137834100Y-114112096D01*
X137840357Y-114038591D01*
X137850007Y-113973911D01*
X137863786Y-113909682D01*
X137882430Y-113837527D01*
X137884475Y-113829976D01*
X137985809Y-113533991D01*
X138123338Y-113253839D01*
X138293822Y-112993424D01*
X138494025Y-112756649D01*
X138720707Y-112547418D01*
X138970633Y-112369633D01*
X139197885Y-112246643D01*
X139490731Y-112131834D01*
X139793256Y-112055930D01*
X140101002Y-112018911D01*
X140409511Y-112020754D01*
X140714324Y-112061441D01*
X141010985Y-112140949D01*
X141289287Y-112256404D01*
X141408059Y-112317669D01*
X141513941Y-112378725D01*
X141614304Y-112445019D01*
X141716521Y-112521998D01*
X141827962Y-112615109D01*
X141956000Y-112729801D01*
X142057907Y-112824397D01*
X142146726Y-112883595D01*
X142246752Y-112911214D01*
X142343363Y-112903708D01*
X142389181Y-112880518D01*
X142453834Y-112835060D01*
X142526504Y-112775279D01*
X142561444Y-112743467D01*
X142825281Y-112519839D01*
X143099326Y-112337232D01*
X143383938Y-112195495D01*
X143679479Y-112094478D01*
X143986308Y-112034030D01*
X144303750Y-112014000D01*
X144619197Y-112034197D01*
D11*
G36*
X165497571Y-123478675D02*
G01*
X165489302Y-123423554D01*
X165486480Y-123360164D01*
X165293553Y-123023925D01*
X165031727Y-122748315D01*
X164993141Y-122709732D01*
X164962825Y-122668389D01*
X164926994Y-122635316D01*
X164877385Y-122613274D01*
X164712023Y-122467202D01*
X164510829Y-122340422D01*
X164301367Y-122216399D01*
X164108440Y-122078596D01*
X164061588Y-122092368D01*
X164023002Y-122089546D01*
X163959613Y-122163960D01*
X163876930Y-122205302D01*
X163797005Y-122254911D01*
X163739126Y-122332079D01*
X163758430Y-122345852D01*
X163750161Y-122376168D01*
X163744658Y-122406487D01*
X163769465Y-122420260D01*
X163750161Y-122439564D01*
X163730857Y-122458868D01*
X163739126Y-122486441D01*
X163739126Y-122516757D01*
X163887953Y-122602197D01*
X164058831Y-122684877D01*
X164240731Y-122781340D01*
X164422635Y-122897097D01*
X164607290Y-123043169D01*
X164783679Y-123214044D01*
X164943532Y-123398702D01*
X165070312Y-123583360D01*
X165056540Y-123608167D01*
X165040002Y-123632974D01*
X164844320Y-123632974D01*
X164662416Y-123644009D01*
X164648644Y-123621968D01*
X164632106Y-123602664D01*
X164282085Y-123542028D01*
X163951355Y-123453834D01*
X164039549Y-123423517D01*
X164039549Y-123395944D01*
X164009233Y-123368371D01*
X164083646Y-123302224D01*
X164116720Y-123194740D01*
X164097416Y-123156154D01*
X164116720Y-123120323D01*
X164133258Y-123120323D01*
X164138762Y-123131358D01*
X164144265Y-123142393D01*
X164158037Y-123142393D01*
X164144265Y-123092784D01*
X164127727Y-123045929D01*
X163898974Y-122894345D01*
X163810780Y-122952223D01*
X163700535Y-123012856D01*
X163582025Y-123076246D01*
X163469026Y-123136881D01*
X163383586Y-123192002D01*
X163314684Y-123258146D01*
X163248540Y-123324294D01*
X163168614Y-123379415D01*
X163163111Y-123451074D01*
X163157608Y-123517218D01*
X163284387Y-123677071D01*
X163452510Y-123787313D01*
X163648189Y-123867241D01*
X163863163Y-123927874D01*
X164086406Y-123988509D01*
X164304135Y-124060166D01*
X164384063Y-124062988D01*
X164447453Y-124071257D01*
X164508086Y-124082292D01*
X164574230Y-124090561D01*
X164593534Y-124096064D01*
X164604569Y-124109837D01*
X164703787Y-124118106D01*
X164778201Y-124118106D01*
X164858126Y-124129141D01*
X164935297Y-124137410D01*
X165323903Y-123961021D01*
X165478245Y-123506268D01*
X165483748Y-123489730D01*
X165497520Y-123478695D01*
X165497571Y-123478675D01*
G37*
X165497571Y-123478675D02*
X165489302Y-123423554D01*
X165486480Y-123360164D01*
X165293553Y-123023925D01*
X165031727Y-122748315D01*
X164993141Y-122709732D01*
X164962825Y-122668389D01*
X164926994Y-122635316D01*
X164877385Y-122613274D01*
X164712023Y-122467202D01*
X164510829Y-122340422D01*
X164301367Y-122216399D01*
X164108440Y-122078596D01*
X164061588Y-122092368D01*
X164023002Y-122089546D01*
X163959613Y-122163960D01*
X163876930Y-122205302D01*
X163797005Y-122254911D01*
X163739126Y-122332079D01*
X163758430Y-122345852D01*
X163750161Y-122376168D01*
X163744658Y-122406487D01*
X163769465Y-122420260D01*
X163750161Y-122439564D01*
X163730857Y-122458868D01*
X163739126Y-122486441D01*
X163739126Y-122516757D01*
X163887953Y-122602197D01*
X164058831Y-122684877D01*
X164240731Y-122781340D01*
X164422635Y-122897097D01*
X164607290Y-123043169D01*
X164783679Y-123214044D01*
X164943532Y-123398702D01*
X165070312Y-123583360D01*
X165056540Y-123608167D01*
X165040002Y-123632974D01*
X164844320Y-123632974D01*
X164662416Y-123644009D01*
X164648644Y-123621968D01*
X164632106Y-123602664D01*
X164282085Y-123542028D01*
X163951355Y-123453834D01*
X164039549Y-123423517D01*
X164039549Y-123395944D01*
X164009233Y-123368371D01*
X164083646Y-123302224D01*
X164116720Y-123194740D01*
X164097416Y-123156154D01*
X164116720Y-123120323D01*
X164133258Y-123120323D01*
X164138762Y-123131358D01*
X164144265Y-123142393D01*
X164158037Y-123142393D01*
X164144265Y-123092784D01*
X164127727Y-123045929D01*
X163898974Y-122894345D01*
X163810780Y-122952223D01*
X163700535Y-123012856D01*
X163582025Y-123076246D01*
X163469026Y-123136881D01*
X163383586Y-123192002D01*
X163314684Y-123258146D01*
X163248540Y-123324294D01*
X163168614Y-123379415D01*
X163163111Y-123451074D01*
X163157608Y-123517218D01*
X163284387Y-123677071D01*
X163452510Y-123787313D01*
X163648189Y-123867241D01*
X163863163Y-123927874D01*
X164086406Y-123988509D01*
X164304135Y-124060166D01*
X164384063Y-124062988D01*
X164447453Y-124071257D01*
X164508086Y-124082292D01*
X164574230Y-124090561D01*
X164593534Y-124096064D01*
X164604569Y-124109837D01*
X164703787Y-124118106D01*
X164778201Y-124118106D01*
X164858126Y-124129141D01*
X164935297Y-124137410D01*
X165323903Y-123961021D01*
X165478245Y-123506268D01*
X165483748Y-123489730D01*
X165497520Y-123478695D01*
X165497571Y-123478675D01*
G36*
X163193492Y-123894843D02*
G01*
X162515385Y-122919319D01*
X162562240Y-123046099D01*
X162319704Y-122982709D01*
X162079925Y-122883491D01*
X162151584Y-122720883D01*
X162272852Y-122635443D01*
X162352777Y-122731906D01*
X162440972Y-122820101D01*
X162515385Y-122919319D01*
X163193492Y-123894843D01*
X163218299Y-123875539D01*
X163243107Y-123828687D01*
X163212790Y-123828687D01*
X163223825Y-123718442D01*
X163199018Y-123619224D01*
X163176976Y-123525518D01*
X163185246Y-123429055D01*
X163165942Y-123423551D01*
X163154907Y-123384966D01*
X163152084Y-123335357D01*
X163154907Y-123291260D01*
X163099786Y-123114871D01*
X163061200Y-122935727D01*
X163025369Y-122762093D01*
X162970249Y-122602242D01*
X162890323Y-122613277D01*
X162832445Y-122649105D01*
X162680861Y-122489255D01*
X162548569Y-122307351D01*
X162394230Y-122147500D01*
X162182010Y-122064818D01*
X162033183Y-122166793D01*
X161898134Y-122299085D01*
X161856795Y-122329401D01*
X161812697Y-122356974D01*
X161812697Y-122398314D01*
X161749307Y-122483751D01*
X161702453Y-122585727D01*
X161661113Y-122693214D01*
X161617016Y-122795189D01*
X161622519Y-122825505D01*
X161617016Y-122850313D01*
X161608747Y-122877886D01*
X161605924Y-122913714D01*
X161702385Y-123150738D01*
X161906336Y-123296808D01*
X162159896Y-123393272D01*
X162405186Y-123478709D01*
X162394151Y-123489744D01*
X162385882Y-123506282D01*
X162259102Y-123586207D01*
X162173665Y-123638574D01*
X162085471Y-123671647D01*
X161950422Y-123704721D01*
X161818130Y-123737792D01*
X161729936Y-123757096D01*
X161647253Y-123768130D01*
X161528742Y-123781903D01*
X161479133Y-123853562D01*
X161451560Y-123936245D01*
X161448738Y-124016170D01*
X161470779Y-124074048D01*
X161457007Y-124085083D01*
X161429434Y-124085083D01*
X161462505Y-124118157D01*
X161490078Y-124156742D01*
X161523151Y-124192570D01*
X161567249Y-124211874D01*
X161820808Y-124214696D01*
X162214926Y-124087916D01*
X162407850Y-124007988D01*
X162537388Y-123939087D01*
X162639363Y-123864673D01*
X162746850Y-123768212D01*
X162757885Y-123779247D01*
X162766154Y-123790282D01*
X162810251Y-123969428D01*
X162892934Y-124109986D01*
X162953569Y-124118255D01*
X162989397Y-124148572D01*
X163030737Y-124145749D01*
X163055545Y-124131977D01*
X163080352Y-124115439D01*
X163124449Y-124109935D01*
X163140987Y-124063084D01*
X163185085Y-124041042D01*
X163179581Y-123999702D01*
X163187850Y-123966629D01*
X163198885Y-123933555D01*
X163193382Y-123894970D01*
X163193492Y-123894843D01*
G37*
X163193492Y-123894843D02*
X162515385Y-122919319D01*
X162562240Y-123046099D01*
X162319704Y-122982709D01*
X162079925Y-122883491D01*
X162151584Y-122720883D01*
X162272852Y-122635443D01*
X162352777Y-122731906D01*
X162440972Y-122820101D01*
X162515385Y-122919319D01*
X163193492Y-123894843D01*
X163218299Y-123875539D01*
X163243107Y-123828687D01*
X163212790Y-123828687D01*
X163223825Y-123718442D01*
X163199018Y-123619224D01*
X163176976Y-123525518D01*
X163185246Y-123429055D01*
X163165942Y-123423551D01*
X163154907Y-123384966D01*
X163152084Y-123335357D01*
X163154907Y-123291260D01*
X163099786Y-123114871D01*
X163061200Y-122935727D01*
X163025369Y-122762093D01*
X162970249Y-122602242D01*
X162890323Y-122613277D01*
X162832445Y-122649105D01*
X162680861Y-122489255D01*
X162548569Y-122307351D01*
X162394230Y-122147500D01*
X162182010Y-122064818D01*
X162033183Y-122166793D01*
X161898134Y-122299085D01*
X161856795Y-122329401D01*
X161812697Y-122356974D01*
X161812697Y-122398314D01*
X161749307Y-122483751D01*
X161702453Y-122585727D01*
X161661113Y-122693214D01*
X161617016Y-122795189D01*
X161622519Y-122825505D01*
X161617016Y-122850313D01*
X161608747Y-122877886D01*
X161605924Y-122913714D01*
X161702385Y-123150738D01*
X161906336Y-123296808D01*
X162159896Y-123393272D01*
X162405186Y-123478709D01*
X162394151Y-123489744D01*
X162385882Y-123506282D01*
X162259102Y-123586207D01*
X162173665Y-123638574D01*
X162085471Y-123671647D01*
X161950422Y-123704721D01*
X161818130Y-123737792D01*
X161729936Y-123757096D01*
X161647253Y-123768130D01*
X161528742Y-123781903D01*
X161479133Y-123853562D01*
X161451560Y-123936245D01*
X161448738Y-124016170D01*
X161470779Y-124074048D01*
X161457007Y-124085083D01*
X161429434Y-124085083D01*
X161462505Y-124118157D01*
X161490078Y-124156742D01*
X161523151Y-124192570D01*
X161567249Y-124211874D01*
X161820808Y-124214696D01*
X162214926Y-124087916D01*
X162407850Y-124007988D01*
X162537388Y-123939087D01*
X162639363Y-123864673D01*
X162746850Y-123768212D01*
X162757885Y-123779247D01*
X162766154Y-123790282D01*
X162810251Y-123969428D01*
X162892934Y-124109986D01*
X162953569Y-124118255D01*
X162989397Y-124148572D01*
X163030737Y-124145749D01*
X163055545Y-124131977D01*
X163080352Y-124115439D01*
X163124449Y-124109935D01*
X163140987Y-124063084D01*
X163185085Y-124041042D01*
X163179581Y-123999702D01*
X163187850Y-123966629D01*
X163198885Y-123933555D01*
X163193382Y-123894970D01*
X163193492Y-123894843D01*
G36*
X159908248Y-122580195D02*
G01*
X159908248Y-122610511D01*
X159911070Y-122627050D01*
X159911070Y-122646354D01*
X159905567Y-122673927D01*
X160040613Y-122803464D01*
X160203221Y-122853073D01*
X160385121Y-122883389D01*
X160567025Y-122955048D01*
X160633169Y-122955048D01*
X160715852Y-122963317D01*
X160757192Y-122988125D01*
X160806804Y-123001897D01*
X160798535Y-123054263D01*
X160790265Y-123095603D01*
X160578048Y-123092781D01*
X160346539Y-123079009D01*
X160349361Y-123098313D01*
X160352183Y-123112085D01*
X160313598Y-123147913D01*
X160275012Y-123186499D01*
X160236427Y-123219572D01*
X160186818Y-123227841D01*
X160173045Y-123277450D01*
X160178549Y-123329817D01*
X160266743Y-123393207D01*
X160360450Y-123448328D01*
X160462425Y-123489670D01*
X160580936Y-123500705D01*
X160602977Y-123500705D01*
X160619515Y-123492436D01*
X160682905Y-123500705D01*
X160743541Y-123508974D01*
X160817954Y-123497939D01*
X160892368Y-123486904D01*
X160972293Y-123610927D01*
X161035683Y-123751488D01*
X160881344Y-123762523D01*
X160762833Y-123754254D01*
X160649832Y-123740481D01*
X160503762Y-123734978D01*
X160374225Y-123696392D01*
X160233667Y-123663319D01*
X160195081Y-123693635D01*
X160164762Y-123732221D01*
X160131691Y-123762537D01*
X160090349Y-123773572D01*
X160076576Y-123801117D01*
X160068307Y-123828690D01*
X160060038Y-123853497D01*
X160035231Y-123859000D01*
X160131694Y-123999561D01*
X160252960Y-124071217D01*
X160407301Y-124109803D01*
X160591959Y-124142876D01*
X160633299Y-124140054D01*
X160671885Y-124134551D01*
X160823469Y-124159358D01*
X161002612Y-124167627D01*
X161176247Y-124142820D01*
X161311293Y-124071161D01*
X161341612Y-124027064D01*
X161377440Y-123985724D01*
X161388475Y-123905798D01*
X161405013Y-123814847D01*
X161418786Y-123718383D01*
X161413282Y-123632946D01*
X161380212Y-123558532D01*
X161360908Y-123486873D01*
X161344369Y-123473101D01*
X161322328Y-123462066D01*
X161286497Y-123368360D01*
X161247914Y-123282923D01*
X161206571Y-123200240D01*
X161165232Y-123103777D01*
X161223107Y-123026606D01*
X161247914Y-122941169D01*
X161261687Y-122852974D01*
X161280991Y-122759268D01*
X161214846Y-122693121D01*
X161126652Y-122649023D01*
X161024676Y-122621450D01*
X160908920Y-122596643D01*
X160713239Y-122541522D01*
X160542364Y-122511206D01*
X160365975Y-122486398D01*
X160159267Y-122453325D01*
X160112416Y-122478132D01*
X160087608Y-122464360D01*
X160073836Y-122447822D01*
X160004934Y-122527747D01*
X159908471Y-122580113D01*
X159908248Y-122580195D01*
G37*
X159908248Y-122580195D02*
X159908248Y-122610511D01*
X159911070Y-122627050D01*
X159911070Y-122646354D01*
X159905567Y-122673927D01*
X160040613Y-122803464D01*
X160203221Y-122853073D01*
X160385121Y-122883389D01*
X160567025Y-122955048D01*
X160633169Y-122955048D01*
X160715852Y-122963317D01*
X160757192Y-122988125D01*
X160806804Y-123001897D01*
X160798535Y-123054263D01*
X160790265Y-123095603D01*
X160578048Y-123092781D01*
X160346539Y-123079009D01*
X160349361Y-123098313D01*
X160352183Y-123112085D01*
X160313598Y-123147913D01*
X160275012Y-123186499D01*
X160236427Y-123219572D01*
X160186818Y-123227841D01*
X160173045Y-123277450D01*
X160178549Y-123329817D01*
X160266743Y-123393207D01*
X160360450Y-123448328D01*
X160462425Y-123489670D01*
X160580936Y-123500705D01*
X160602977Y-123500705D01*
X160619515Y-123492436D01*
X160682905Y-123500705D01*
X160743541Y-123508974D01*
X160817954Y-123497939D01*
X160892368Y-123486904D01*
X160972293Y-123610927D01*
X161035683Y-123751488D01*
X160881344Y-123762523D01*
X160762833Y-123754254D01*
X160649832Y-123740481D01*
X160503762Y-123734978D01*
X160374225Y-123696392D01*
X160233667Y-123663319D01*
X160195081Y-123693635D01*
X160164762Y-123732221D01*
X160131691Y-123762537D01*
X160090349Y-123773572D01*
X160076576Y-123801117D01*
X160068307Y-123828690D01*
X160060038Y-123853497D01*
X160035231Y-123859000D01*
X160131694Y-123999561D01*
X160252960Y-124071217D01*
X160407301Y-124109803D01*
X160591959Y-124142876D01*
X160633299Y-124140054D01*
X160671885Y-124134551D01*
X160823469Y-124159358D01*
X161002612Y-124167627D01*
X161176247Y-124142820D01*
X161311293Y-124071161D01*
X161341612Y-124027064D01*
X161377440Y-123985724D01*
X161388475Y-123905798D01*
X161405013Y-123814847D01*
X161418786Y-123718383D01*
X161413282Y-123632946D01*
X161380212Y-123558532D01*
X161360908Y-123486873D01*
X161344369Y-123473101D01*
X161322328Y-123462066D01*
X161286497Y-123368360D01*
X161247914Y-123282923D01*
X161206571Y-123200240D01*
X161165232Y-123103777D01*
X161223107Y-123026606D01*
X161247914Y-122941169D01*
X161261687Y-122852974D01*
X161280991Y-122759268D01*
X161214846Y-122693121D01*
X161126652Y-122649023D01*
X161024676Y-122621450D01*
X160908920Y-122596643D01*
X160713239Y-122541522D01*
X160542364Y-122511206D01*
X160365975Y-122486398D01*
X160159267Y-122453325D01*
X160112416Y-122478132D01*
X160087608Y-122464360D01*
X160073836Y-122447822D01*
X160004934Y-122527747D01*
X159908471Y-122580113D01*
X159908248Y-122580195D01*
G36*
X159092450Y-123409773D02*
G01*
X159125521Y-123451116D01*
X159153094Y-123497968D01*
X159183411Y-123555846D01*
X159224753Y-123605455D01*
X159252327Y-123671602D01*
X159296424Y-123723968D01*
X159425961Y-123963744D01*
X159442499Y-124013356D01*
X159467306Y-124057453D01*
X159478341Y-124076757D01*
X159486610Y-124090530D01*
X159492114Y-124118103D01*
X159522430Y-124156688D01*
X159552749Y-124187005D01*
X159572053Y-124209046D01*
X159613393Y-124225584D01*
X159858684Y-124010610D01*
X159855862Y-123983037D01*
X159847592Y-123955464D01*
X159836558Y-123922390D01*
X159811750Y-123845219D01*
X159764899Y-123776318D01*
X159740091Y-123715685D01*
X159673944Y-123586148D01*
X159613311Y-123481418D01*
X159577483Y-123420785D01*
X159643628Y-123340857D01*
X159707018Y-123208566D01*
X159745603Y-123095567D01*
X159753872Y-123034934D01*
X159764907Y-122982568D01*
X159778679Y-122921935D01*
X159784183Y-122858545D01*
X159800721Y-122819960D01*
X159795218Y-122792387D01*
X159792395Y-122742778D01*
X159806168Y-122676633D01*
X159819940Y-122615998D01*
X159822763Y-122549853D01*
X159806224Y-122489221D01*
X159753861Y-122436854D01*
X159707006Y-122434032D01*
X159660155Y-122461605D01*
X159613300Y-122486413D01*
X159555422Y-122513986D01*
X159497544Y-122549814D01*
X159478240Y-122588399D01*
X159442412Y-122618716D01*
X159442412Y-122649032D01*
X159439589Y-122679348D01*
X159428555Y-122723445D01*
X159417520Y-122756519D01*
X159409251Y-122830933D01*
X159392712Y-122894322D01*
X159376174Y-122957712D01*
X159373352Y-123029371D01*
X159345779Y-123010067D01*
X159334744Y-123001798D01*
X159323709Y-122993529D01*
X159161101Y-122773043D01*
X159166604Y-122745470D01*
X159108726Y-122690349D01*
X159067386Y-122649006D01*
X159031555Y-122607667D01*
X159001239Y-122585625D01*
X158750437Y-122414748D01*
X158711851Y-122409245D01*
X158700816Y-122445075D01*
X158656719Y-122500196D01*
X158582306Y-122547048D01*
X158557498Y-122563586D01*
X158543726Y-122604926D01*
X158546548Y-122629733D01*
X158535513Y-122657307D01*
X158590634Y-122753770D01*
X158651269Y-122808891D01*
X158698121Y-122850231D01*
X158728437Y-122894328D01*
X158747741Y-122916370D01*
X158822158Y-123004564D01*
X158830427Y-123037635D01*
X158863501Y-123037635D01*
X158877273Y-123048670D01*
X158904818Y-123095522D01*
X158932391Y-123131352D01*
X158946163Y-123145125D01*
X158954433Y-123167166D01*
X158962702Y-123189208D01*
X159006799Y-123244332D01*
X159026103Y-123282917D01*
X159048144Y-123327014D01*
X159078461Y-123368354D01*
X159092450Y-123409773D01*
G37*
X159092450Y-123409773D02*
X159125521Y-123451116D01*
X159153094Y-123497968D01*
X159183411Y-123555846D01*
X159224753Y-123605455D01*
X159252327Y-123671602D01*
X159296424Y-123723968D01*
X159425961Y-123963744D01*
X159442499Y-124013356D01*
X159467306Y-124057453D01*
X159478341Y-124076757D01*
X159486610Y-124090530D01*
X159492114Y-124118103D01*
X159522430Y-124156688D01*
X159552749Y-124187005D01*
X159572053Y-124209046D01*
X159613393Y-124225584D01*
X159858684Y-124010610D01*
X159855862Y-123983037D01*
X159847592Y-123955464D01*
X159836558Y-123922390D01*
X159811750Y-123845219D01*
X159764899Y-123776318D01*
X159740091Y-123715685D01*
X159673944Y-123586148D01*
X159613311Y-123481418D01*
X159577483Y-123420785D01*
X159643628Y-123340857D01*
X159707018Y-123208566D01*
X159745603Y-123095567D01*
X159753872Y-123034934D01*
X159764907Y-122982568D01*
X159778679Y-122921935D01*
X159784183Y-122858545D01*
X159800721Y-122819960D01*
X159795218Y-122792387D01*
X159792395Y-122742778D01*
X159806168Y-122676633D01*
X159819940Y-122615998D01*
X159822763Y-122549853D01*
X159806224Y-122489221D01*
X159753861Y-122436854D01*
X159707006Y-122434032D01*
X159660155Y-122461605D01*
X159613300Y-122486413D01*
X159555422Y-122513986D01*
X159497544Y-122549814D01*
X159478240Y-122588399D01*
X159442412Y-122618716D01*
X159442412Y-122649032D01*
X159439589Y-122679348D01*
X159428555Y-122723445D01*
X159417520Y-122756519D01*
X159409251Y-122830933D01*
X159392712Y-122894322D01*
X159376174Y-122957712D01*
X159373352Y-123029371D01*
X159345779Y-123010067D01*
X159334744Y-123001798D01*
X159323709Y-122993529D01*
X159161101Y-122773043D01*
X159166604Y-122745470D01*
X159108726Y-122690349D01*
X159067386Y-122649006D01*
X159031555Y-122607667D01*
X159001239Y-122585625D01*
X158750437Y-122414748D01*
X158711851Y-122409245D01*
X158700816Y-122445075D01*
X158656719Y-122500196D01*
X158582306Y-122547048D01*
X158557498Y-122563586D01*
X158543726Y-122604926D01*
X158546548Y-122629733D01*
X158535513Y-122657307D01*
X158590634Y-122753770D01*
X158651269Y-122808891D01*
X158698121Y-122850231D01*
X158728437Y-122894328D01*
X158747741Y-122916370D01*
X158822158Y-123004564D01*
X158830427Y-123037635D01*
X158863501Y-123037635D01*
X158877273Y-123048670D01*
X158904818Y-123095522D01*
X158932391Y-123131352D01*
X158946163Y-123145125D01*
X158954433Y-123167166D01*
X158962702Y-123189208D01*
X159006799Y-123244332D01*
X159026103Y-123282917D01*
X159048144Y-123327014D01*
X159078461Y-123368354D01*
X159092450Y-123409773D01*
G36*
X158279408Y-123630259D02*
G01*
X158315236Y-123660578D01*
X158337277Y-123707430D01*
X158356581Y-123754285D01*
X158384155Y-123773589D01*
X158400693Y-123812174D01*
X158422734Y-123848002D01*
X158439273Y-123886588D01*
X158433769Y-123933439D01*
X158461342Y-123980294D01*
X158475115Y-124038172D01*
X158497156Y-124085024D01*
X158557792Y-124101562D01*
X158560614Y-124115334D01*
X158552345Y-124134638D01*
X158599199Y-124137461D01*
X158635028Y-124151233D01*
X158723222Y-124093355D01*
X158783857Y-124002403D01*
X158830709Y-123897673D01*
X158869295Y-123806722D01*
X158866472Y-123748846D01*
X158885776Y-123699234D01*
X158590877Y-123087388D01*
X158287708Y-122445222D01*
X158163685Y-122503098D01*
X158050686Y-122574757D01*
X157962492Y-122671220D01*
X157915637Y-122789731D01*
X157929410Y-122803503D01*
X157940445Y-122806326D01*
X157929410Y-122825630D01*
X157929410Y-122836664D01*
X157929410Y-122853203D01*
X157921141Y-122878010D01*
X157937679Y-122880832D01*
X157954217Y-122880832D01*
X157948714Y-122930444D01*
X157959749Y-122966272D01*
X157973521Y-122999346D01*
X157970699Y-123043443D01*
X157984471Y-123048946D01*
X157989975Y-123057215D01*
X157998244Y-123065485D01*
X158009279Y-123065485D01*
X158003775Y-123186753D01*
X158009279Y-123310775D01*
X158006457Y-123440312D01*
X157987153Y-123578116D01*
X157830056Y-123429286D01*
X157733593Y-123225338D01*
X157675718Y-122982802D01*
X157634375Y-122718219D01*
X157595789Y-122657586D01*
X157570982Y-122583172D01*
X157548940Y-122503244D01*
X157521367Y-122428831D01*
X157452466Y-122456404D01*
X157397345Y-122500501D01*
X157344978Y-122544598D01*
X157276077Y-122569406D01*
X157215444Y-122660355D01*
X157179613Y-122754064D01*
X157201655Y-122803673D01*
X157215427Y-122858794D01*
X157237469Y-122911160D01*
X157276054Y-122949742D01*
X157298096Y-123082034D01*
X157322903Y-123197790D01*
X157342207Y-123319058D01*
X157347710Y-123454105D01*
X157394562Y-123589154D01*
X157433148Y-123718688D01*
X157502049Y-123804128D01*
X157554416Y-123903346D01*
X157568188Y-123908849D01*
X157587492Y-123900580D01*
X157587492Y-123917118D01*
X157595761Y-123928153D01*
X157601264Y-123939188D01*
X157595761Y-123961230D01*
X157664663Y-124008081D01*
X157730810Y-124063205D01*
X157813493Y-124096276D01*
X157937515Y-124077000D01*
X158138709Y-123886830D01*
X158279269Y-123630513D01*
X158279408Y-123630259D01*
G37*
X158279408Y-123630259D02*
X158315236Y-123660578D01*
X158337277Y-123707430D01*
X158356581Y-123754285D01*
X158384155Y-123773589D01*
X158400693Y-123812174D01*
X158422734Y-123848002D01*
X158439273Y-123886588D01*
X158433769Y-123933439D01*
X158461342Y-123980294D01*
X158475115Y-124038172D01*
X158497156Y-124085024D01*
X158557792Y-124101562D01*
X158560614Y-124115334D01*
X158552345Y-124134638D01*
X158599199Y-124137461D01*
X158635028Y-124151233D01*
X158723222Y-124093355D01*
X158783857Y-124002403D01*
X158830709Y-123897673D01*
X158869295Y-123806722D01*
X158866472Y-123748846D01*
X158885776Y-123699234D01*
X158590877Y-123087388D01*
X158287708Y-122445222D01*
X158163685Y-122503098D01*
X158050686Y-122574757D01*
X157962492Y-122671220D01*
X157915637Y-122789731D01*
X157929410Y-122803503D01*
X157940445Y-122806326D01*
X157929410Y-122825630D01*
X157929410Y-122836664D01*
X157929410Y-122853203D01*
X157921141Y-122878010D01*
X157937679Y-122880832D01*
X157954217Y-122880832D01*
X157948714Y-122930444D01*
X157959749Y-122966272D01*
X157973521Y-122999346D01*
X157970699Y-123043443D01*
X157984471Y-123048946D01*
X157989975Y-123057215D01*
X157998244Y-123065485D01*
X158009279Y-123065485D01*
X158003775Y-123186753D01*
X158009279Y-123310775D01*
X158006457Y-123440312D01*
X157987153Y-123578116D01*
X157830056Y-123429286D01*
X157733593Y-123225338D01*
X157675718Y-122982802D01*
X157634375Y-122718219D01*
X157595789Y-122657586D01*
X157570982Y-122583172D01*
X157548940Y-122503244D01*
X157521367Y-122428831D01*
X157452466Y-122456404D01*
X157397345Y-122500501D01*
X157344978Y-122544598D01*
X157276077Y-122569406D01*
X157215444Y-122660355D01*
X157179613Y-122754064D01*
X157201655Y-122803673D01*
X157215427Y-122858794D01*
X157237469Y-122911160D01*
X157276054Y-122949742D01*
X157298096Y-123082034D01*
X157322903Y-123197790D01*
X157342207Y-123319058D01*
X157347710Y-123454105D01*
X157394562Y-123589154D01*
X157433148Y-123718688D01*
X157502049Y-123804128D01*
X157554416Y-123903346D01*
X157568188Y-123908849D01*
X157587492Y-123900580D01*
X157587492Y-123917118D01*
X157595761Y-123928153D01*
X157601264Y-123939188D01*
X157595761Y-123961230D01*
X157664663Y-124008081D01*
X157730810Y-124063205D01*
X157813493Y-124096276D01*
X157937515Y-124077000D01*
X158138709Y-123886830D01*
X158279269Y-123630513D01*
X158279408Y-123630259D01*
G36*
X155793425Y-123900357D02*
G01*
X156584457Y-123412480D01*
X156435630Y-123401445D01*
X156284046Y-123376637D01*
X156325386Y-123205760D01*
X156372240Y-123026614D01*
X156388779Y-123054187D01*
X156496266Y-123183724D01*
X156581703Y-123318771D01*
X156614776Y-123368380D01*
X156645093Y-123417989D01*
X156614776Y-123415166D01*
X156584460Y-123412344D01*
X156584457Y-123412480D01*
X155793425Y-123900357D01*
X155843034Y-123996818D01*
X155917451Y-124082258D01*
X156011157Y-124142891D01*
X156121398Y-124170464D01*
X156171007Y-124151160D01*
X156195815Y-124134621D01*
X156212353Y-124126352D01*
X156223388Y-124118083D01*
X156256461Y-124104311D01*
X156245427Y-124068483D01*
X156248249Y-124035409D01*
X156281322Y-123999581D01*
X156297861Y-123983043D01*
X156311633Y-123966504D01*
X156358488Y-123914138D01*
X156284071Y-123894834D01*
X156193122Y-123845225D01*
X156173818Y-123743250D01*
X156267525Y-123740428D01*
X156341938Y-123759732D01*
X156443913Y-123784539D01*
X156554158Y-123792808D01*
X156595498Y-123792808D01*
X156636838Y-123787305D01*
X156664411Y-123781801D01*
X156675446Y-123748731D01*
X156686481Y-123737696D01*
X156716797Y-123701868D01*
X156722300Y-123641235D01*
X156738839Y-123591626D01*
X156763646Y-123660528D01*
X156774681Y-123688101D01*
X156802254Y-123693604D01*
X156810523Y-123707376D01*
X156813345Y-123721149D01*
X156827118Y-123768003D01*
X156838153Y-123779038D01*
X156849187Y-123787307D01*
X156862960Y-123836919D01*
X156879498Y-123883771D01*
X156904305Y-123955430D01*
X156909809Y-124021574D01*
X156920844Y-124051891D01*
X156951163Y-124079464D01*
X156984234Y-124096002D01*
X157000772Y-124107037D01*
X157014544Y-124112540D01*
X157022813Y-124142857D01*
X157055887Y-124148360D01*
X157099984Y-124156629D01*
X157127557Y-124159451D01*
X157155130Y-124156629D01*
X157201985Y-124118044D01*
X157240570Y-124087727D01*
X157268115Y-124038118D01*
X157273619Y-124007799D01*
X157279122Y-123980226D01*
X157287391Y-123963688D01*
X157323222Y-123930617D01*
X157292903Y-123905810D01*
X157290081Y-123858955D01*
X157174324Y-123588860D01*
X157044790Y-123324277D01*
X157003447Y-123236082D01*
X156959350Y-123147888D01*
X156962172Y-123128584D01*
X156956669Y-123103777D01*
X156907060Y-123021094D01*
X156868474Y-122943923D01*
X156824377Y-122852974D01*
X156763742Y-122762022D01*
X156719645Y-122742718D01*
X156700341Y-122737215D01*
X156675533Y-122731712D01*
X156634193Y-122737215D01*
X156499144Y-122637997D01*
X156380634Y-122480901D01*
X156353089Y-122442315D01*
X156317258Y-122464357D01*
X156278672Y-122480895D01*
X156226309Y-122494668D01*
X156132603Y-122519475D01*
X156060944Y-122560815D01*
X156041640Y-122626962D01*
X156033370Y-122671059D01*
X156019598Y-122764766D01*
X156008563Y-122869495D01*
X155986522Y-122963202D01*
X155967218Y-123054153D01*
X155939644Y-123183688D01*
X155903816Y-123299444D01*
X155876243Y-123302266D01*
X155848670Y-123293997D01*
X155812839Y-123288494D01*
X155782523Y-123285672D01*
X155771488Y-123313245D01*
X155743915Y-123340818D01*
X155691551Y-123357356D01*
X155661232Y-123382163D01*
X155639191Y-123398702D01*
X155597848Y-123415240D01*
X155619890Y-123456580D01*
X155699815Y-123553043D01*
X155812814Y-123627457D01*
X155809992Y-123660530D01*
X155801722Y-123690847D01*
X155787950Y-123787307D01*
X155787950Y-123889283D01*
X155793425Y-123900357D01*
G37*
X155793425Y-123900357D02*
X156584457Y-123412480D01*
X156435630Y-123401445D01*
X156284046Y-123376637D01*
X156325386Y-123205760D01*
X156372240Y-123026614D01*
X156388779Y-123054187D01*
X156496266Y-123183724D01*
X156581703Y-123318771D01*
X156614776Y-123368380D01*
X156645093Y-123417989D01*
X156614776Y-123415166D01*
X156584460Y-123412344D01*
X156584457Y-123412480D01*
X155793425Y-123900357D01*
X155843034Y-123996818D01*
X155917451Y-124082258D01*
X156011157Y-124142891D01*
X156121398Y-124170464D01*
X156171007Y-124151160D01*
X156195815Y-124134621D01*
X156212353Y-124126352D01*
X156223388Y-124118083D01*
X156256461Y-124104311D01*
X156245427Y-124068483D01*
X156248249Y-124035409D01*
X156281322Y-123999581D01*
X156297861Y-123983043D01*
X156311633Y-123966504D01*
X156358488Y-123914138D01*
X156284071Y-123894834D01*
X156193122Y-123845225D01*
X156173818Y-123743250D01*
X156267525Y-123740428D01*
X156341938Y-123759732D01*
X156443913Y-123784539D01*
X156554158Y-123792808D01*
X156595498Y-123792808D01*
X156636838Y-123787305D01*
X156664411Y-123781801D01*
X156675446Y-123748731D01*
X156686481Y-123737696D01*
X156716797Y-123701868D01*
X156722300Y-123641235D01*
X156738839Y-123591626D01*
X156763646Y-123660528D01*
X156774681Y-123688101D01*
X156802254Y-123693604D01*
X156810523Y-123707376D01*
X156813345Y-123721149D01*
X156827118Y-123768003D01*
X156838153Y-123779038D01*
X156849187Y-123787307D01*
X156862960Y-123836919D01*
X156879498Y-123883771D01*
X156904305Y-123955430D01*
X156909809Y-124021574D01*
X156920844Y-124051891D01*
X156951163Y-124079464D01*
X156984234Y-124096002D01*
X157000772Y-124107037D01*
X157014544Y-124112540D01*
X157022813Y-124142857D01*
X157055887Y-124148360D01*
X157099984Y-124156629D01*
X157127557Y-124159451D01*
X157155130Y-124156629D01*
X157201985Y-124118044D01*
X157240570Y-124087727D01*
X157268115Y-124038118D01*
X157273619Y-124007799D01*
X157279122Y-123980226D01*
X157287391Y-123963688D01*
X157323222Y-123930617D01*
X157292903Y-123905810D01*
X157290081Y-123858955D01*
X157174324Y-123588860D01*
X157044790Y-123324277D01*
X157003447Y-123236082D01*
X156959350Y-123147888D01*
X156962172Y-123128584D01*
X156956669Y-123103777D01*
X156907060Y-123021094D01*
X156868474Y-122943923D01*
X156824377Y-122852974D01*
X156763742Y-122762022D01*
X156719645Y-122742718D01*
X156700341Y-122737215D01*
X156675533Y-122731712D01*
X156634193Y-122737215D01*
X156499144Y-122637997D01*
X156380634Y-122480901D01*
X156353089Y-122442315D01*
X156317258Y-122464357D01*
X156278672Y-122480895D01*
X156226309Y-122494668D01*
X156132603Y-122519475D01*
X156060944Y-122560815D01*
X156041640Y-122626962D01*
X156033370Y-122671059D01*
X156019598Y-122764766D01*
X156008563Y-122869495D01*
X155986522Y-122963202D01*
X155967218Y-123054153D01*
X155939644Y-123183688D01*
X155903816Y-123299444D01*
X155876243Y-123302266D01*
X155848670Y-123293997D01*
X155812839Y-123288494D01*
X155782523Y-123285672D01*
X155771488Y-123313245D01*
X155743915Y-123340818D01*
X155691551Y-123357356D01*
X155661232Y-123382163D01*
X155639191Y-123398702D01*
X155597848Y-123415240D01*
X155619890Y-123456580D01*
X155699815Y-123553043D01*
X155812814Y-123627457D01*
X155809992Y-123660530D01*
X155801722Y-123690847D01*
X155787950Y-123787307D01*
X155787950Y-123889283D01*
X155793425Y-123900357D01*
G36*
X153654711Y-123635774D02*
G01*
X153828343Y-123820429D01*
X154065367Y-123927916D01*
X154338217Y-124002330D01*
X154611069Y-124087770D01*
X154679971Y-124090592D01*
X154735092Y-124098861D01*
X154784701Y-124107130D01*
X154839824Y-124112633D01*
X154853597Y-124118137D01*
X154861866Y-124129172D01*
X154947306Y-124137441D01*
X155007939Y-124137441D01*
X155076840Y-124145710D01*
X155137473Y-124153979D01*
X155462692Y-124007906D01*
X155592226Y-123627570D01*
X155597729Y-123611031D01*
X155608764Y-123602762D01*
X155603261Y-123555908D01*
X155600439Y-123506299D01*
X155437831Y-123225180D01*
X155220099Y-122993668D01*
X155187028Y-122960597D01*
X155162221Y-122927523D01*
X155131902Y-122899950D01*
X155090562Y-122880646D01*
X154952759Y-122759381D01*
X154784636Y-122654648D01*
X154611004Y-122552673D01*
X154451151Y-122436919D01*
X154407054Y-122445188D01*
X154376737Y-122445188D01*
X154324374Y-122503064D01*
X154255469Y-122538895D01*
X154189325Y-122580235D01*
X154142470Y-122646382D01*
X154159009Y-122660154D01*
X154150739Y-122684962D01*
X154147917Y-122709769D01*
X154167221Y-122720804D01*
X154150683Y-122737342D01*
X154134145Y-122751114D01*
X154142414Y-122773156D01*
X154142414Y-122800729D01*
X154266439Y-122869631D01*
X154406997Y-122941290D01*
X154558582Y-123021215D01*
X154710166Y-123117679D01*
X154861750Y-123241701D01*
X155010580Y-123382262D01*
X155145626Y-123536601D01*
X155253114Y-123690943D01*
X155242079Y-123712984D01*
X155228306Y-123732288D01*
X155065698Y-123732288D01*
X154911357Y-123740557D01*
X154900322Y-123724019D01*
X154886549Y-123707481D01*
X154594407Y-123657872D01*
X154318797Y-123583458D01*
X154360140Y-123569686D01*
X154393213Y-123555913D01*
X154393213Y-123533872D01*
X154365640Y-123511830D01*
X154429030Y-123456710D01*
X154456603Y-123368515D01*
X154440065Y-123335441D01*
X154456603Y-123305125D01*
X154470376Y-123305125D01*
X154475879Y-123313394D01*
X154478701Y-123324429D01*
X154492474Y-123321607D01*
X154481439Y-123280267D01*
X154464901Y-123241682D01*
X154274731Y-123114902D01*
X154200317Y-123164511D01*
X154109368Y-123216877D01*
X154010148Y-123269243D01*
X153913687Y-123318852D01*
X153844785Y-123362950D01*
X153786907Y-123420828D01*
X153731786Y-123475949D01*
X153662884Y-123522800D01*
X153660062Y-123580678D01*
X153654559Y-123635802D01*
X153654711Y-123635774D01*
G37*
X153654711Y-123635774D02*
X153828343Y-123820429D01*
X154065367Y-123927916D01*
X154338217Y-124002330D01*
X154611069Y-124087770D01*
X154679971Y-124090592D01*
X154735092Y-124098861D01*
X154784701Y-124107130D01*
X154839824Y-124112633D01*
X154853597Y-124118137D01*
X154861866Y-124129172D01*
X154947306Y-124137441D01*
X155007939Y-124137441D01*
X155076840Y-124145710D01*
X155137473Y-124153979D01*
X155462692Y-124007906D01*
X155592226Y-123627570D01*
X155597729Y-123611031D01*
X155608764Y-123602762D01*
X155603261Y-123555908D01*
X155600439Y-123506299D01*
X155437831Y-123225180D01*
X155220099Y-122993668D01*
X155187028Y-122960597D01*
X155162221Y-122927523D01*
X155131902Y-122899950D01*
X155090562Y-122880646D01*
X154952759Y-122759381D01*
X154784636Y-122654648D01*
X154611004Y-122552673D01*
X154451151Y-122436919D01*
X154407054Y-122445188D01*
X154376737Y-122445188D01*
X154324374Y-122503064D01*
X154255469Y-122538895D01*
X154189325Y-122580235D01*
X154142470Y-122646382D01*
X154159009Y-122660154D01*
X154150739Y-122684962D01*
X154147917Y-122709769D01*
X154167221Y-122720804D01*
X154150683Y-122737342D01*
X154134145Y-122751114D01*
X154142414Y-122773156D01*
X154142414Y-122800729D01*
X154266439Y-122869631D01*
X154406997Y-122941290D01*
X154558582Y-123021215D01*
X154710166Y-123117679D01*
X154861750Y-123241701D01*
X155010580Y-123382262D01*
X155145626Y-123536601D01*
X155253114Y-123690943D01*
X155242079Y-123712984D01*
X155228306Y-123732288D01*
X155065698Y-123732288D01*
X154911357Y-123740557D01*
X154900322Y-123724019D01*
X154886549Y-123707481D01*
X154594407Y-123657872D01*
X154318797Y-123583458D01*
X154360140Y-123569686D01*
X154393213Y-123555913D01*
X154393213Y-123533872D01*
X154365640Y-123511830D01*
X154429030Y-123456710D01*
X154456603Y-123368515D01*
X154440065Y-123335441D01*
X154456603Y-123305125D01*
X154470376Y-123305125D01*
X154475879Y-123313394D01*
X154478701Y-123324429D01*
X154492474Y-123321607D01*
X154481439Y-123280267D01*
X154464901Y-123241682D01*
X154274731Y-123114902D01*
X154200317Y-123164511D01*
X154109368Y-123216877D01*
X154010148Y-123269243D01*
X153913687Y-123318852D01*
X153844785Y-123362950D01*
X153786907Y-123420828D01*
X153731786Y-123475949D01*
X153662884Y-123522800D01*
X153660062Y-123580678D01*
X153654559Y-123635802D01*
X153654711Y-123635774D01*
G36*
X152309745Y-123900357D02*
G01*
X153100777Y-123412480D01*
X152951950Y-123401445D01*
X152800365Y-123376637D01*
X152841705Y-123205760D01*
X152888560Y-123026614D01*
X152905098Y-123054187D01*
X153012585Y-123183724D01*
X153098022Y-123318771D01*
X153131096Y-123368380D01*
X153161412Y-123417989D01*
X153131096Y-123415166D01*
X153100780Y-123412344D01*
X153100777Y-123412480D01*
X152309745Y-123900357D01*
X152359354Y-123996818D01*
X152433770Y-124082258D01*
X152527476Y-124142891D01*
X152637718Y-124170464D01*
X152687327Y-124151160D01*
X152712134Y-124134621D01*
X152728672Y-124126352D01*
X152739707Y-124118083D01*
X152772781Y-124104311D01*
X152761746Y-124068483D01*
X152764568Y-124035409D01*
X152797642Y-123999581D01*
X152814180Y-123983043D01*
X152827953Y-123966504D01*
X152874807Y-123914138D01*
X152800391Y-123894834D01*
X152709442Y-123845225D01*
X152690138Y-123743250D01*
X152783844Y-123740428D01*
X152858258Y-123759732D01*
X152960233Y-123784539D01*
X153070477Y-123792808D01*
X153111817Y-123792808D01*
X153153157Y-123787305D01*
X153180730Y-123781801D01*
X153191765Y-123748731D01*
X153202800Y-123737696D01*
X153233116Y-123701868D01*
X153238620Y-123641235D01*
X153255158Y-123591626D01*
X153279965Y-123660528D01*
X153291000Y-123688101D01*
X153318573Y-123693604D01*
X153326842Y-123707376D01*
X153329665Y-123721149D01*
X153343437Y-123768003D01*
X153354472Y-123779038D01*
X153365507Y-123787307D01*
X153379279Y-123836919D01*
X153395818Y-123883771D01*
X153420625Y-123955430D01*
X153426128Y-124021574D01*
X153437163Y-124051891D01*
X153467482Y-124079464D01*
X153500553Y-124096002D01*
X153517091Y-124107037D01*
X153530864Y-124112540D01*
X153539133Y-124142857D01*
X153572206Y-124148360D01*
X153616304Y-124156629D01*
X153643877Y-124159451D01*
X153671450Y-124156629D01*
X153718304Y-124118044D01*
X153756890Y-124087727D01*
X153784435Y-124038118D01*
X153789938Y-124007799D01*
X153795441Y-123980226D01*
X153803711Y-123963688D01*
X153839541Y-123930617D01*
X153809222Y-123905810D01*
X153806400Y-123858955D01*
X153690644Y-123588860D01*
X153561109Y-123324277D01*
X153519767Y-123236082D01*
X153475670Y-123147888D01*
X153478492Y-123128584D01*
X153472988Y-123103777D01*
X153423379Y-123021094D01*
X153384794Y-122943923D01*
X153340697Y-122852974D01*
X153280061Y-122762022D01*
X153235964Y-122742718D01*
X153216660Y-122737215D01*
X153191853Y-122731712D01*
X153150513Y-122737215D01*
X153015464Y-122637997D01*
X152896953Y-122480901D01*
X152869408Y-122442315D01*
X152833577Y-122464357D01*
X152794992Y-122480895D01*
X152742628Y-122494668D01*
X152648922Y-122519475D01*
X152577263Y-122560815D01*
X152557959Y-122626962D01*
X152549690Y-122671059D01*
X152535918Y-122764766D01*
X152524883Y-122869495D01*
X152502841Y-122963202D01*
X152483537Y-123054153D01*
X152455964Y-123183688D01*
X152420136Y-123299444D01*
X152392563Y-123302266D01*
X152364990Y-123293997D01*
X152329159Y-123288494D01*
X152298842Y-123285672D01*
X152287808Y-123313245D01*
X152260234Y-123340818D01*
X152207871Y-123357356D01*
X152177552Y-123382163D01*
X152155510Y-123398702D01*
X152114167Y-123415240D01*
X152136209Y-123456580D01*
X152216134Y-123553043D01*
X152329133Y-123627457D01*
X152326311Y-123660530D01*
X152318042Y-123690847D01*
X152304270Y-123787307D01*
X152304270Y-123889283D01*
X152309745Y-123900357D01*
G37*
X152309745Y-123900357D02*
X153100777Y-123412480D01*
X152951950Y-123401445D01*
X152800365Y-123376637D01*
X152841705Y-123205760D01*
X152888560Y-123026614D01*
X152905098Y-123054187D01*
X153012585Y-123183724D01*
X153098022Y-123318771D01*
X153131096Y-123368380D01*
X153161412Y-123417989D01*
X153131096Y-123415166D01*
X153100780Y-123412344D01*
X153100777Y-123412480D01*
X152309745Y-123900357D01*
X152359354Y-123996818D01*
X152433770Y-124082258D01*
X152527476Y-124142891D01*
X152637718Y-124170464D01*
X152687327Y-124151160D01*
X152712134Y-124134621D01*
X152728672Y-124126352D01*
X152739707Y-124118083D01*
X152772781Y-124104311D01*
X152761746Y-124068483D01*
X152764568Y-124035409D01*
X152797642Y-123999581D01*
X152814180Y-123983043D01*
X152827953Y-123966504D01*
X152874807Y-123914138D01*
X152800391Y-123894834D01*
X152709442Y-123845225D01*
X152690138Y-123743250D01*
X152783844Y-123740428D01*
X152858258Y-123759732D01*
X152960233Y-123784539D01*
X153070477Y-123792808D01*
X153111817Y-123792808D01*
X153153157Y-123787305D01*
X153180730Y-123781801D01*
X153191765Y-123748731D01*
X153202800Y-123737696D01*
X153233116Y-123701868D01*
X153238620Y-123641235D01*
X153255158Y-123591626D01*
X153279965Y-123660528D01*
X153291000Y-123688101D01*
X153318573Y-123693604D01*
X153326842Y-123707376D01*
X153329665Y-123721149D01*
X153343437Y-123768003D01*
X153354472Y-123779038D01*
X153365507Y-123787307D01*
X153379279Y-123836919D01*
X153395818Y-123883771D01*
X153420625Y-123955430D01*
X153426128Y-124021574D01*
X153437163Y-124051891D01*
X153467482Y-124079464D01*
X153500553Y-124096002D01*
X153517091Y-124107037D01*
X153530864Y-124112540D01*
X153539133Y-124142857D01*
X153572206Y-124148360D01*
X153616304Y-124156629D01*
X153643877Y-124159451D01*
X153671450Y-124156629D01*
X153718304Y-124118044D01*
X153756890Y-124087727D01*
X153784435Y-124038118D01*
X153789938Y-124007799D01*
X153795441Y-123980226D01*
X153803711Y-123963688D01*
X153839541Y-123930617D01*
X153809222Y-123905810D01*
X153806400Y-123858955D01*
X153690644Y-123588860D01*
X153561109Y-123324277D01*
X153519767Y-123236082D01*
X153475670Y-123147888D01*
X153478492Y-123128584D01*
X153472988Y-123103777D01*
X153423379Y-123021094D01*
X153384794Y-122943923D01*
X153340697Y-122852974D01*
X153280061Y-122762022D01*
X153235964Y-122742718D01*
X153216660Y-122737215D01*
X153191853Y-122731712D01*
X153150513Y-122737215D01*
X153015464Y-122637997D01*
X152896953Y-122480901D01*
X152869408Y-122442315D01*
X152833577Y-122464357D01*
X152794992Y-122480895D01*
X152742628Y-122494668D01*
X152648922Y-122519475D01*
X152577263Y-122560815D01*
X152557959Y-122626962D01*
X152549690Y-122671059D01*
X152535918Y-122764766D01*
X152524883Y-122869495D01*
X152502841Y-122963202D01*
X152483537Y-123054153D01*
X152455964Y-123183688D01*
X152420136Y-123299444D01*
X152392563Y-123302266D01*
X152364990Y-123293997D01*
X152329159Y-123288494D01*
X152298842Y-123285672D01*
X152287808Y-123313245D01*
X152260234Y-123340818D01*
X152207871Y-123357356D01*
X152177552Y-123382163D01*
X152155510Y-123398702D01*
X152114167Y-123415240D01*
X152136209Y-123456580D01*
X152216134Y-123553043D01*
X152329133Y-123627457D01*
X152326311Y-123660530D01*
X152318042Y-123690847D01*
X152304270Y-123787307D01*
X152304270Y-123889283D01*
X152309745Y-123900357D01*
D12*
G36*
X145766200Y-117046200D02*
G01*
X143913800Y-117046200D01*
X143913800Y-116571999D01*
X143912824Y-116562089D01*
X143909933Y-116552559D01*
X143905239Y-116543777D01*
X143898921Y-116536079D01*
X143891223Y-116529761D01*
X143882441Y-116525067D01*
X143872911Y-116522176D01*
X143863001Y-116521200D01*
X143184317Y-116521200D01*
X143134465Y-116516290D01*
X143088915Y-116502473D01*
X143046945Y-116480039D01*
X143010154Y-116449846D01*
X142979961Y-116413055D01*
X142957527Y-116371085D01*
X142943710Y-116325535D01*
X142938800Y-116275683D01*
X142938800Y-114864317D01*
X142943710Y-114814465D01*
X142957527Y-114768915D01*
X142979961Y-114726945D01*
X143010154Y-114690154D01*
X143046945Y-114659961D01*
X143088915Y-114637527D01*
X143134465Y-114623710D01*
X143184317Y-114618800D01*
X143863001Y-114618800D01*
X143872911Y-114617824D01*
X143882441Y-114614933D01*
X143891223Y-114610239D01*
X143898921Y-114603921D01*
X143905239Y-114596223D01*
X143909933Y-114587441D01*
X143912824Y-114577911D01*
X143913800Y-114568001D01*
X143913800Y-114093800D01*
X145766200Y-114093800D01*
X145766200Y-117046200D01*
G37*
G36*
X140566200Y-114568001D02*
G01*
X140567176Y-114577911D01*
X140570067Y-114587441D01*
X140574761Y-114596223D01*
X140581079Y-114603921D01*
X140588777Y-114610239D01*
X140597559Y-114614933D01*
X140607089Y-114617824D01*
X140616999Y-114618800D01*
X141295683Y-114618800D01*
X141345535Y-114623710D01*
X141391085Y-114637527D01*
X141433055Y-114659961D01*
X141469846Y-114690154D01*
X141500039Y-114726945D01*
X141522473Y-114768915D01*
X141536290Y-114814465D01*
X141541200Y-114864317D01*
X141541200Y-116275683D01*
X141536290Y-116325535D01*
X141522473Y-116371085D01*
X141500039Y-116413055D01*
X141469846Y-116449846D01*
X141433055Y-116480039D01*
X141391085Y-116502473D01*
X141345535Y-116516290D01*
X141295683Y-116521200D01*
X140616999Y-116521200D01*
X140607089Y-116522176D01*
X140597559Y-116525067D01*
X140588777Y-116529761D01*
X140581079Y-116536079D01*
X140574761Y-116543777D01*
X140570067Y-116552559D01*
X140567176Y-116562089D01*
X140566200Y-116571999D01*
X140566200Y-117046200D01*
X138713800Y-117046200D01*
X138713800Y-114093800D01*
X140566200Y-114093800D01*
X140566200Y-114568001D01*
G37*
G36*
X125751000Y-116258800D02*
G01*
X123898600Y-116258800D01*
X123898600Y-115784599D01*
X123897624Y-115774689D01*
X123894733Y-115765159D01*
X123890039Y-115756377D01*
X123883721Y-115748679D01*
X123876023Y-115742361D01*
X123867241Y-115737667D01*
X123857711Y-115734776D01*
X123847801Y-115733800D01*
X123169117Y-115733800D01*
X123119265Y-115728890D01*
X123073715Y-115715073D01*
X123031745Y-115692639D01*
X122994954Y-115662446D01*
X122964761Y-115625655D01*
X122942327Y-115583685D01*
X122928510Y-115538135D01*
X122923600Y-115488283D01*
X122923600Y-114076917D01*
X122928510Y-114027065D01*
X122942327Y-113981515D01*
X122964761Y-113939545D01*
X122994954Y-113902754D01*
X123031745Y-113872561D01*
X123073715Y-113850127D01*
X123119265Y-113836310D01*
X123169117Y-113831400D01*
X123847801Y-113831400D01*
X123857711Y-113830424D01*
X123867241Y-113827533D01*
X123876023Y-113822839D01*
X123883721Y-113816521D01*
X123890039Y-113808823D01*
X123894733Y-113800041D01*
X123897624Y-113790511D01*
X123898600Y-113780601D01*
X123898600Y-113306400D01*
X125751000Y-113306400D01*
X125751000Y-116258800D01*
G37*
G36*
X120551000Y-113780601D02*
G01*
X120551976Y-113790511D01*
X120554867Y-113800041D01*
X120559561Y-113808823D01*
X120565879Y-113816521D01*
X120573577Y-113822839D01*
X120582359Y-113827533D01*
X120591889Y-113830424D01*
X120601799Y-113831400D01*
X121280483Y-113831400D01*
X121330335Y-113836310D01*
X121375885Y-113850127D01*
X121417855Y-113872561D01*
X121454646Y-113902754D01*
X121484839Y-113939545D01*
X121507273Y-113981515D01*
X121521090Y-114027065D01*
X121526000Y-114076917D01*
X121526000Y-115488283D01*
X121521090Y-115538135D01*
X121507273Y-115583685D01*
X121484839Y-115625655D01*
X121454646Y-115662446D01*
X121417855Y-115692639D01*
X121375885Y-115715073D01*
X121330335Y-115728890D01*
X121280483Y-115733800D01*
X120601799Y-115733800D01*
X120591889Y-115734776D01*
X120582359Y-115737667D01*
X120573577Y-115742361D01*
X120565879Y-115748679D01*
X120559561Y-115756377D01*
X120554867Y-115765159D01*
X120551976Y-115774689D01*
X120551000Y-115784599D01*
X120551000Y-116258800D01*
X118698600Y-116258800D01*
X118698600Y-113306400D01*
X120551000Y-113306400D01*
X120551000Y-113780601D01*
G37*
G36*
X124834942Y-109543724D02*
G01*
X124880629Y-109557583D01*
X124922727Y-109580085D01*
X124959630Y-109610370D01*
X124989915Y-109647273D01*
X125012417Y-109689371D01*
X125026276Y-109735058D01*
X125031200Y-109785054D01*
X125031200Y-111194946D01*
X125026276Y-111244942D01*
X125012417Y-111290629D01*
X124989915Y-111332727D01*
X124959630Y-111369630D01*
X124922727Y-111399915D01*
X124880629Y-111422417D01*
X124834942Y-111436276D01*
X124784946Y-111441200D01*
X123700054Y-111441200D01*
X123650058Y-111436276D01*
X123604371Y-111422417D01*
X123562273Y-111399915D01*
X123525370Y-111369630D01*
X123495085Y-111332727D01*
X123472583Y-111290629D01*
X123458724Y-111244942D01*
X123453800Y-111194946D01*
X123453800Y-109785054D01*
X123458724Y-109735058D01*
X123472583Y-109689371D01*
X123495085Y-109647273D01*
X123525370Y-109610370D01*
X123562273Y-109580085D01*
X123604371Y-109557583D01*
X123650058Y-109543724D01*
X123700054Y-109538800D01*
X124784946Y-109538800D01*
X124834942Y-109543724D01*
G37*
G36*
X127809942Y-109543724D02*
G01*
X127855629Y-109557583D01*
X127897727Y-109580085D01*
X127934630Y-109610370D01*
X127964915Y-109647273D01*
X127987417Y-109689371D01*
X128001276Y-109735058D01*
X128006200Y-109785054D01*
X128006200Y-111194946D01*
X128001276Y-111244942D01*
X127987417Y-111290629D01*
X127964915Y-111332727D01*
X127934630Y-111369630D01*
X127897727Y-111399915D01*
X127855629Y-111422417D01*
X127809942Y-111436276D01*
X127759946Y-111441200D01*
X126675054Y-111441200D01*
X126625058Y-111436276D01*
X126579371Y-111422417D01*
X126537273Y-111399915D01*
X126500370Y-111369630D01*
X126470085Y-111332727D01*
X126447583Y-111290629D01*
X126433724Y-111244942D01*
X126428800Y-111194946D01*
X126428800Y-109785054D01*
X126433724Y-109735058D01*
X126447583Y-109689371D01*
X126470085Y-109647273D01*
X126500370Y-109610370D01*
X126537273Y-109580085D01*
X126579371Y-109557583D01*
X126625058Y-109543724D01*
X126675054Y-109538800D01*
X127759946Y-109538800D01*
X127809942Y-109543724D01*
G37*
G36*
X143249942Y-108273724D02*
G01*
X143295629Y-108287583D01*
X143337727Y-108310085D01*
X143374630Y-108340370D01*
X143404915Y-108377273D01*
X143427417Y-108419371D01*
X143441276Y-108465058D01*
X143446200Y-108515054D01*
X143446200Y-109924946D01*
X143441276Y-109974942D01*
X143427417Y-110020629D01*
X143404915Y-110062727D01*
X143374630Y-110099630D01*
X143337727Y-110129915D01*
X143295629Y-110152417D01*
X143249942Y-110166276D01*
X143199946Y-110171200D01*
X142115054Y-110171200D01*
X142065058Y-110166276D01*
X142019371Y-110152417D01*
X141977273Y-110129915D01*
X141940370Y-110099630D01*
X141910085Y-110062727D01*
X141887583Y-110020629D01*
X141873724Y-109974942D01*
X141868800Y-109924946D01*
X141868800Y-108515054D01*
X141873724Y-108465058D01*
X141887583Y-108419371D01*
X141910085Y-108377273D01*
X141940370Y-108340370D01*
X141977273Y-108310085D01*
X142019371Y-108287583D01*
X142065058Y-108273724D01*
X142115054Y-108268800D01*
X143199946Y-108268800D01*
X143249942Y-108273724D01*
G37*
G36*
X146224942Y-108273724D02*
G01*
X146270629Y-108287583D01*
X146312727Y-108310085D01*
X146349630Y-108340370D01*
X146379915Y-108377273D01*
X146402417Y-108419371D01*
X146416276Y-108465058D01*
X146421200Y-108515054D01*
X146421200Y-109924946D01*
X146416276Y-109974942D01*
X146402417Y-110020629D01*
X146379915Y-110062727D01*
X146349630Y-110099630D01*
X146312727Y-110129915D01*
X146270629Y-110152417D01*
X146224942Y-110166276D01*
X146174946Y-110171200D01*
X145090054Y-110171200D01*
X145040058Y-110166276D01*
X144994371Y-110152417D01*
X144952273Y-110129915D01*
X144915370Y-110099630D01*
X144885085Y-110062727D01*
X144862583Y-110020629D01*
X144848724Y-109974942D01*
X144843800Y-109924946D01*
X144843800Y-108515054D01*
X144848724Y-108465058D01*
X144862583Y-108419371D01*
X144885085Y-108377273D01*
X144915370Y-108340370D01*
X144952273Y-108310085D01*
X144994371Y-108287583D01*
X145040058Y-108273724D01*
X145090054Y-108268800D01*
X146174946Y-108268800D01*
X146224942Y-108273724D01*
G37*
G36*
X168296000Y-107978400D02*
G01*
X166443600Y-107978400D01*
X166443600Y-107504199D01*
X166442624Y-107494289D01*
X166439733Y-107484759D01*
X166435039Y-107475977D01*
X166428721Y-107468279D01*
X166421023Y-107461961D01*
X166412241Y-107457267D01*
X166402711Y-107454376D01*
X166392801Y-107453400D01*
X165714117Y-107453400D01*
X165664265Y-107448490D01*
X165618715Y-107434673D01*
X165576745Y-107412239D01*
X165539954Y-107382046D01*
X165509761Y-107345255D01*
X165487327Y-107303285D01*
X165473510Y-107257735D01*
X165468600Y-107207883D01*
X165468600Y-105796517D01*
X165473510Y-105746665D01*
X165487327Y-105701115D01*
X165509761Y-105659145D01*
X165539954Y-105622354D01*
X165576745Y-105592161D01*
X165618715Y-105569727D01*
X165664265Y-105555910D01*
X165714117Y-105551000D01*
X166392801Y-105551000D01*
X166402711Y-105550024D01*
X166412241Y-105547133D01*
X166421023Y-105542439D01*
X166428721Y-105536121D01*
X166435039Y-105528423D01*
X166439733Y-105519641D01*
X166442624Y-105510111D01*
X166443600Y-105500201D01*
X166443600Y-105026000D01*
X168296000Y-105026000D01*
X168296000Y-107978400D01*
G37*
G36*
X163096000Y-105500201D02*
G01*
X163096976Y-105510111D01*
X163099867Y-105519641D01*
X163104561Y-105528423D01*
X163110879Y-105536121D01*
X163118577Y-105542439D01*
X163127359Y-105547133D01*
X163136889Y-105550024D01*
X163146799Y-105551000D01*
X163825483Y-105551000D01*
X163875335Y-105555910D01*
X163920885Y-105569727D01*
X163962855Y-105592161D01*
X163999646Y-105622354D01*
X164029839Y-105659145D01*
X164052273Y-105701115D01*
X164066090Y-105746665D01*
X164071000Y-105796517D01*
X164071000Y-107207883D01*
X164066090Y-107257735D01*
X164052273Y-107303285D01*
X164029839Y-107345255D01*
X163999646Y-107382046D01*
X163962855Y-107412239D01*
X163920885Y-107434673D01*
X163875335Y-107448490D01*
X163825483Y-107453400D01*
X163146799Y-107453400D01*
X163136889Y-107454376D01*
X163127359Y-107457267D01*
X163118577Y-107461961D01*
X163110879Y-107468279D01*
X163104561Y-107475977D01*
X163099867Y-107484759D01*
X163096976Y-107494289D01*
X163096000Y-107504199D01*
X163096000Y-107978400D01*
X161243600Y-107978400D01*
X161243600Y-105026000D01*
X163096000Y-105026000D01*
X163096000Y-105500201D01*
G37*
G36*
X166762442Y-100653724D02*
G01*
X166808129Y-100667583D01*
X166850227Y-100690085D01*
X166887130Y-100720370D01*
X166917415Y-100757273D01*
X166939917Y-100799371D01*
X166953776Y-100845058D01*
X166958700Y-100895054D01*
X166958700Y-102304946D01*
X166953776Y-102354942D01*
X166939917Y-102400629D01*
X166917415Y-102442727D01*
X166887130Y-102479630D01*
X166850227Y-102509915D01*
X166808129Y-102532417D01*
X166762442Y-102546276D01*
X166712446Y-102551200D01*
X165627554Y-102551200D01*
X165577558Y-102546276D01*
X165531871Y-102532417D01*
X165489773Y-102509915D01*
X165452870Y-102479630D01*
X165422585Y-102442727D01*
X165400083Y-102400629D01*
X165386224Y-102354942D01*
X165381300Y-102304946D01*
X165381300Y-100895054D01*
X165386224Y-100845058D01*
X165400083Y-100799371D01*
X165422585Y-100757273D01*
X165452870Y-100720370D01*
X165489773Y-100690085D01*
X165531871Y-100667583D01*
X165577558Y-100653724D01*
X165627554Y-100648800D01*
X166712446Y-100648800D01*
X166762442Y-100653724D01*
G37*
G36*
X163787442Y-100653724D02*
G01*
X163833129Y-100667583D01*
X163875227Y-100690085D01*
X163912130Y-100720370D01*
X163942415Y-100757273D01*
X163964917Y-100799371D01*
X163978776Y-100845058D01*
X163983700Y-100895054D01*
X163983700Y-102304946D01*
X163978776Y-102354942D01*
X163964917Y-102400629D01*
X163942415Y-102442727D01*
X163912130Y-102479630D01*
X163875227Y-102509915D01*
X163833129Y-102532417D01*
X163787442Y-102546276D01*
X163737446Y-102551200D01*
X162652554Y-102551200D01*
X162602558Y-102546276D01*
X162556871Y-102532417D01*
X162514773Y-102509915D01*
X162477870Y-102479630D01*
X162447585Y-102442727D01*
X162425083Y-102400629D01*
X162411224Y-102354942D01*
X162406300Y-102304946D01*
X162406300Y-100895054D01*
X162411224Y-100845058D01*
X162425083Y-100799371D01*
X162447585Y-100757273D01*
X162477870Y-100720370D01*
X162514773Y-100690085D01*
X162556871Y-100667583D01*
X162602558Y-100653724D01*
X162652554Y-100648800D01*
X163737446Y-100648800D01*
X163787442Y-100653724D01*
G37*
G36*
X155749942Y-93668724D02*
G01*
X155795629Y-93682583D01*
X155837727Y-93705085D01*
X155874630Y-93735370D01*
X155904915Y-93772273D01*
X155927417Y-93814371D01*
X155941276Y-93860058D01*
X155946200Y-93910054D01*
X155946200Y-95319946D01*
X155941276Y-95369942D01*
X155927417Y-95415629D01*
X155904915Y-95457727D01*
X155874630Y-95494630D01*
X155837727Y-95524915D01*
X155795629Y-95547417D01*
X155749942Y-95561276D01*
X155699946Y-95566200D01*
X154615054Y-95566200D01*
X154565058Y-95561276D01*
X154519371Y-95547417D01*
X154477273Y-95524915D01*
X154440370Y-95494630D01*
X154410085Y-95457727D01*
X154387583Y-95415629D01*
X154373724Y-95369942D01*
X154368800Y-95319946D01*
X154368800Y-93910054D01*
X154373724Y-93860058D01*
X154387583Y-93814371D01*
X154410085Y-93772273D01*
X154440370Y-93735370D01*
X154477273Y-93705085D01*
X154519371Y-93682583D01*
X154565058Y-93668724D01*
X154615054Y-93663800D01*
X155699946Y-93663800D01*
X155749942Y-93668724D01*
G37*
G36*
X152774942Y-93668724D02*
G01*
X152820629Y-93682583D01*
X152862727Y-93705085D01*
X152899630Y-93735370D01*
X152929915Y-93772273D01*
X152952417Y-93814371D01*
X152966276Y-93860058D01*
X152971200Y-93910054D01*
X152971200Y-95319946D01*
X152966276Y-95369942D01*
X152952417Y-95415629D01*
X152929915Y-95457727D01*
X152899630Y-95494630D01*
X152862727Y-95524915D01*
X152820629Y-95547417D01*
X152774942Y-95561276D01*
X152724946Y-95566200D01*
X151640054Y-95566200D01*
X151590058Y-95561276D01*
X151544371Y-95547417D01*
X151502273Y-95524915D01*
X151465370Y-95494630D01*
X151435085Y-95457727D01*
X151412583Y-95415629D01*
X151398724Y-95369942D01*
X151393800Y-95319946D01*
X151393800Y-93910054D01*
X151398724Y-93860058D01*
X151412583Y-93814371D01*
X151435085Y-93772273D01*
X151465370Y-93735370D01*
X151502273Y-93705085D01*
X151544371Y-93682583D01*
X151590058Y-93668724D01*
X151640054Y-93663800D01*
X152724946Y-93663800D01*
X152774942Y-93668724D01*
G37*
G36*
X130549942Y-91763724D02*
G01*
X130595629Y-91777583D01*
X130637727Y-91800085D01*
X130674630Y-91830370D01*
X130704915Y-91867273D01*
X130727417Y-91909371D01*
X130741276Y-91955058D01*
X130746200Y-92005054D01*
X130746200Y-93414946D01*
X130741276Y-93464942D01*
X130727417Y-93510629D01*
X130704915Y-93552727D01*
X130674630Y-93589630D01*
X130637727Y-93619915D01*
X130595629Y-93642417D01*
X130549942Y-93656276D01*
X130499946Y-93661200D01*
X129415054Y-93661200D01*
X129365058Y-93656276D01*
X129319371Y-93642417D01*
X129277273Y-93619915D01*
X129240370Y-93589630D01*
X129210085Y-93552727D01*
X129187583Y-93510629D01*
X129173724Y-93464942D01*
X129168800Y-93414946D01*
X129168800Y-92005054D01*
X129173724Y-91955058D01*
X129187583Y-91909371D01*
X129210085Y-91867273D01*
X129240370Y-91830370D01*
X129277273Y-91800085D01*
X129319371Y-91777583D01*
X129365058Y-91763724D01*
X129415054Y-91758800D01*
X130499946Y-91758800D01*
X130549942Y-91763724D01*
G37*
G36*
X133524942Y-91763724D02*
G01*
X133570629Y-91777583D01*
X133612727Y-91800085D01*
X133649630Y-91830370D01*
X133679915Y-91867273D01*
X133702417Y-91909371D01*
X133716276Y-91955058D01*
X133721200Y-92005054D01*
X133721200Y-93414946D01*
X133716276Y-93464942D01*
X133702417Y-93510629D01*
X133679915Y-93552727D01*
X133649630Y-93589630D01*
X133612727Y-93619915D01*
X133570629Y-93642417D01*
X133524942Y-93656276D01*
X133474946Y-93661200D01*
X132390054Y-93661200D01*
X132340058Y-93656276D01*
X132294371Y-93642417D01*
X132252273Y-93619915D01*
X132215370Y-93589630D01*
X132185085Y-93552727D01*
X132162583Y-93510629D01*
X132148724Y-93464942D01*
X132143800Y-93414946D01*
X132143800Y-92005054D01*
X132148724Y-91955058D01*
X132162583Y-91909371D01*
X132185085Y-91867273D01*
X132215370Y-91830370D01*
X132252273Y-91800085D01*
X132294371Y-91777583D01*
X132340058Y-91763724D01*
X132390054Y-91758800D01*
X133474946Y-91758800D01*
X133524942Y-91763724D01*
G37*
G36*
X151894600Y-87466201D02*
G01*
X151895576Y-87476111D01*
X151898467Y-87485641D01*
X151903161Y-87494423D01*
X151909479Y-87502121D01*
X151917177Y-87508439D01*
X151925959Y-87513133D01*
X151935489Y-87516024D01*
X151945399Y-87517000D01*
X152624083Y-87517000D01*
X152673935Y-87521910D01*
X152719485Y-87535727D01*
X152761455Y-87558161D01*
X152798246Y-87588354D01*
X152828439Y-87625145D01*
X152850873Y-87667115D01*
X152864690Y-87712665D01*
X152869600Y-87762517D01*
X152869600Y-89173883D01*
X152864690Y-89223735D01*
X152850873Y-89269285D01*
X152828439Y-89311255D01*
X152798246Y-89348046D01*
X152761455Y-89378239D01*
X152719485Y-89400673D01*
X152673935Y-89414490D01*
X152624083Y-89419400D01*
X151945399Y-89419400D01*
X151935489Y-89420376D01*
X151925959Y-89423267D01*
X151917177Y-89427961D01*
X151909479Y-89434279D01*
X151903161Y-89441977D01*
X151898467Y-89450759D01*
X151895576Y-89460289D01*
X151894600Y-89470199D01*
X151894600Y-89944400D01*
X150042200Y-89944400D01*
X150042200Y-86992000D01*
X151894600Y-86992000D01*
X151894600Y-87466201D01*
G37*
G36*
X157094600Y-89944400D02*
G01*
X155242200Y-89944400D01*
X155242200Y-89470199D01*
X155241224Y-89460289D01*
X155238333Y-89450759D01*
X155233639Y-89441977D01*
X155227321Y-89434279D01*
X155219623Y-89427961D01*
X155210841Y-89423267D01*
X155201311Y-89420376D01*
X155191401Y-89419400D01*
X154512717Y-89419400D01*
X154462865Y-89414490D01*
X154417315Y-89400673D01*
X154375345Y-89378239D01*
X154338554Y-89348046D01*
X154308361Y-89311255D01*
X154285927Y-89269285D01*
X154272110Y-89223735D01*
X154267200Y-89173883D01*
X154267200Y-87762517D01*
X154272110Y-87712665D01*
X154285927Y-87667115D01*
X154308361Y-87625145D01*
X154338554Y-87588354D01*
X154375345Y-87558161D01*
X154417315Y-87535727D01*
X154462865Y-87521910D01*
X154512717Y-87517000D01*
X155191401Y-87517000D01*
X155201311Y-87516024D01*
X155210841Y-87513133D01*
X155219623Y-87508439D01*
X155227321Y-87502121D01*
X155233639Y-87494423D01*
X155238333Y-87485641D01*
X155241224Y-87476111D01*
X155242200Y-87466201D01*
X155242200Y-86992000D01*
X157094600Y-86992000D01*
X157094600Y-89944400D01*
G37*
G36*
X129136200Y-85993001D02*
G01*
X129137176Y-86002911D01*
X129140067Y-86012441D01*
X129144761Y-86021223D01*
X129151079Y-86028921D01*
X129158777Y-86035239D01*
X129167559Y-86039933D01*
X129177089Y-86042824D01*
X129186999Y-86043800D01*
X129865683Y-86043800D01*
X129915535Y-86048710D01*
X129961085Y-86062527D01*
X130003055Y-86084961D01*
X130039846Y-86115154D01*
X130070039Y-86151945D01*
X130092473Y-86193915D01*
X130106290Y-86239465D01*
X130111200Y-86289317D01*
X130111200Y-87700683D01*
X130106290Y-87750535D01*
X130092473Y-87796085D01*
X130070039Y-87838055D01*
X130039846Y-87874846D01*
X130003055Y-87905039D01*
X129961085Y-87927473D01*
X129915535Y-87941290D01*
X129865683Y-87946200D01*
X129186999Y-87946200D01*
X129177089Y-87947176D01*
X129167559Y-87950067D01*
X129158777Y-87954761D01*
X129151079Y-87961079D01*
X129144761Y-87968777D01*
X129140067Y-87977559D01*
X129137176Y-87987089D01*
X129136200Y-87996999D01*
X129136200Y-88471200D01*
X127283800Y-88471200D01*
X127283800Y-85518800D01*
X129136200Y-85518800D01*
X129136200Y-85993001D01*
G37*
G36*
X134336200Y-88471200D02*
G01*
X132483800Y-88471200D01*
X132483800Y-87996999D01*
X132482824Y-87987089D01*
X132479933Y-87977559D01*
X132475239Y-87968777D01*
X132468921Y-87961079D01*
X132461223Y-87954761D01*
X132452441Y-87950067D01*
X132442911Y-87947176D01*
X132433001Y-87946200D01*
X131754317Y-87946200D01*
X131704465Y-87941290D01*
X131658915Y-87927473D01*
X131616945Y-87905039D01*
X131580154Y-87874846D01*
X131549961Y-87838055D01*
X131527527Y-87796085D01*
X131513710Y-87750535D01*
X131508800Y-87700683D01*
X131508800Y-86289317D01*
X131513710Y-86239465D01*
X131527527Y-86193915D01*
X131549961Y-86151945D01*
X131580154Y-86115154D01*
X131616945Y-86084961D01*
X131658915Y-86062527D01*
X131704465Y-86048710D01*
X131754317Y-86043800D01*
X132433001Y-86043800D01*
X132442911Y-86042824D01*
X132452441Y-86039933D01*
X132461223Y-86035239D01*
X132468921Y-86028921D01*
X132475239Y-86021223D01*
X132479933Y-86012441D01*
X132482824Y-86002911D01*
X132483800Y-85993001D01*
X132483800Y-85518800D01*
X134336200Y-85518800D01*
X134336200Y-88471200D01*
G37*
G36*
X144695800Y-83854600D02*
G01*
X143543400Y-83854600D01*
X143543400Y-81802200D01*
X144695800Y-81802200D01*
X144695800Y-83854600D01*
G37*
G36*
X149775800Y-83854600D02*
G01*
X148623400Y-83854600D01*
X148623400Y-81802200D01*
X149775800Y-81802200D01*
X149775800Y-83854600D01*
G37*
G36*
X154855800Y-83854600D02*
G01*
X153703400Y-83854600D01*
X153703400Y-81802200D01*
X154855800Y-81802200D01*
X154855800Y-83854600D01*
G37*
G36*
X139615800Y-83854600D02*
G01*
X138463400Y-83854600D01*
X138463400Y-81802200D01*
X139615800Y-81802200D01*
X139615800Y-83854600D01*
G37*
G36*
X134535800Y-83854600D02*
G01*
X133383400Y-83854600D01*
X133383400Y-81802200D01*
X134535800Y-81802200D01*
X134535800Y-83854600D01*
G37*
G36*
X129455800Y-83854600D02*
G01*
X128303400Y-83854600D01*
X128303400Y-81802200D01*
X129455800Y-81802200D01*
X129455800Y-83854600D01*
G37*
G36*
X124375800Y-83854600D02*
G01*
X123223400Y-83854600D01*
X123223400Y-81802200D01*
X124375800Y-81802200D01*
X124375800Y-83854600D01*
G37*
G36*
X137075800Y-80554600D02*
G01*
X135923400Y-80554600D01*
X135923400Y-78502200D01*
X137075800Y-78502200D01*
X137075800Y-80554600D01*
G37*
G36*
X126915800Y-80554600D02*
G01*
X125763400Y-80554600D01*
X125763400Y-78502200D01*
X126915800Y-78502200D01*
X126915800Y-80554600D01*
G37*
G36*
X157395800Y-80554600D02*
G01*
X156243400Y-80554600D01*
X156243400Y-78502200D01*
X157395800Y-78502200D01*
X157395800Y-80554600D01*
G37*
G36*
X142155800Y-80554600D02*
G01*
X141003400Y-80554600D01*
X141003400Y-78502200D01*
X142155800Y-78502200D01*
X142155800Y-80554600D01*
G37*
G36*
X152315800Y-80554600D02*
G01*
X151163400Y-80554600D01*
X151163400Y-78502200D01*
X152315800Y-78502200D01*
X152315800Y-80554600D01*
G37*
G36*
X131995800Y-80554600D02*
G01*
X130843400Y-80554600D01*
X130843400Y-78502200D01*
X131995800Y-78502200D01*
X131995800Y-80554600D01*
G37*
G36*
X147235800Y-80554600D02*
G01*
X146083400Y-80554600D01*
X146083400Y-78502200D01*
X147235800Y-78502200D01*
X147235800Y-80554600D01*
G37*
G36*
X121835800Y-80554600D02*
G01*
X120683400Y-80554600D01*
X120683400Y-78502200D01*
X121835800Y-78502200D01*
X121835800Y-80554600D01*
G37*
G36*
X145062000Y-72607201D02*
G01*
X145062976Y-72617111D01*
X145065867Y-72626641D01*
X145070561Y-72635423D01*
X145076879Y-72643121D01*
X145084577Y-72649439D01*
X145093359Y-72654133D01*
X145102889Y-72657024D01*
X145112799Y-72658000D01*
X145791483Y-72658000D01*
X145841335Y-72662910D01*
X145886885Y-72676727D01*
X145928855Y-72699161D01*
X145965646Y-72729354D01*
X145995839Y-72766145D01*
X146018273Y-72808115D01*
X146032090Y-72853665D01*
X146037000Y-72903517D01*
X146037000Y-74314883D01*
X146032090Y-74364735D01*
X146018273Y-74410285D01*
X145995839Y-74452255D01*
X145965646Y-74489046D01*
X145928855Y-74519239D01*
X145886885Y-74541673D01*
X145841335Y-74555490D01*
X145791483Y-74560400D01*
X145112799Y-74560400D01*
X145102889Y-74561376D01*
X145093359Y-74564267D01*
X145084577Y-74568961D01*
X145076879Y-74575279D01*
X145070561Y-74582977D01*
X145065867Y-74591759D01*
X145062976Y-74601289D01*
X145062000Y-74611199D01*
X145062000Y-75085400D01*
X143209600Y-75085400D01*
X143209600Y-72133000D01*
X145062000Y-72133000D01*
X145062000Y-72607201D01*
G37*
G36*
X150262000Y-75085400D02*
G01*
X148409600Y-75085400D01*
X148409600Y-74611199D01*
X148408624Y-74601289D01*
X148405733Y-74591759D01*
X148401039Y-74582977D01*
X148394721Y-74575279D01*
X148387023Y-74568961D01*
X148378241Y-74564267D01*
X148368711Y-74561376D01*
X148358801Y-74560400D01*
X147680117Y-74560400D01*
X147630265Y-74555490D01*
X147584715Y-74541673D01*
X147542745Y-74519239D01*
X147505954Y-74489046D01*
X147475761Y-74452255D01*
X147453327Y-74410285D01*
X147439510Y-74364735D01*
X147434600Y-74314883D01*
X147434600Y-72903517D01*
X147439510Y-72853665D01*
X147453327Y-72808115D01*
X147475761Y-72766145D01*
X147505954Y-72729354D01*
X147542745Y-72699161D01*
X147584715Y-72676727D01*
X147630265Y-72662910D01*
X147680117Y-72658000D01*
X148358801Y-72658000D01*
X148368711Y-72657024D01*
X148378241Y-72654133D01*
X148387023Y-72649439D01*
X148394721Y-72643121D01*
X148401039Y-72635423D01*
X148405733Y-72626641D01*
X148408624Y-72617111D01*
X148409600Y-72607201D01*
X148409600Y-72133000D01*
X150262000Y-72133000D01*
X150262000Y-75085400D01*
G37*
G36*
X135657000Y-74983800D02*
G01*
X133804600Y-74983800D01*
X133804600Y-74509599D01*
X133803624Y-74499689D01*
X133800733Y-74490159D01*
X133796039Y-74481377D01*
X133789721Y-74473679D01*
X133782023Y-74467361D01*
X133773241Y-74462667D01*
X133763711Y-74459776D01*
X133753801Y-74458800D01*
X133075117Y-74458800D01*
X133025265Y-74453890D01*
X132979715Y-74440073D01*
X132937745Y-74417639D01*
X132900954Y-74387446D01*
X132870761Y-74350655D01*
X132848327Y-74308685D01*
X132834510Y-74263135D01*
X132829600Y-74213283D01*
X132829600Y-72801917D01*
X132834510Y-72752065D01*
X132848327Y-72706515D01*
X132870761Y-72664545D01*
X132900954Y-72627754D01*
X132937745Y-72597561D01*
X132979715Y-72575127D01*
X133025265Y-72561310D01*
X133075117Y-72556400D01*
X133753801Y-72556400D01*
X133763711Y-72555424D01*
X133773241Y-72552533D01*
X133782023Y-72547839D01*
X133789721Y-72541521D01*
X133796039Y-72533823D01*
X133800733Y-72525041D01*
X133803624Y-72515511D01*
X133804600Y-72505601D01*
X133804600Y-72031400D01*
X135657000Y-72031400D01*
X135657000Y-74983800D01*
G37*
G36*
X130457000Y-72505601D02*
G01*
X130457976Y-72515511D01*
X130460867Y-72525041D01*
X130465561Y-72533823D01*
X130471879Y-72541521D01*
X130479577Y-72547839D01*
X130488359Y-72552533D01*
X130497889Y-72555424D01*
X130507799Y-72556400D01*
X131186483Y-72556400D01*
X131236335Y-72561310D01*
X131281885Y-72575127D01*
X131323855Y-72597561D01*
X131360646Y-72627754D01*
X131390839Y-72664545D01*
X131413273Y-72706515D01*
X131427090Y-72752065D01*
X131432000Y-72801917D01*
X131432000Y-74213283D01*
X131427090Y-74263135D01*
X131413273Y-74308685D01*
X131390839Y-74350655D01*
X131360646Y-74387446D01*
X131323855Y-74417639D01*
X131281885Y-74440073D01*
X131236335Y-74453890D01*
X131186483Y-74458800D01*
X130507799Y-74458800D01*
X130497889Y-74459776D01*
X130488359Y-74462667D01*
X130479577Y-74467361D01*
X130471879Y-74473679D01*
X130465561Y-74481377D01*
X130460867Y-74490159D01*
X130457976Y-74499689D01*
X130457000Y-74509599D01*
X130457000Y-74983800D01*
X128604600Y-74983800D01*
X128604600Y-72031400D01*
X130457000Y-72031400D01*
X130457000Y-72505601D01*
G37*
G36*
X118486600Y-74958400D02*
G01*
X116634200Y-74958400D01*
X116634200Y-74484199D01*
X116633224Y-74474289D01*
X116630333Y-74464759D01*
X116625639Y-74455977D01*
X116619321Y-74448279D01*
X116611623Y-74441961D01*
X116602841Y-74437267D01*
X116593311Y-74434376D01*
X116583401Y-74433400D01*
X115904717Y-74433400D01*
X115854865Y-74428490D01*
X115809315Y-74414673D01*
X115767345Y-74392239D01*
X115730554Y-74362046D01*
X115700361Y-74325255D01*
X115677927Y-74283285D01*
X115664110Y-74237735D01*
X115659200Y-74187883D01*
X115659200Y-72776517D01*
X115664110Y-72726665D01*
X115677927Y-72681115D01*
X115700361Y-72639145D01*
X115730554Y-72602354D01*
X115767345Y-72572161D01*
X115809315Y-72549727D01*
X115854865Y-72535910D01*
X115904717Y-72531000D01*
X116583401Y-72531000D01*
X116593311Y-72530024D01*
X116602841Y-72527133D01*
X116611623Y-72522439D01*
X116619321Y-72516121D01*
X116625639Y-72508423D01*
X116630333Y-72499641D01*
X116633224Y-72490111D01*
X116634200Y-72480201D01*
X116634200Y-72006000D01*
X118486600Y-72006000D01*
X118486600Y-74958400D01*
G37*
G36*
X113286600Y-72480201D02*
G01*
X113287576Y-72490111D01*
X113290467Y-72499641D01*
X113295161Y-72508423D01*
X113301479Y-72516121D01*
X113309177Y-72522439D01*
X113317959Y-72527133D01*
X113327489Y-72530024D01*
X113337399Y-72531000D01*
X114016083Y-72531000D01*
X114065935Y-72535910D01*
X114111485Y-72549727D01*
X114153455Y-72572161D01*
X114190246Y-72602354D01*
X114220439Y-72639145D01*
X114242873Y-72681115D01*
X114256690Y-72726665D01*
X114261600Y-72776517D01*
X114261600Y-74187883D01*
X114256690Y-74237735D01*
X114242873Y-74283285D01*
X114220439Y-74325255D01*
X114190246Y-74362046D01*
X114153455Y-74392239D01*
X114111485Y-74414673D01*
X114065935Y-74428490D01*
X114016083Y-74433400D01*
X113337399Y-74433400D01*
X113327489Y-74434376D01*
X113317959Y-74437267D01*
X113309177Y-74441961D01*
X113301479Y-74448279D01*
X113295161Y-74455977D01*
X113290467Y-74464759D01*
X113287576Y-74474289D01*
X113286600Y-74484199D01*
X113286600Y-74958400D01*
X111434200Y-74958400D01*
X111434200Y-72006000D01*
X113286600Y-72006000D01*
X113286600Y-72480201D01*
G37*
G36*
X154044942Y-72713724D02*
G01*
X154090629Y-72727583D01*
X154132727Y-72750085D01*
X154169630Y-72780370D01*
X154199915Y-72817273D01*
X154222417Y-72859371D01*
X154236276Y-72905058D01*
X154241200Y-72955054D01*
X154241200Y-74364946D01*
X154236276Y-74414942D01*
X154222417Y-74460629D01*
X154199915Y-74502727D01*
X154169630Y-74539630D01*
X154132727Y-74569915D01*
X154090629Y-74592417D01*
X154044942Y-74606276D01*
X153994946Y-74611200D01*
X152910054Y-74611200D01*
X152860058Y-74606276D01*
X152814371Y-74592417D01*
X152772273Y-74569915D01*
X152735370Y-74539630D01*
X152705085Y-74502727D01*
X152682583Y-74460629D01*
X152668724Y-74414942D01*
X152663800Y-74364946D01*
X152663800Y-72955054D01*
X152668724Y-72905058D01*
X152682583Y-72859371D01*
X152705085Y-72817273D01*
X152735370Y-72780370D01*
X152772273Y-72750085D01*
X152814371Y-72727583D01*
X152860058Y-72713724D01*
X152910054Y-72708800D01*
X153994946Y-72708800D01*
X154044942Y-72713724D01*
G37*
G36*
X126539942Y-72713724D02*
G01*
X126585629Y-72727583D01*
X126627727Y-72750085D01*
X126664630Y-72780370D01*
X126694915Y-72817273D01*
X126717417Y-72859371D01*
X126731276Y-72905058D01*
X126736200Y-72955054D01*
X126736200Y-74364946D01*
X126731276Y-74414942D01*
X126717417Y-74460629D01*
X126694915Y-74502727D01*
X126664630Y-74539630D01*
X126627727Y-74569915D01*
X126585629Y-74592417D01*
X126539942Y-74606276D01*
X126489946Y-74611200D01*
X125405054Y-74611200D01*
X125355058Y-74606276D01*
X125309371Y-74592417D01*
X125267273Y-74569915D01*
X125230370Y-74539630D01*
X125200085Y-74502727D01*
X125177583Y-74460629D01*
X125163724Y-74414942D01*
X125158800Y-74364946D01*
X125158800Y-72955054D01*
X125163724Y-72905058D01*
X125177583Y-72859371D01*
X125200085Y-72817273D01*
X125230370Y-72780370D01*
X125267273Y-72750085D01*
X125309371Y-72727583D01*
X125355058Y-72713724D01*
X125405054Y-72708800D01*
X126489946Y-72708800D01*
X126539942Y-72713724D01*
G37*
G36*
X123564942Y-72713724D02*
G01*
X123610629Y-72727583D01*
X123652727Y-72750085D01*
X123689630Y-72780370D01*
X123719915Y-72817273D01*
X123742417Y-72859371D01*
X123756276Y-72905058D01*
X123761200Y-72955054D01*
X123761200Y-74364946D01*
X123756276Y-74414942D01*
X123742417Y-74460629D01*
X123719915Y-74502727D01*
X123689630Y-74539630D01*
X123652727Y-74569915D01*
X123610629Y-74592417D01*
X123564942Y-74606276D01*
X123514946Y-74611200D01*
X122430054Y-74611200D01*
X122380058Y-74606276D01*
X122334371Y-74592417D01*
X122292273Y-74569915D01*
X122255370Y-74539630D01*
X122225085Y-74502727D01*
X122202583Y-74460629D01*
X122188724Y-74414942D01*
X122183800Y-74364946D01*
X122183800Y-72955054D01*
X122188724Y-72905058D01*
X122202583Y-72859371D01*
X122225085Y-72817273D01*
X122255370Y-72780370D01*
X122292273Y-72750085D01*
X122334371Y-72727583D01*
X122380058Y-72713724D01*
X122430054Y-72708800D01*
X123514946Y-72708800D01*
X123564942Y-72713724D01*
G37*
G36*
X157019942Y-72713724D02*
G01*
X157065629Y-72727583D01*
X157107727Y-72750085D01*
X157144630Y-72780370D01*
X157174915Y-72817273D01*
X157197417Y-72859371D01*
X157211276Y-72905058D01*
X157216200Y-72955054D01*
X157216200Y-74364946D01*
X157211276Y-74414942D01*
X157197417Y-74460629D01*
X157174915Y-74502727D01*
X157144630Y-74539630D01*
X157107727Y-74569915D01*
X157065629Y-74592417D01*
X157019942Y-74606276D01*
X156969946Y-74611200D01*
X155885054Y-74611200D01*
X155835058Y-74606276D01*
X155789371Y-74592417D01*
X155747273Y-74569915D01*
X155710370Y-74539630D01*
X155680085Y-74502727D01*
X155657583Y-74460629D01*
X155643724Y-74414942D01*
X155638800Y-74364946D01*
X155638800Y-72955054D01*
X155643724Y-72905058D01*
X155657583Y-72859371D01*
X155680085Y-72817273D01*
X155710370Y-72780370D01*
X155747273Y-72750085D01*
X155789371Y-72727583D01*
X155835058Y-72713724D01*
X155885054Y-72708800D01*
X156969946Y-72708800D01*
X157019942Y-72713724D01*
G37*
G36*
X113404942Y-67633724D02*
G01*
X113450629Y-67647583D01*
X113492727Y-67670085D01*
X113529630Y-67700370D01*
X113559915Y-67737273D01*
X113582417Y-67779371D01*
X113596276Y-67825058D01*
X113601200Y-67875054D01*
X113601200Y-69284946D01*
X113596276Y-69334942D01*
X113582417Y-69380629D01*
X113559915Y-69422727D01*
X113529630Y-69459630D01*
X113492727Y-69489915D01*
X113450629Y-69512417D01*
X113404942Y-69526276D01*
X113354946Y-69531200D01*
X112270054Y-69531200D01*
X112220058Y-69526276D01*
X112174371Y-69512417D01*
X112132273Y-69489915D01*
X112095370Y-69459630D01*
X112065085Y-69422727D01*
X112042583Y-69380629D01*
X112028724Y-69334942D01*
X112023800Y-69284946D01*
X112023800Y-67875054D01*
X112028724Y-67825058D01*
X112042583Y-67779371D01*
X112065085Y-67737273D01*
X112095370Y-67700370D01*
X112132273Y-67670085D01*
X112174371Y-67647583D01*
X112220058Y-67633724D01*
X112270054Y-67628800D01*
X113354946Y-67628800D01*
X113404942Y-67633724D01*
G37*
G36*
X116379942Y-67633724D02*
G01*
X116425629Y-67647583D01*
X116467727Y-67670085D01*
X116504630Y-67700370D01*
X116534915Y-67737273D01*
X116557417Y-67779371D01*
X116571276Y-67825058D01*
X116576200Y-67875054D01*
X116576200Y-69284946D01*
X116571276Y-69334942D01*
X116557417Y-69380629D01*
X116534915Y-69422727D01*
X116504630Y-69459630D01*
X116467727Y-69489915D01*
X116425629Y-69512417D01*
X116379942Y-69526276D01*
X116329946Y-69531200D01*
X115245054Y-69531200D01*
X115195058Y-69526276D01*
X115149371Y-69512417D01*
X115107273Y-69489915D01*
X115070370Y-69459630D01*
X115040085Y-69422727D01*
X115017583Y-69380629D01*
X115003724Y-69334942D01*
X114998800Y-69284946D01*
X114998800Y-67875054D01*
X115003724Y-67825058D01*
X115017583Y-67779371D01*
X115040085Y-67737273D01*
X115070370Y-67700370D01*
X115107273Y-67670085D01*
X115149371Y-67647583D01*
X115195058Y-67633724D01*
X115245054Y-67628800D01*
X116329946Y-67628800D01*
X116379942Y-67633724D01*
G37*
G36*
X149775800Y-68614600D02*
G01*
X148623400Y-68614600D01*
X148623400Y-66562200D01*
X149775800Y-66562200D01*
X149775800Y-68614600D01*
G37*
G36*
X144695800Y-68614600D02*
G01*
X143543400Y-68614600D01*
X143543400Y-66562200D01*
X144695800Y-66562200D01*
X144695800Y-68614600D01*
G37*
G36*
X124375800Y-68614600D02*
G01*
X123223400Y-68614600D01*
X123223400Y-66562200D01*
X124375800Y-66562200D01*
X124375800Y-68614600D01*
G37*
G36*
X129455800Y-68614600D02*
G01*
X128303400Y-68614600D01*
X128303400Y-66562200D01*
X129455800Y-66562200D01*
X129455800Y-68614600D01*
G37*
G36*
X134535800Y-68614600D02*
G01*
X133383400Y-68614600D01*
X133383400Y-66562200D01*
X134535800Y-66562200D01*
X134535800Y-68614600D01*
G37*
G36*
X139615800Y-68614600D02*
G01*
X138463400Y-68614600D01*
X138463400Y-66562200D01*
X139615800Y-66562200D01*
X139615800Y-68614600D01*
G37*
G36*
X154855800Y-68614600D02*
G01*
X153703400Y-68614600D01*
X153703400Y-66562200D01*
X154855800Y-66562200D01*
X154855800Y-68614600D01*
G37*
G36*
X121835800Y-65314600D02*
G01*
X120683400Y-65314600D01*
X120683400Y-63262200D01*
X121835800Y-63262200D01*
X121835800Y-65314600D01*
G37*
G36*
X126915800Y-65314600D02*
G01*
X125763400Y-65314600D01*
X125763400Y-63262200D01*
X126915800Y-63262200D01*
X126915800Y-65314600D01*
G37*
G36*
X131995800Y-65314600D02*
G01*
X130843400Y-65314600D01*
X130843400Y-63262200D01*
X131995800Y-63262200D01*
X131995800Y-65314600D01*
G37*
G36*
X137075800Y-65314600D02*
G01*
X135923400Y-65314600D01*
X135923400Y-63262200D01*
X137075800Y-63262200D01*
X137075800Y-65314600D01*
G37*
G36*
X142155800Y-65314600D02*
G01*
X141003400Y-65314600D01*
X141003400Y-63262200D01*
X142155800Y-63262200D01*
X142155800Y-65314600D01*
G37*
G36*
X147235800Y-65314600D02*
G01*
X146083400Y-65314600D01*
X146083400Y-63262200D01*
X147235800Y-63262200D01*
X147235800Y-65314600D01*
G37*
G36*
X152315800Y-65314600D02*
G01*
X151163400Y-65314600D01*
X151163400Y-63262200D01*
X152315800Y-63262200D01*
X152315800Y-65314600D01*
G37*
G36*
X157395800Y-65314600D02*
G01*
X156243400Y-65314600D01*
X156243400Y-63262200D01*
X157395800Y-63262200D01*
X157395800Y-65314600D01*
G37*
G36*
X162099942Y-58108724D02*
G01*
X162145629Y-58122583D01*
X162187727Y-58145085D01*
X162224630Y-58175370D01*
X162254915Y-58212273D01*
X162277417Y-58254371D01*
X162291276Y-58300058D01*
X162296200Y-58350054D01*
X162296200Y-59759946D01*
X162291276Y-59809942D01*
X162277417Y-59855629D01*
X162254915Y-59897727D01*
X162224630Y-59934630D01*
X162187727Y-59964915D01*
X162145629Y-59987417D01*
X162099942Y-60001276D01*
X162049946Y-60006200D01*
X160965054Y-60006200D01*
X160915058Y-60001276D01*
X160869371Y-59987417D01*
X160827273Y-59964915D01*
X160790370Y-59934630D01*
X160760085Y-59897727D01*
X160737583Y-59855629D01*
X160723724Y-59809942D01*
X160718800Y-59759946D01*
X160718800Y-58350054D01*
X160723724Y-58300058D01*
X160737583Y-58254371D01*
X160760085Y-58212273D01*
X160790370Y-58175370D01*
X160827273Y-58145085D01*
X160869371Y-58122583D01*
X160915058Y-58108724D01*
X160965054Y-58103800D01*
X162049946Y-58103800D01*
X162099942Y-58108724D01*
G37*
G36*
X159124942Y-58108724D02*
G01*
X159170629Y-58122583D01*
X159212727Y-58145085D01*
X159249630Y-58175370D01*
X159279915Y-58212273D01*
X159302417Y-58254371D01*
X159316276Y-58300058D01*
X159321200Y-58350054D01*
X159321200Y-59759946D01*
X159316276Y-59809942D01*
X159302417Y-59855629D01*
X159279915Y-59897727D01*
X159249630Y-59934630D01*
X159212727Y-59964915D01*
X159170629Y-59987417D01*
X159124942Y-60001276D01*
X159074946Y-60006200D01*
X157990054Y-60006200D01*
X157940058Y-60001276D01*
X157894371Y-59987417D01*
X157852273Y-59964915D01*
X157815370Y-59934630D01*
X157785085Y-59897727D01*
X157762583Y-59855629D01*
X157748724Y-59809942D01*
X157743800Y-59759946D01*
X157743800Y-58350054D01*
X157748724Y-58300058D01*
X157762583Y-58254371D01*
X157785085Y-58212273D01*
X157815370Y-58175370D01*
X157852273Y-58145085D01*
X157894371Y-58122583D01*
X157940058Y-58108724D01*
X157990054Y-58103800D01*
X159074946Y-58103800D01*
X159124942Y-58108724D01*
G37*
G36*
X163190600Y-55476600D02*
G01*
X161338200Y-55476600D01*
X161338200Y-55002399D01*
X161337224Y-54992489D01*
X161334333Y-54982959D01*
X161329639Y-54974177D01*
X161323321Y-54966479D01*
X161315623Y-54960161D01*
X161306841Y-54955467D01*
X161297311Y-54952576D01*
X161287401Y-54951600D01*
X160608717Y-54951600D01*
X160558865Y-54946690D01*
X160513315Y-54932873D01*
X160471345Y-54910439D01*
X160434554Y-54880246D01*
X160404361Y-54843455D01*
X160381927Y-54801485D01*
X160368110Y-54755935D01*
X160363200Y-54706083D01*
X160363200Y-53294717D01*
X160368110Y-53244865D01*
X160381927Y-53199315D01*
X160404361Y-53157345D01*
X160434554Y-53120554D01*
X160471345Y-53090361D01*
X160513315Y-53067927D01*
X160558865Y-53054110D01*
X160608717Y-53049200D01*
X161287401Y-53049200D01*
X161297311Y-53048224D01*
X161306841Y-53045333D01*
X161315623Y-53040639D01*
X161323321Y-53034321D01*
X161329639Y-53026623D01*
X161334333Y-53017841D01*
X161337224Y-53008311D01*
X161338200Y-52998401D01*
X161338200Y-52524200D01*
X163190600Y-52524200D01*
X163190600Y-55476600D01*
G37*
G36*
X157990600Y-52998401D02*
G01*
X157991576Y-53008311D01*
X157994467Y-53017841D01*
X157999161Y-53026623D01*
X158005479Y-53034321D01*
X158013177Y-53040639D01*
X158021959Y-53045333D01*
X158031489Y-53048224D01*
X158041399Y-53049200D01*
X158720083Y-53049200D01*
X158769935Y-53054110D01*
X158815485Y-53067927D01*
X158857455Y-53090361D01*
X158894246Y-53120554D01*
X158924439Y-53157345D01*
X158946873Y-53199315D01*
X158960690Y-53244865D01*
X158965600Y-53294717D01*
X158965600Y-54706083D01*
X158960690Y-54755935D01*
X158946873Y-54801485D01*
X158924439Y-54843455D01*
X158894246Y-54880246D01*
X158857455Y-54910439D01*
X158815485Y-54932873D01*
X158769935Y-54946690D01*
X158720083Y-54951600D01*
X158041399Y-54951600D01*
X158031489Y-54952576D01*
X158021959Y-54955467D01*
X158013177Y-54960161D01*
X158005479Y-54966479D01*
X157999161Y-54974177D01*
X157994467Y-54982959D01*
X157991576Y-54992489D01*
X157990600Y-55002399D01*
X157990600Y-55476600D01*
X156138200Y-55476600D01*
X156138200Y-52524200D01*
X157990600Y-52524200D01*
X157990600Y-52998401D01*
G37*
M02*
