G04 #@! TF.GenerationSoftware,KiCad,Pcbnew,5.1.5-52549c5~84~ubuntu18.04.1*
G04 #@! TF.CreationDate,2020-02-04T19:06:30-07:00*
G04 #@! TF.ProjectId,001,3030312e-6b69-4636-9164-5f7063625858,rev?*
G04 #@! TF.SameCoordinates,Original*
G04 #@! TF.FileFunction,Legend,Top*
G04 #@! TF.FilePolarity,Positive*
%FSLAX46Y46*%
G04 Gerber Fmt 4.6, Leading zero omitted, Abs format (unit mm)*
G04 Created by KiCad (PCBNEW 5.1.5-52549c5~84~ubuntu18.04.1) date 2020-02-04 19:06:30*
%MOMM*%
%LPD*%
G04 APERTURE LIST*
%ADD10C,0.010000*%
G04 APERTURE END LIST*
D10*
G36*
X163347602Y-48510121D02*
G01*
X163652253Y-48513251D01*
X163922274Y-48518951D01*
X164161490Y-48527397D01*
X164373722Y-48538766D01*
X164562794Y-48553232D01*
X164732529Y-48570972D01*
X164886750Y-48592163D01*
X164921424Y-48597707D01*
X165223527Y-48661082D01*
X165489790Y-48746242D01*
X165720925Y-48853620D01*
X165917644Y-48983648D01*
X166080658Y-49136756D01*
X166210681Y-49313377D01*
X166263902Y-49411379D01*
X166328427Y-49568726D01*
X166374343Y-49739348D01*
X166401457Y-49926052D01*
X166409576Y-50131641D01*
X166398507Y-50358924D01*
X166368056Y-50610704D01*
X166318031Y-50889788D01*
X166248238Y-51198982D01*
X166158484Y-51541091D01*
X166104119Y-51732036D01*
X166059177Y-51886255D01*
X166006726Y-52066239D01*
X165951099Y-52257112D01*
X165896632Y-52443997D01*
X165848323Y-52609750D01*
X165758241Y-52924838D01*
X165662974Y-53268997D01*
X165565806Y-53629816D01*
X165470018Y-53994888D01*
X165378896Y-54351804D01*
X165295720Y-54688157D01*
X165268671Y-54800500D01*
X165235904Y-54941827D01*
X165197054Y-55116419D01*
X165152983Y-55319956D01*
X165104547Y-55548121D01*
X165052607Y-55796598D01*
X164998021Y-56061067D01*
X164941649Y-56337213D01*
X164884350Y-56620718D01*
X164826982Y-56907263D01*
X164770406Y-57192532D01*
X164715479Y-57472207D01*
X164663062Y-57741971D01*
X164614014Y-57997506D01*
X164569193Y-58234495D01*
X164529458Y-58448620D01*
X164495670Y-58635564D01*
X164468686Y-58791010D01*
X164449366Y-58910639D01*
X164445238Y-58938583D01*
X164372359Y-59492508D01*
X164306709Y-60084669D01*
X164248380Y-60711574D01*
X164197465Y-61369730D01*
X164154056Y-62055646D01*
X164118246Y-62765829D01*
X164090126Y-63496789D01*
X164069790Y-64245032D01*
X164057329Y-65007067D01*
X164052836Y-65779402D01*
X164056403Y-66558545D01*
X164068122Y-67341004D01*
X164088087Y-68123288D01*
X164116388Y-68901904D01*
X164153119Y-69673360D01*
X164158682Y-69775916D01*
X164185756Y-70239744D01*
X164215161Y-70686325D01*
X164247470Y-71120878D01*
X164283253Y-71548625D01*
X164323083Y-71974787D01*
X164367530Y-72404584D01*
X164417168Y-72843237D01*
X164472566Y-73295965D01*
X164534297Y-73767991D01*
X164602933Y-74264535D01*
X164679045Y-74790816D01*
X164763204Y-75352057D01*
X164784415Y-75490916D01*
X164838246Y-75838898D01*
X164889947Y-76165736D01*
X164940766Y-76478601D01*
X164991954Y-76784664D01*
X165044757Y-77091096D01*
X165100426Y-77405066D01*
X165160209Y-77733746D01*
X165225354Y-78084306D01*
X165297111Y-78463916D01*
X165353938Y-78761166D01*
X165399300Y-78999682D01*
X165447889Y-79259015D01*
X165497874Y-79529150D01*
X165547427Y-79800070D01*
X165594718Y-80061757D01*
X165637916Y-80304196D01*
X165675192Y-80517370D01*
X165682586Y-80560333D01*
X165728758Y-80827179D01*
X165773724Y-81081653D01*
X165818507Y-81328959D01*
X165864130Y-81574302D01*
X165911618Y-81822885D01*
X165961994Y-82079915D01*
X166016283Y-82350595D01*
X166075508Y-82640129D01*
X166140693Y-82953722D01*
X166212863Y-83296580D01*
X166293040Y-83673905D01*
X166319712Y-83798833D01*
X166382620Y-84094180D01*
X166443527Y-84382278D01*
X166503376Y-84667748D01*
X166563108Y-84955211D01*
X166623662Y-85249290D01*
X166685982Y-85554604D01*
X166751006Y-85875777D01*
X166819677Y-86217429D01*
X166892936Y-86584182D01*
X166971724Y-86980658D01*
X167056981Y-87411477D01*
X167108469Y-87672333D01*
X167160164Y-87931906D01*
X167211733Y-88185321D01*
X167264438Y-88438362D01*
X167319542Y-88696812D01*
X167378307Y-88966456D01*
X167441996Y-89253076D01*
X167511871Y-89562457D01*
X167589197Y-89900383D01*
X167675234Y-90272637D01*
X167690721Y-90339333D01*
X167759800Y-90638376D01*
X167823070Y-90916276D01*
X167882124Y-91180526D01*
X167938554Y-91438619D01*
X167993954Y-91698049D01*
X168049916Y-91966310D01*
X168108033Y-92250894D01*
X168169899Y-92559296D01*
X168237106Y-92899010D01*
X168264419Y-93038083D01*
X168309756Y-93267102D01*
X168361951Y-93526978D01*
X168418848Y-93807203D01*
X168478291Y-94097271D01*
X168538123Y-94386675D01*
X168596190Y-94664910D01*
X168650334Y-94921467D01*
X168666208Y-94996000D01*
X168727518Y-95283809D01*
X168782859Y-95545260D01*
X168833564Y-95786983D01*
X168880967Y-96015612D01*
X168926402Y-96237777D01*
X168971202Y-96460110D01*
X169016703Y-96689243D01*
X169064236Y-96931807D01*
X169115137Y-97194434D01*
X169170738Y-97483755D01*
X169232374Y-97806404D01*
X169248988Y-97893606D01*
X169341846Y-98375402D01*
X169429871Y-98820291D01*
X169512839Y-99227180D01*
X169590525Y-99594978D01*
X169662704Y-99922590D01*
X169702750Y-100097166D01*
X169769047Y-100387658D01*
X169827279Y-100657761D01*
X169879244Y-100917414D01*
X169926737Y-101176554D01*
X169971555Y-101445121D01*
X170015494Y-101733053D01*
X170060351Y-102050287D01*
X170074189Y-102152167D01*
X170092183Y-102282060D01*
X170115579Y-102445316D01*
X170143121Y-102633492D01*
X170173557Y-102838143D01*
X170205632Y-103050827D01*
X170238091Y-103263100D01*
X170264399Y-103432750D01*
X170320659Y-103794674D01*
X170370436Y-104119079D01*
X170414263Y-104410196D01*
X170452670Y-104672255D01*
X170486187Y-104909487D01*
X170515345Y-105126122D01*
X170540675Y-105326389D01*
X170562706Y-105514520D01*
X170581970Y-105694744D01*
X170598998Y-105871292D01*
X170614319Y-106048394D01*
X170628465Y-106230280D01*
X170641966Y-106421180D01*
X170645137Y-106468333D01*
X170677377Y-106987571D01*
X170707587Y-107547505D01*
X170735706Y-108146542D01*
X170761672Y-108783092D01*
X170785424Y-109455560D01*
X170806899Y-110162357D01*
X170826037Y-110901889D01*
X170838099Y-111442500D01*
X170842903Y-111708004D01*
X170846818Y-111998757D01*
X170849865Y-112310792D01*
X170852068Y-112640139D01*
X170853449Y-112982831D01*
X170854031Y-113334899D01*
X170853838Y-113692374D01*
X170852892Y-114051289D01*
X170851216Y-114407675D01*
X170848833Y-114757564D01*
X170845766Y-115096988D01*
X170842039Y-115421978D01*
X170837673Y-115728565D01*
X170832691Y-116012783D01*
X170827118Y-116270661D01*
X170820975Y-116498233D01*
X170814286Y-116691530D01*
X170807073Y-116846582D01*
X170806850Y-116850583D01*
X170745517Y-117775633D01*
X170666863Y-118667108D01*
X170570068Y-119530417D01*
X170454312Y-120370970D01*
X170318776Y-121194177D01*
X170162640Y-122005448D01*
X169985083Y-122810191D01*
X169785286Y-123613817D01*
X169777066Y-123645083D01*
X169706212Y-123909072D01*
X169623906Y-124207105D01*
X169531957Y-124533024D01*
X169432178Y-124880672D01*
X169326381Y-125243890D01*
X169216378Y-125616522D01*
X169103979Y-125992409D01*
X168990998Y-126365395D01*
X168879246Y-126729320D01*
X168770534Y-127078029D01*
X168718308Y-127243416D01*
X168601096Y-127607495D01*
X168492330Y-127933565D01*
X168390707Y-128224816D01*
X168294929Y-128484437D01*
X168203692Y-128715614D01*
X168115698Y-128921538D01*
X168029643Y-129105395D01*
X167944229Y-129270376D01*
X167858153Y-129419667D01*
X167781226Y-129540000D01*
X167670445Y-129686279D01*
X167535872Y-129834154D01*
X167388586Y-129972990D01*
X167239666Y-130092151D01*
X167132323Y-130162944D01*
X166923422Y-130272854D01*
X166689301Y-130374118D01*
X166443788Y-130461834D01*
X166200713Y-130531100D01*
X165973904Y-130577014D01*
X165957250Y-130579478D01*
X165909315Y-130583408D01*
X165823660Y-130587265D01*
X165704897Y-130591006D01*
X165557636Y-130594586D01*
X165386492Y-130597961D01*
X165196076Y-130601087D01*
X164991000Y-130603921D01*
X164775877Y-130606419D01*
X164555320Y-130608537D01*
X164333939Y-130610230D01*
X164116349Y-130611456D01*
X163907160Y-130612169D01*
X163710986Y-130612326D01*
X163532439Y-130611884D01*
X163376130Y-130610798D01*
X163246673Y-130609025D01*
X163148679Y-130606520D01*
X163142083Y-130606277D01*
X163083236Y-130604297D01*
X162987770Y-130601397D01*
X162861387Y-130597739D01*
X162709788Y-130593480D01*
X162538674Y-130588780D01*
X162353746Y-130583800D01*
X162160705Y-130578700D01*
X162115500Y-130577519D01*
X161892743Y-130571624D01*
X161652081Y-130565091D01*
X161404030Y-130558216D01*
X161159110Y-130551296D01*
X160927837Y-130544627D01*
X160720731Y-130538505D01*
X160591500Y-130534573D01*
X160428163Y-130529541D01*
X160230606Y-130523488D01*
X160006922Y-130516659D01*
X159765206Y-130509301D01*
X159513551Y-130501659D01*
X159260052Y-130493981D01*
X159012801Y-130486511D01*
X158855833Y-130481781D01*
X158598959Y-130474013D01*
X158315181Y-130465366D01*
X158015390Y-130456177D01*
X157710479Y-130446782D01*
X157411340Y-130437517D01*
X157128862Y-130428717D01*
X156873940Y-130420718D01*
X156792083Y-130418133D01*
X156578368Y-130411376D01*
X156330438Y-130403546D01*
X156056390Y-130394896D01*
X155764319Y-130385684D01*
X155462323Y-130376163D01*
X155158499Y-130366590D01*
X154860944Y-130357219D01*
X154577754Y-130348306D01*
X154453166Y-130344387D01*
X154195591Y-130336255D01*
X153932710Y-130327897D01*
X153670652Y-130319512D01*
X153415544Y-130311298D01*
X153173516Y-130303454D01*
X152950697Y-130296179D01*
X152753214Y-130289669D01*
X152587196Y-130284125D01*
X152484666Y-130280639D01*
X152366333Y-130276594D01*
X152210193Y-130271297D01*
X152020752Y-130264898D01*
X151802513Y-130257549D01*
X151559981Y-130249401D01*
X151297660Y-130240605D01*
X151020054Y-130231312D01*
X150731667Y-130221673D01*
X150437003Y-130211840D01*
X150140567Y-130201962D01*
X149987000Y-130196852D01*
X149702126Y-130187331D01*
X149424393Y-130177963D01*
X149157403Y-130168874D01*
X148904761Y-130160191D01*
X148670070Y-130152039D01*
X148456932Y-130144546D01*
X148268952Y-130137838D01*
X148109732Y-130132041D01*
X147982876Y-130127283D01*
X147891988Y-130123688D01*
X147849166Y-130121812D01*
X147789239Y-130119750D01*
X147690443Y-130117382D01*
X147556243Y-130114755D01*
X147390103Y-130111919D01*
X147195485Y-130108924D01*
X146975855Y-130105816D01*
X146734675Y-130102647D01*
X146475410Y-130099463D01*
X146201523Y-130096315D01*
X145916478Y-130093250D01*
X145623738Y-130090319D01*
X145594916Y-130090042D01*
X145416354Y-130088330D01*
X145245285Y-130086671D01*
X145080520Y-130085029D01*
X144920867Y-130083370D01*
X144765137Y-130081661D01*
X144612137Y-130079867D01*
X144460679Y-130077953D01*
X144309570Y-130075885D01*
X144157621Y-130073630D01*
X144003642Y-130071153D01*
X143846440Y-130068419D01*
X143684826Y-130065395D01*
X143517610Y-130062047D01*
X143343600Y-130058339D01*
X143161605Y-130054238D01*
X142970437Y-130049710D01*
X142768902Y-130044720D01*
X142555812Y-130039234D01*
X142329976Y-130033218D01*
X142090202Y-130026638D01*
X141835301Y-130019459D01*
X141564081Y-130011647D01*
X141275353Y-130003169D01*
X140967925Y-129993989D01*
X140640606Y-129984073D01*
X140292208Y-129973388D01*
X139921537Y-129961899D01*
X139527405Y-129949572D01*
X139108620Y-129936372D01*
X138663992Y-129922266D01*
X138192331Y-129907218D01*
X137692445Y-129891196D01*
X137163144Y-129874164D01*
X136603237Y-129856089D01*
X136011534Y-129836936D01*
X135386845Y-129816671D01*
X134727978Y-129795259D01*
X134033743Y-129772667D01*
X133302949Y-129748861D01*
X132534406Y-129723805D01*
X131726924Y-129697466D01*
X130879311Y-129669810D01*
X130143250Y-129645790D01*
X129937707Y-129639111D01*
X129694890Y-129631267D01*
X129419840Y-129622420D01*
X129117595Y-129612730D01*
X128793195Y-129602358D01*
X128451679Y-129591465D01*
X128098086Y-129580212D01*
X127737456Y-129568758D01*
X127374827Y-129557265D01*
X127015240Y-129545893D01*
X126663733Y-129534803D01*
X126492000Y-129529395D01*
X126150063Y-129518582D01*
X125800011Y-129507410D01*
X125446612Y-129496037D01*
X125094631Y-129484620D01*
X124748835Y-129473316D01*
X124413990Y-129462284D01*
X124094863Y-129451681D01*
X123796220Y-129441663D01*
X123522828Y-129432388D01*
X123279454Y-129424014D01*
X123070863Y-129416699D01*
X122967750Y-129413004D01*
X122723941Y-129404193D01*
X122472138Y-129395116D01*
X122219437Y-129386026D01*
X121972931Y-129377178D01*
X121739715Y-129368826D01*
X121526885Y-129361225D01*
X121341535Y-129354629D01*
X121190759Y-129349292D01*
X121179166Y-129348883D01*
X121061957Y-129345293D01*
X120906838Y-129341391D01*
X120718229Y-129337250D01*
X120500552Y-129332948D01*
X120258228Y-129328557D01*
X119995679Y-129324155D01*
X119717325Y-129319815D01*
X119427588Y-129315614D01*
X119130888Y-129311625D01*
X118831648Y-129307925D01*
X118639166Y-129305724D01*
X118354400Y-129302480D01*
X118079168Y-129299156D01*
X117816762Y-129295802D01*
X117570477Y-129292470D01*
X117343607Y-129289209D01*
X117139444Y-129286071D01*
X116961282Y-129283105D01*
X116812415Y-129280362D01*
X116696137Y-129277894D01*
X116615741Y-129275750D01*
X116575416Y-129274046D01*
X116228614Y-129248866D01*
X115919847Y-129225096D01*
X115644861Y-129202242D01*
X115399400Y-129179810D01*
X115179211Y-129157305D01*
X114980038Y-129134234D01*
X114797626Y-129110101D01*
X114627720Y-129084413D01*
X114466065Y-129056676D01*
X114308408Y-129026394D01*
X114150491Y-128993074D01*
X114143399Y-128991515D01*
X113893764Y-128930267D01*
X113682774Y-128864039D01*
X113506829Y-128790630D01*
X113362334Y-128707839D01*
X113245689Y-128613464D01*
X113153297Y-128505304D01*
X113081561Y-128381157D01*
X113058238Y-128327514D01*
X113033726Y-128258436D01*
X113016600Y-128187321D01*
X113004964Y-128102489D01*
X112996924Y-127992262D01*
X112993978Y-127931333D01*
X112993139Y-127753272D01*
X113005932Y-127559348D01*
X113032973Y-127346786D01*
X113074879Y-127112811D01*
X113132266Y-126854646D01*
X113205751Y-126569518D01*
X113295950Y-126254650D01*
X113403481Y-125907267D01*
X113528111Y-125527119D01*
X113631015Y-125215358D01*
X113719550Y-124934976D01*
X113795624Y-124678272D01*
X113861143Y-124437545D01*
X113918015Y-124205093D01*
X113968147Y-123973217D01*
X114013445Y-123734214D01*
X114055816Y-123480385D01*
X114088507Y-123264083D01*
X114100660Y-123183729D01*
X114118954Y-123067072D01*
X114142507Y-122919554D01*
X114170434Y-122746619D01*
X114201852Y-122553709D01*
X114235878Y-122346268D01*
X114271629Y-122129738D01*
X114308222Y-121909563D01*
X114311778Y-121888250D01*
X114431752Y-121152432D01*
X114540811Y-120448426D01*
X114638753Y-119777704D01*
X114725376Y-119141738D01*
X114800481Y-118542001D01*
X114863866Y-117979966D01*
X114912742Y-117485583D01*
X114936075Y-117218160D01*
X114957059Y-116951216D01*
X114975756Y-116681877D01*
X114992232Y-116407270D01*
X115006548Y-116124521D01*
X115018770Y-115830758D01*
X115028960Y-115523108D01*
X115037182Y-115198697D01*
X115043500Y-114854652D01*
X115047977Y-114488100D01*
X115050676Y-114096168D01*
X115051662Y-113675982D01*
X115050998Y-113224670D01*
X115048747Y-112739359D01*
X115044974Y-112217174D01*
X115040371Y-111717666D01*
X115037100Y-111407152D01*
X115033553Y-111099971D01*
X115029792Y-110799875D01*
X115025876Y-110510611D01*
X115021865Y-110235931D01*
X115017820Y-109979582D01*
X115013801Y-109745315D01*
X115009868Y-109536878D01*
X115006080Y-109358023D01*
X115002499Y-109212497D01*
X114999184Y-109104051D01*
X114997943Y-109071833D01*
X114981716Y-108738642D01*
X114959713Y-108374684D01*
X114931826Y-107978727D01*
X114897945Y-107549543D01*
X114857960Y-107085899D01*
X114811760Y-106586567D01*
X114759235Y-106050315D01*
X114700277Y-105475914D01*
X114634774Y-104862133D01*
X114565692Y-104235250D01*
X114535630Y-103966782D01*
X114509699Y-103736818D01*
X114487434Y-103541778D01*
X114468370Y-103378081D01*
X114452043Y-103242148D01*
X114437987Y-103130399D01*
X114425738Y-103039255D01*
X114414830Y-102965135D01*
X114404800Y-102904460D01*
X114395180Y-102853650D01*
X114385508Y-102809125D01*
X114375318Y-102767305D01*
X114374774Y-102765169D01*
X114359089Y-102700069D01*
X114343519Y-102626956D01*
X114327474Y-102541949D01*
X114310368Y-102441167D01*
X114291611Y-102320728D01*
X114270615Y-102176752D01*
X114246793Y-102005356D01*
X114219557Y-101802661D01*
X114188318Y-101564784D01*
X114161344Y-101356583D01*
X114117244Y-101017307D01*
X114076536Y-100710714D01*
X114038187Y-100430540D01*
X114001167Y-100170520D01*
X113964444Y-99924389D01*
X113926986Y-99685885D01*
X113887762Y-99448741D01*
X113845740Y-99206694D01*
X113799888Y-98953480D01*
X113749176Y-98682833D01*
X113692571Y-98388491D01*
X113629041Y-98064188D01*
X113570524Y-97768833D01*
X113524475Y-97536278D01*
X113472162Y-97270368D01*
X113415186Y-96979342D01*
X113355150Y-96671439D01*
X113293655Y-96354901D01*
X113232303Y-96037968D01*
X113172697Y-95728878D01*
X113116438Y-95435873D01*
X113084802Y-95270411D01*
X113006427Y-94861162D01*
X112934804Y-94490370D01*
X112869246Y-94154815D01*
X112809068Y-93851280D01*
X112753583Y-93576546D01*
X112702107Y-93327394D01*
X112653952Y-93100607D01*
X112608434Y-92892965D01*
X112564865Y-92701249D01*
X112522562Y-92522243D01*
X112480836Y-92352726D01*
X112439003Y-92189481D01*
X112396377Y-92029289D01*
X112385787Y-91990333D01*
X112324243Y-91761190D01*
X112273921Y-91564211D01*
X112233271Y-91391201D01*
X112200744Y-91233964D01*
X112174789Y-91084304D01*
X112153856Y-90934025D01*
X112136394Y-90774931D01*
X112120855Y-90598825D01*
X112119568Y-90582750D01*
X112106773Y-90436301D01*
X112091751Y-90295484D01*
X112073508Y-90154839D01*
X112051050Y-90008910D01*
X112023382Y-89852236D01*
X111989510Y-89679360D01*
X111948440Y-89484824D01*
X111899178Y-89263169D01*
X111840729Y-89008937D01*
X111805345Y-88857666D01*
X111751234Y-88624697D01*
X111701877Y-88405792D01*
X111656198Y-88195233D01*
X111613124Y-87987305D01*
X111571580Y-87776289D01*
X111530492Y-87556468D01*
X111488787Y-87322126D01*
X111445389Y-87067544D01*
X111399225Y-86787006D01*
X111349219Y-86474794D01*
X111305988Y-86200040D01*
X111249332Y-85843663D01*
X111195201Y-85516655D01*
X111141739Y-85209224D01*
X111087088Y-84911576D01*
X111029392Y-84613918D01*
X110966793Y-84306458D01*
X110897434Y-83979403D01*
X110819458Y-83622960D01*
X110804473Y-83555416D01*
X110729785Y-83217107D01*
X110663477Y-82911384D01*
X110603848Y-82629717D01*
X110549199Y-82363575D01*
X110497827Y-82104429D01*
X110448034Y-81843748D01*
X110398119Y-81573003D01*
X110346380Y-81283664D01*
X110308662Y-81068333D01*
X110220223Y-80566572D01*
X110135210Y-80098316D01*
X110052003Y-79655034D01*
X109968986Y-79228199D01*
X109884538Y-78809283D01*
X109831516Y-78553432D01*
X109741600Y-78114494D01*
X109662234Y-77705561D01*
X109591725Y-77316112D01*
X109528383Y-76935626D01*
X109470517Y-76553584D01*
X109416435Y-76159463D01*
X109364447Y-75742745D01*
X109325191Y-75403522D01*
X109293517Y-75125037D01*
X109265056Y-74882725D01*
X109238964Y-74670623D01*
X109214399Y-74482764D01*
X109190515Y-74313185D01*
X109166471Y-74155921D01*
X109141421Y-74005007D01*
X109114522Y-73854477D01*
X109084932Y-73698368D01*
X109081586Y-73681166D01*
X109048266Y-73507138D01*
X109020223Y-73352421D01*
X108996250Y-73208307D01*
X108975137Y-73066085D01*
X108955676Y-72917048D01*
X108936660Y-72752485D01*
X108916880Y-72563687D01*
X108895127Y-72341945D01*
X108893646Y-72326500D01*
X108858073Y-71931411D01*
X108826034Y-71524770D01*
X108797393Y-71103323D01*
X108772014Y-70663813D01*
X108749759Y-70202985D01*
X108730492Y-69717584D01*
X108714075Y-69204354D01*
X108700373Y-68660040D01*
X108689249Y-68081387D01*
X108680564Y-67465139D01*
X108677499Y-67183000D01*
X108674586Y-66760266D01*
X108673981Y-66318279D01*
X108674270Y-66235306D01*
X109866429Y-66235306D01*
X109868210Y-66936117D01*
X109874286Y-67626449D01*
X109884700Y-68301041D01*
X109899498Y-68954627D01*
X109918724Y-69581945D01*
X109942422Y-70177731D01*
X109951331Y-70368583D01*
X109977024Y-70859537D01*
X110004555Y-71310290D01*
X110034129Y-71722946D01*
X110065948Y-72099605D01*
X110100215Y-72442369D01*
X110137133Y-72753340D01*
X110176906Y-73034620D01*
X110219736Y-73288311D01*
X110246782Y-73427166D01*
X110290928Y-73659734D01*
X110336044Y-73932035D01*
X110381760Y-74241493D01*
X110427707Y-74585528D01*
X110473516Y-74961564D01*
X110500018Y-75194583D01*
X110528689Y-75449819D01*
X110555879Y-75683886D01*
X110582365Y-75901538D01*
X110608922Y-76107527D01*
X110636328Y-76306607D01*
X110665358Y-76503533D01*
X110696789Y-76703057D01*
X110731397Y-76909934D01*
X110769958Y-77128917D01*
X110813249Y-77364760D01*
X110862046Y-77622215D01*
X110917125Y-77906038D01*
X110979263Y-78220982D01*
X111049236Y-78571800D01*
X111061729Y-78634166D01*
X111113201Y-78893181D01*
X111166804Y-79166940D01*
X111221087Y-79447786D01*
X111274601Y-79728065D01*
X111325897Y-80000120D01*
X111373525Y-80256296D01*
X111416036Y-80488936D01*
X111451979Y-80690386D01*
X111462518Y-80750833D01*
X111512663Y-81038155D01*
X111559579Y-81301307D01*
X111604744Y-81547726D01*
X111649634Y-81784850D01*
X111695726Y-82020116D01*
X111744496Y-82260961D01*
X111797422Y-82514822D01*
X111855979Y-82789136D01*
X111921645Y-83091340D01*
X111979439Y-83354333D01*
X112053126Y-83691358D01*
X112118611Y-83998015D01*
X112177539Y-84283052D01*
X112231555Y-84555219D01*
X112282306Y-84823266D01*
X112331436Y-85095941D01*
X112380592Y-85381993D01*
X112431419Y-85690173D01*
X112485562Y-86029228D01*
X112500957Y-86127166D01*
X112560421Y-86500911D01*
X112616257Y-86839335D01*
X112669737Y-87149166D01*
X112722133Y-87437133D01*
X112774719Y-87709962D01*
X112828767Y-87974382D01*
X112885549Y-88237121D01*
X112946338Y-88504906D01*
X112969407Y-88603666D01*
X113038721Y-88902081D01*
X113097770Y-89165085D01*
X113147532Y-89398082D01*
X113188980Y-89606474D01*
X113223089Y-89795667D01*
X113250835Y-89971062D01*
X113273191Y-90138064D01*
X113291134Y-90302076D01*
X113305470Y-90466333D01*
X113317978Y-90614314D01*
X113331892Y-90746234D01*
X113348748Y-90870234D01*
X113370084Y-90994455D01*
X113397438Y-91127039D01*
X113432347Y-91276127D01*
X113476348Y-91449860D01*
X113528312Y-91646423D01*
X113575518Y-91825413D01*
X113621631Y-92006086D01*
X113667308Y-92191536D01*
X113713202Y-92384858D01*
X113759967Y-92589146D01*
X113808259Y-92807496D01*
X113858731Y-93043002D01*
X113912039Y-93298759D01*
X113968835Y-93577861D01*
X114029775Y-93883403D01*
X114095514Y-94218480D01*
X114166705Y-94586186D01*
X114244003Y-94989616D01*
X114321677Y-95398166D01*
X114355018Y-95573015D01*
X114395234Y-95782153D01*
X114440917Y-96018356D01*
X114490661Y-96274400D01*
X114543056Y-96543057D01*
X114596696Y-96817104D01*
X114650174Y-97089316D01*
X114702080Y-97352466D01*
X114723741Y-97461916D01*
X114797024Y-97833422D01*
X114862446Y-98169116D01*
X114920935Y-98474597D01*
X114973417Y-98755466D01*
X115020820Y-99017322D01*
X115064069Y-99265764D01*
X115104092Y-99506393D01*
X115141816Y-99744806D01*
X115178167Y-99986605D01*
X115214073Y-100237389D01*
X115250460Y-100502756D01*
X115288254Y-100788307D01*
X115328383Y-101099642D01*
X115336846Y-101166083D01*
X115370367Y-101427907D01*
X115399567Y-101651629D01*
X115425042Y-101841195D01*
X115447386Y-102000549D01*
X115467195Y-102133637D01*
X115485065Y-102244404D01*
X115501592Y-102336794D01*
X115517370Y-102414754D01*
X115532994Y-102482227D01*
X115539179Y-102506565D01*
X115552847Y-102563695D01*
X115566607Y-102631644D01*
X115580948Y-102714025D01*
X115596358Y-102814453D01*
X115613327Y-102936541D01*
X115632344Y-103083905D01*
X115653897Y-103260157D01*
X115678476Y-103468911D01*
X115706569Y-103713783D01*
X115727233Y-103896583D01*
X115794182Y-104498246D01*
X115855178Y-105060949D01*
X115910462Y-105587610D01*
X115960274Y-106081145D01*
X116004857Y-106544473D01*
X116044450Y-106980511D01*
X116079297Y-107392176D01*
X116109637Y-107782387D01*
X116135711Y-108154060D01*
X116157762Y-108510113D01*
X116176030Y-108853464D01*
X116190756Y-109187030D01*
X116202181Y-109513729D01*
X116207532Y-109706833D01*
X116211749Y-109898667D01*
X116215606Y-110120798D01*
X116219102Y-110369984D01*
X116222236Y-110642984D01*
X116225007Y-110936558D01*
X116227414Y-111247466D01*
X116229455Y-111572466D01*
X116231130Y-111908317D01*
X116232437Y-112251780D01*
X116233375Y-112599613D01*
X116233943Y-112948575D01*
X116234141Y-113295427D01*
X116233966Y-113636926D01*
X116233417Y-113969833D01*
X116232495Y-114290906D01*
X116231196Y-114596906D01*
X116229521Y-114884590D01*
X116227469Y-115150719D01*
X116225037Y-115392052D01*
X116222225Y-115605347D01*
X116219031Y-115787365D01*
X116215456Y-115934865D01*
X116211497Y-116044605D01*
X116209758Y-116078000D01*
X116177054Y-116586381D01*
X116139384Y-117089272D01*
X116096211Y-117591025D01*
X116046998Y-118095993D01*
X115991206Y-118608525D01*
X115928298Y-119132976D01*
X115857736Y-119673696D01*
X115778983Y-120235037D01*
X115691500Y-120821351D01*
X115594749Y-121436991D01*
X115488194Y-122086307D01*
X115410696Y-122544416D01*
X115381475Y-122717584D01*
X115351309Y-122900439D01*
X115322026Y-123081608D01*
X115295453Y-123249723D01*
X115273418Y-123393412D01*
X115264378Y-123454583D01*
X115218859Y-123752742D01*
X115171561Y-124028176D01*
X115120473Y-124289072D01*
X115063586Y-124543617D01*
X114998890Y-124799999D01*
X114924377Y-125066407D01*
X114838037Y-125351028D01*
X114737860Y-125662051D01*
X114680003Y-125835833D01*
X114617988Y-126022683D01*
X114556624Y-126211775D01*
X114498191Y-126395775D01*
X114444971Y-126567354D01*
X114399245Y-126719178D01*
X114363293Y-126843918D01*
X114343818Y-126916454D01*
X114315599Y-127032306D01*
X114286864Y-127158878D01*
X114258922Y-127289372D01*
X114233081Y-127416990D01*
X114210650Y-127534934D01*
X114192937Y-127636406D01*
X114181252Y-127714608D01*
X114176903Y-127762742D01*
X114178606Y-127774662D01*
X114201036Y-127781798D01*
X114256445Y-127795614D01*
X114336386Y-127814092D01*
X114428257Y-127834319D01*
X114695294Y-127885498D01*
X115003588Y-127932936D01*
X115352220Y-127976530D01*
X115740272Y-128016175D01*
X116166823Y-128051764D01*
X116586000Y-128080436D01*
X116659172Y-128083849D01*
X116770987Y-128087519D01*
X116917756Y-128091381D01*
X117095791Y-128095370D01*
X117301401Y-128099420D01*
X117530898Y-128103467D01*
X117780592Y-128107444D01*
X118046796Y-128111287D01*
X118325819Y-128114931D01*
X118613973Y-128118310D01*
X118893166Y-128121219D01*
X119183920Y-128124170D01*
X119467164Y-128127260D01*
X119739421Y-128130439D01*
X119997212Y-128133656D01*
X120237061Y-128136862D01*
X120455490Y-128140006D01*
X120649019Y-128143038D01*
X120814173Y-128145908D01*
X120947472Y-128148566D01*
X121045439Y-128150963D01*
X121104596Y-128153047D01*
X121105083Y-128153071D01*
X121228755Y-128158817D01*
X121394704Y-128165780D01*
X121602889Y-128173958D01*
X121853270Y-128183351D01*
X122145807Y-128193958D01*
X122480461Y-128205776D01*
X122857192Y-128218804D01*
X123275960Y-128233041D01*
X123736725Y-128248486D01*
X124239447Y-128265138D01*
X124784087Y-128282994D01*
X125370604Y-128302054D01*
X125998959Y-128322317D01*
X126669112Y-128343780D01*
X127381023Y-128366443D01*
X128026583Y-128386890D01*
X128219291Y-128393005D01*
X128451268Y-128400407D01*
X128719472Y-128408998D01*
X129020862Y-128418679D01*
X129352397Y-128429353D01*
X129711035Y-128440920D01*
X130093734Y-128453282D01*
X130497453Y-128466341D01*
X130919150Y-128479999D01*
X131355783Y-128494156D01*
X131804312Y-128508714D01*
X132261694Y-128523575D01*
X132724889Y-128538641D01*
X133190853Y-128553813D01*
X133656547Y-128568992D01*
X134118928Y-128584080D01*
X134228416Y-128587656D01*
X134976224Y-128612061D01*
X135683321Y-128635096D01*
X136351307Y-128656803D01*
X136981780Y-128677227D01*
X137576339Y-128696412D01*
X138136583Y-128714401D01*
X138664112Y-128731237D01*
X139160524Y-128746966D01*
X139627418Y-128761630D01*
X140066394Y-128775273D01*
X140479050Y-128787940D01*
X140866984Y-128799674D01*
X141231798Y-128810518D01*
X141575088Y-128820517D01*
X141898455Y-128829715D01*
X142203496Y-128838155D01*
X142491813Y-128845880D01*
X142765002Y-128852936D01*
X143024663Y-128859365D01*
X143272396Y-128865211D01*
X143509798Y-128870519D01*
X143738470Y-128875332D01*
X143960010Y-128879693D01*
X144176018Y-128883647D01*
X144388091Y-128887238D01*
X144597829Y-128890508D01*
X144806832Y-128893503D01*
X145016698Y-128896265D01*
X145229026Y-128898840D01*
X145445414Y-128901269D01*
X145667464Y-128903598D01*
X145817166Y-128905093D01*
X146125671Y-128908402D01*
X146439348Y-128912289D01*
X146753258Y-128916663D01*
X147062460Y-128921436D01*
X147362016Y-128926516D01*
X147646986Y-128931813D01*
X147912431Y-128937237D01*
X148153411Y-128942699D01*
X148364987Y-128948106D01*
X148542219Y-128953371D01*
X148632333Y-128956510D01*
X148920816Y-128967166D01*
X149248705Y-128978968D01*
X149613089Y-128991821D01*
X150011058Y-129005634D01*
X150439704Y-129020315D01*
X150896115Y-129035770D01*
X151377383Y-129051908D01*
X151880596Y-129068636D01*
X152402846Y-129085862D01*
X152941222Y-129103493D01*
X153492814Y-129121436D01*
X154054713Y-129139600D01*
X154624009Y-129157892D01*
X155197792Y-129176220D01*
X155773152Y-129194490D01*
X156347178Y-129212611D01*
X156916962Y-129230490D01*
X157479594Y-129248035D01*
X158032162Y-129265154D01*
X158571759Y-129281753D01*
X159095473Y-129297741D01*
X159600395Y-129313025D01*
X160083614Y-129327512D01*
X160542222Y-129341111D01*
X160973308Y-129353729D01*
X161373963Y-129365272D01*
X161741276Y-129375650D01*
X162072337Y-129384769D01*
X162337750Y-129391847D01*
X162534569Y-129396997D01*
X162725913Y-129402012D01*
X162905885Y-129406736D01*
X163068586Y-129411014D01*
X163208119Y-129414691D01*
X163318585Y-129417612D01*
X163394086Y-129419621D01*
X163406666Y-129419959D01*
X163565166Y-129423465D01*
X163746509Y-129426167D01*
X163945036Y-129428088D01*
X164155091Y-129429249D01*
X164371015Y-129429673D01*
X164587150Y-129429381D01*
X164797839Y-129428395D01*
X164997424Y-129426737D01*
X165180246Y-129424430D01*
X165340648Y-129421493D01*
X165472972Y-129417951D01*
X165571561Y-129413823D01*
X165607554Y-129411458D01*
X165878698Y-129375895D01*
X166125141Y-129315307D01*
X166343730Y-129230899D01*
X166531306Y-129123880D01*
X166678149Y-129002120D01*
X166748948Y-128922138D01*
X166820181Y-128823188D01*
X166892798Y-128703013D01*
X166967750Y-128559353D01*
X167045988Y-128389948D01*
X167128464Y-128192538D01*
X167216128Y-127964866D01*
X167309932Y-127704671D01*
X167410827Y-127409694D01*
X167519764Y-127077676D01*
X167617536Y-126770553D01*
X167815383Y-126136350D01*
X167998258Y-125538323D01*
X168166915Y-124973347D01*
X168322111Y-124438294D01*
X168464601Y-123930040D01*
X168595141Y-123445457D01*
X168714486Y-122981419D01*
X168823392Y-122534800D01*
X168922615Y-122102474D01*
X169012911Y-121681315D01*
X169095035Y-121268196D01*
X169169743Y-120859990D01*
X169237791Y-120453573D01*
X169299934Y-120045817D01*
X169356928Y-119633595D01*
X169373339Y-119507000D01*
X169422654Y-119106758D01*
X169466388Y-118720231D01*
X169504855Y-118342167D01*
X169538369Y-117967319D01*
X169567243Y-117590437D01*
X169591791Y-117206272D01*
X169612327Y-116809575D01*
X169629164Y-116395097D01*
X169642617Y-115957588D01*
X169652999Y-115491801D01*
X169660624Y-114992484D01*
X169664327Y-114638666D01*
X169667428Y-114117305D01*
X169667783Y-113580656D01*
X169665497Y-113032108D01*
X169660676Y-112475054D01*
X169653424Y-111912883D01*
X169643848Y-111348988D01*
X169632052Y-110786759D01*
X169618143Y-110229586D01*
X169602224Y-109680862D01*
X169584402Y-109143977D01*
X169564782Y-108622322D01*
X169543469Y-108119288D01*
X169520568Y-107638266D01*
X169496186Y-107182647D01*
X169470426Y-106755823D01*
X169443394Y-106361183D01*
X169415197Y-106002119D01*
X169386250Y-105685166D01*
X169376286Y-105588677D01*
X169365109Y-105489060D01*
X169352172Y-105382497D01*
X169336927Y-105265173D01*
X169318827Y-105133271D01*
X169297325Y-104982973D01*
X169271873Y-104810463D01*
X169241924Y-104611925D01*
X169206932Y-104383542D01*
X169166348Y-104121497D01*
X169119625Y-103821973D01*
X169113085Y-103780166D01*
X169079599Y-103564409D01*
X169044929Y-103337810D01*
X169010386Y-103109159D01*
X168977281Y-102887250D01*
X168946928Y-102680873D01*
X168920636Y-102498821D01*
X168899929Y-102351416D01*
X168852804Y-102018113D01*
X168807711Y-101719490D01*
X168763343Y-101448024D01*
X168718396Y-101196195D01*
X168671567Y-100956479D01*
X168621550Y-100721355D01*
X168602633Y-100636916D01*
X168524846Y-100290243D01*
X168450043Y-99948717D01*
X168376706Y-99604990D01*
X168303316Y-99251714D01*
X168228356Y-98881544D01*
X168150305Y-98487130D01*
X168067646Y-98061126D01*
X168033911Y-97885250D01*
X167959432Y-97497328D01*
X167890872Y-97143668D01*
X167826730Y-96816855D01*
X167765501Y-96509474D01*
X167705683Y-96214109D01*
X167645771Y-95923345D01*
X167584263Y-95629767D01*
X167519656Y-95325959D01*
X167450445Y-95004506D01*
X167441728Y-94964250D01*
X167407331Y-94803283D01*
X167366634Y-94609138D01*
X167321351Y-94390207D01*
X167273195Y-94154878D01*
X167223879Y-93911542D01*
X167175117Y-93668590D01*
X167128623Y-93434412D01*
X167111029Y-93345000D01*
X167033250Y-92950627D01*
X166961492Y-92591408D01*
X166894359Y-92260817D01*
X166830456Y-91952330D01*
X166768387Y-91659421D01*
X166706758Y-91375565D01*
X166644172Y-91094238D01*
X166579234Y-90808913D01*
X166510549Y-90513067D01*
X166454666Y-90275833D01*
X166352710Y-89839971D01*
X166257522Y-89421307D01*
X166166902Y-89009545D01*
X166078653Y-88594390D01*
X165990576Y-88165546D01*
X165900473Y-87712716D01*
X165830950Y-87354833D01*
X165740201Y-86887714D01*
X165647899Y-86421387D01*
X165552531Y-85948450D01*
X165452581Y-85461500D01*
X165346534Y-84953134D01*
X165232874Y-84415950D01*
X165153001Y-84042250D01*
X165061021Y-83611098D01*
X164977698Y-83215262D01*
X164901877Y-82848876D01*
X164832406Y-82506075D01*
X164768132Y-82180994D01*
X164707901Y-81867766D01*
X164650561Y-81560527D01*
X164594959Y-81253411D01*
X164539941Y-80940552D01*
X164516339Y-80803750D01*
X164481090Y-80601213D01*
X164439503Y-80367050D01*
X164393388Y-80111175D01*
X164344557Y-79843505D01*
X164294821Y-79573954D01*
X164245991Y-79312438D01*
X164199879Y-79068870D01*
X164189606Y-79015166D01*
X164012426Y-78068530D01*
X163848040Y-77143960D01*
X163696739Y-76243481D01*
X163558815Y-75369120D01*
X163434557Y-74522904D01*
X163324257Y-73706860D01*
X163228205Y-72923013D01*
X163146692Y-72173391D01*
X163080009Y-71460020D01*
X163047705Y-71056500D01*
X162997619Y-70325906D01*
X162955447Y-69583164D01*
X162921117Y-68831348D01*
X162894559Y-68073529D01*
X162875701Y-67312781D01*
X162864473Y-66552176D01*
X162860802Y-65794788D01*
X162864618Y-65043690D01*
X162875850Y-64301955D01*
X162894427Y-63572655D01*
X162920276Y-62858863D01*
X162953328Y-62163653D01*
X162993511Y-61490097D01*
X163040754Y-60841269D01*
X163094986Y-60220240D01*
X163156135Y-59630086D01*
X163224131Y-59073877D01*
X163298902Y-58554687D01*
X163343508Y-58282416D01*
X163363653Y-58169572D01*
X163391517Y-58020183D01*
X163426114Y-57839131D01*
X163466458Y-57631299D01*
X163511560Y-57401572D01*
X163560435Y-57154830D01*
X163612095Y-56895959D01*
X163665555Y-56629840D01*
X163719828Y-56361356D01*
X163773926Y-56095392D01*
X163826863Y-55836828D01*
X163877653Y-55590550D01*
X163925309Y-55361439D01*
X163968844Y-55154379D01*
X164007271Y-54974252D01*
X164039604Y-54825942D01*
X164062049Y-54726416D01*
X164175142Y-54252469D01*
X164301487Y-53750494D01*
X164438130Y-53231574D01*
X164582118Y-52706790D01*
X164730497Y-52187225D01*
X164815862Y-51897806D01*
X164919633Y-51543211D01*
X165007754Y-51226655D01*
X165080433Y-50946925D01*
X165137883Y-50702809D01*
X165180313Y-50493096D01*
X165207934Y-50316575D01*
X165220957Y-50172033D01*
X165219592Y-50058260D01*
X165204051Y-49974044D01*
X165174543Y-49918172D01*
X165162111Y-49906021D01*
X165100510Y-49871369D01*
X165002877Y-49836492D01*
X164875471Y-49803079D01*
X164724551Y-49772819D01*
X164592000Y-49752142D01*
X164506937Y-49742448D01*
X164400045Y-49734017D01*
X164267908Y-49726716D01*
X164107113Y-49720411D01*
X163914245Y-49714967D01*
X163685891Y-49710252D01*
X163418637Y-49706132D01*
X163417250Y-49706114D01*
X163161177Y-49703437D01*
X162904402Y-49702367D01*
X162642650Y-49702986D01*
X162371643Y-49705380D01*
X162087107Y-49709633D01*
X161784764Y-49715829D01*
X161460338Y-49724053D01*
X161109554Y-49734389D01*
X160728136Y-49746923D01*
X160311807Y-49761737D01*
X159988250Y-49773856D01*
X159283411Y-49800719D01*
X158618972Y-49826029D01*
X157993030Y-49849855D01*
X157403682Y-49872266D01*
X156849025Y-49893332D01*
X156327158Y-49913122D01*
X155836176Y-49931705D01*
X155374178Y-49949150D01*
X154939261Y-49965528D01*
X154529522Y-49980906D01*
X154143059Y-49995355D01*
X153777968Y-50008944D01*
X153432347Y-50021742D01*
X153104294Y-50033818D01*
X152791905Y-50045242D01*
X152493279Y-50056084D01*
X152206512Y-50066411D01*
X151929701Y-50076295D01*
X151660945Y-50085803D01*
X151398340Y-50095006D01*
X151139984Y-50103972D01*
X150883973Y-50112772D01*
X150628406Y-50121473D01*
X150371380Y-50130147D01*
X150110992Y-50138861D01*
X149845339Y-50147686D01*
X149572518Y-50156690D01*
X149290628Y-50165943D01*
X148997765Y-50175515D01*
X148692026Y-50185473D01*
X148674666Y-50186038D01*
X148135016Y-50203680D01*
X147632440Y-50220318D01*
X147162124Y-50236145D01*
X146719254Y-50251354D01*
X146299015Y-50266138D01*
X145896594Y-50280688D01*
X145507177Y-50295199D01*
X145125950Y-50309861D01*
X144748099Y-50324869D01*
X144368809Y-50340415D01*
X143983266Y-50356692D01*
X143586658Y-50373891D01*
X143174168Y-50392207D01*
X142740985Y-50411831D01*
X142282292Y-50432956D01*
X141793277Y-50455776D01*
X141269126Y-50480482D01*
X141001750Y-50493157D01*
X140434064Y-50519933D01*
X139904340Y-50544524D01*
X139408272Y-50567104D01*
X138941555Y-50587842D01*
X138499883Y-50606910D01*
X138078949Y-50624478D01*
X137674449Y-50640718D01*
X137282076Y-50655800D01*
X136897524Y-50669896D01*
X136516488Y-50683176D01*
X136134662Y-50695812D01*
X135747740Y-50707974D01*
X135351417Y-50719834D01*
X135138583Y-50725984D01*
X134518880Y-50744038D01*
X133937513Y-50761722D01*
X133390491Y-50779190D01*
X132873819Y-50796593D01*
X132383505Y-50814085D01*
X131915555Y-50831820D01*
X131465977Y-50849951D01*
X131030776Y-50868630D01*
X130605961Y-50888010D01*
X130187538Y-50908246D01*
X129771513Y-50929489D01*
X129614083Y-50937812D01*
X128798961Y-50980980D01*
X128003580Y-51022468D01*
X127229408Y-51062211D01*
X126477915Y-51100140D01*
X125750569Y-51136189D01*
X125048839Y-51170291D01*
X124374194Y-51202378D01*
X123728103Y-51232384D01*
X123112036Y-51260241D01*
X122527460Y-51285883D01*
X121975845Y-51309242D01*
X121458661Y-51330252D01*
X120977375Y-51348844D01*
X120533456Y-51364954D01*
X120128375Y-51378512D01*
X119763599Y-51389452D01*
X119655166Y-51392402D01*
X119023300Y-51409616D01*
X118431654Y-51426806D01*
X117878114Y-51444070D01*
X117360568Y-51461506D01*
X116876901Y-51479211D01*
X116425002Y-51497283D01*
X116002756Y-51515820D01*
X115608051Y-51534921D01*
X115238773Y-51554681D01*
X114892809Y-51575201D01*
X114568045Y-51596576D01*
X114262368Y-51618905D01*
X113973666Y-51642286D01*
X113699824Y-51666817D01*
X113675583Y-51669109D01*
X113471298Y-51689919D01*
X113263510Y-51713677D01*
X113059311Y-51739385D01*
X112865792Y-51766046D01*
X112690045Y-51792663D01*
X112539162Y-51818239D01*
X112420235Y-51841777D01*
X112379592Y-51851298D01*
X112306224Y-51871206D01*
X112260486Y-51891943D01*
X112228824Y-51924131D01*
X112197683Y-51978391D01*
X112184648Y-52004067D01*
X112154637Y-52064571D01*
X112125476Y-52125830D01*
X112096180Y-52190572D01*
X112065761Y-52261522D01*
X112033234Y-52341408D01*
X111997611Y-52432956D01*
X111957906Y-52538893D01*
X111913133Y-52661945D01*
X111862306Y-52804839D01*
X111804437Y-52970302D01*
X111738540Y-53161059D01*
X111663629Y-53379839D01*
X111578717Y-53629367D01*
X111482819Y-53912370D01*
X111374946Y-54231575D01*
X111322236Y-54387750D01*
X111227260Y-54669526D01*
X111144521Y-54916133D01*
X111072629Y-55132482D01*
X111010192Y-55323484D01*
X110955819Y-55494050D01*
X110908117Y-55649089D01*
X110865695Y-55793512D01*
X110827162Y-55932231D01*
X110791125Y-56070156D01*
X110756195Y-56212196D01*
X110720978Y-56363264D01*
X110684084Y-56528270D01*
X110644121Y-56712123D01*
X110599697Y-56919736D01*
X110584470Y-56991250D01*
X110484758Y-57467104D01*
X110396239Y-57905402D01*
X110318400Y-58309269D01*
X110250726Y-58681832D01*
X110192704Y-59026216D01*
X110143820Y-59345547D01*
X110103559Y-59642952D01*
X110071408Y-59921555D01*
X110046852Y-60184482D01*
X110036298Y-60325000D01*
X110001434Y-60883249D01*
X109970463Y-61478394D01*
X109943430Y-62105169D01*
X109920380Y-62758311D01*
X109901358Y-63432557D01*
X109886407Y-64122643D01*
X109875572Y-64823306D01*
X109868898Y-65529281D01*
X109866429Y-66235306D01*
X108674270Y-66235306D01*
X108675580Y-65860777D01*
X108679279Y-65391493D01*
X108684976Y-64914164D01*
X108692566Y-64432526D01*
X108701946Y-63950313D01*
X108713013Y-63471262D01*
X108725663Y-62999108D01*
X108739793Y-62537587D01*
X108755299Y-62090434D01*
X108772077Y-61661385D01*
X108790025Y-61254176D01*
X108809039Y-60872543D01*
X108829014Y-60520220D01*
X108849849Y-60200944D01*
X108871439Y-59918450D01*
X108882148Y-59795833D01*
X108901131Y-59621237D01*
X108929078Y-59410448D01*
X108965034Y-59168428D01*
X109008045Y-58900139D01*
X109057155Y-58610543D01*
X109111410Y-58304602D01*
X109169855Y-57987278D01*
X109231535Y-57663533D01*
X109295496Y-57338329D01*
X109360783Y-57016627D01*
X109426441Y-56703390D01*
X109491515Y-56403580D01*
X109555051Y-56122159D01*
X109616093Y-55864089D01*
X109673687Y-55634331D01*
X109706888Y-55509583D01*
X109726139Y-55443876D01*
X109757589Y-55342331D01*
X109799829Y-55209193D01*
X109851450Y-55048711D01*
X109911042Y-54865131D01*
X109977195Y-54662701D01*
X110048501Y-54445668D01*
X110123549Y-54218278D01*
X110200930Y-53984779D01*
X110279236Y-53749419D01*
X110357055Y-53516444D01*
X110432980Y-53290101D01*
X110505599Y-53074638D01*
X110573505Y-52874302D01*
X110635287Y-52693340D01*
X110689536Y-52535999D01*
X110734843Y-52406526D01*
X110760608Y-52334401D01*
X110873046Y-52035672D01*
X110982539Y-51768748D01*
X111088231Y-51535334D01*
X111189267Y-51337141D01*
X111284791Y-51175873D01*
X111373947Y-51053241D01*
X111434985Y-50988671D01*
X111529020Y-50918036D01*
X111650040Y-50848674D01*
X111783286Y-50788886D01*
X111804816Y-50780740D01*
X111960607Y-50730863D01*
X112151175Y-50683209D01*
X112377023Y-50637739D01*
X112638658Y-50594410D01*
X112936584Y-50553184D01*
X113271309Y-50514018D01*
X113643336Y-50476873D01*
X114053172Y-50441708D01*
X114501322Y-50408482D01*
X114988292Y-50377155D01*
X115514587Y-50347685D01*
X116080712Y-50320033D01*
X116687174Y-50294158D01*
X117334477Y-50270018D01*
X118023127Y-50247575D01*
X118670916Y-50229001D01*
X119394800Y-50208120D01*
X120154684Y-50183562D01*
X120951174Y-50155302D01*
X121784876Y-50123313D01*
X122656398Y-50087568D01*
X123566344Y-50048041D01*
X124515323Y-50004706D01*
X125503940Y-49957535D01*
X126532801Y-49906503D01*
X127602513Y-49851583D01*
X128713683Y-49792749D01*
X128873250Y-49784163D01*
X129393995Y-49756485D01*
X129886282Y-49731193D01*
X130357184Y-49707992D01*
X130813776Y-49686590D01*
X131263131Y-49666690D01*
X131712324Y-49647999D01*
X132168429Y-49630223D01*
X132638520Y-49613067D01*
X133129671Y-49596237D01*
X133648957Y-49579439D01*
X134203452Y-49562379D01*
X134207250Y-49562264D01*
X134448431Y-49555008D01*
X134704303Y-49547310D01*
X134966178Y-49539432D01*
X135225368Y-49531635D01*
X135473185Y-49524182D01*
X135700941Y-49517332D01*
X135899949Y-49511348D01*
X135995833Y-49508465D01*
X136356434Y-49497024D01*
X136754638Y-49483287D01*
X137185787Y-49467441D01*
X137645222Y-49449675D01*
X138128285Y-49430175D01*
X138630320Y-49409131D01*
X139146667Y-49386730D01*
X139672669Y-49363161D01*
X140197416Y-49338904D01*
X140628508Y-49318674D01*
X141020199Y-49300307D01*
X141375374Y-49283670D01*
X141696919Y-49268633D01*
X141987719Y-49255064D01*
X142250659Y-49242831D01*
X142488626Y-49231803D01*
X142704504Y-49221848D01*
X142901179Y-49212835D01*
X143081535Y-49204632D01*
X143248459Y-49197107D01*
X143404836Y-49190129D01*
X143553551Y-49183567D01*
X143697490Y-49177289D01*
X143839537Y-49171162D01*
X143982579Y-49165057D01*
X144129501Y-49158841D01*
X144283188Y-49152382D01*
X144346083Y-49149748D01*
X144613932Y-49138577D01*
X144861827Y-49128332D01*
X145094000Y-49118861D01*
X145314683Y-49110010D01*
X145528110Y-49101628D01*
X145738511Y-49093562D01*
X145950120Y-49085660D01*
X146167169Y-49077769D01*
X146393890Y-49069737D01*
X146634515Y-49061411D01*
X146893278Y-49052639D01*
X147174409Y-49043269D01*
X147482142Y-49033148D01*
X147820709Y-49022123D01*
X148194342Y-49010043D01*
X148484166Y-49000711D01*
X149080636Y-48981453D01*
X149637366Y-48963313D01*
X150156932Y-48946204D01*
X150641910Y-48930038D01*
X151094875Y-48914727D01*
X151518405Y-48900186D01*
X151915074Y-48886325D01*
X152287459Y-48873057D01*
X152638136Y-48860295D01*
X152844500Y-48852646D01*
X153342147Y-48834063D01*
X153801566Y-48816895D01*
X154226832Y-48800990D01*
X154622022Y-48786193D01*
X154991210Y-48772351D01*
X155338474Y-48759310D01*
X155667888Y-48746916D01*
X155983528Y-48735015D01*
X156289471Y-48723454D01*
X156589791Y-48712078D01*
X156888566Y-48700734D01*
X157189870Y-48689268D01*
X157497780Y-48677526D01*
X157816370Y-48665354D01*
X158149718Y-48652599D01*
X158443083Y-48641361D01*
X158900310Y-48623875D01*
X159317920Y-48608002D01*
X159698597Y-48593661D01*
X160045023Y-48580777D01*
X160359882Y-48569271D01*
X160645855Y-48559066D01*
X160905627Y-48550084D01*
X161141880Y-48542248D01*
X161357297Y-48535479D01*
X161554561Y-48529701D01*
X161736355Y-48524835D01*
X161905362Y-48520804D01*
X162064265Y-48517530D01*
X162215747Y-48514937D01*
X162362491Y-48512945D01*
X162507180Y-48511478D01*
X162652497Y-48510458D01*
X162801125Y-48509807D01*
X162955746Y-48509447D01*
X163004500Y-48509384D01*
X163347602Y-48510121D01*
G37*
X163347602Y-48510121D02*
X163652253Y-48513251D01*
X163922274Y-48518951D01*
X164161490Y-48527397D01*
X164373722Y-48538766D01*
X164562794Y-48553232D01*
X164732529Y-48570972D01*
X164886750Y-48592163D01*
X164921424Y-48597707D01*
X165223527Y-48661082D01*
X165489790Y-48746242D01*
X165720925Y-48853620D01*
X165917644Y-48983648D01*
X166080658Y-49136756D01*
X166210681Y-49313377D01*
X166263902Y-49411379D01*
X166328427Y-49568726D01*
X166374343Y-49739348D01*
X166401457Y-49926052D01*
X166409576Y-50131641D01*
X166398507Y-50358924D01*
X166368056Y-50610704D01*
X166318031Y-50889788D01*
X166248238Y-51198982D01*
X166158484Y-51541091D01*
X166104119Y-51732036D01*
X166059177Y-51886255D01*
X166006726Y-52066239D01*
X165951099Y-52257112D01*
X165896632Y-52443997D01*
X165848323Y-52609750D01*
X165758241Y-52924838D01*
X165662974Y-53268997D01*
X165565806Y-53629816D01*
X165470018Y-53994888D01*
X165378896Y-54351804D01*
X165295720Y-54688157D01*
X165268671Y-54800500D01*
X165235904Y-54941827D01*
X165197054Y-55116419D01*
X165152983Y-55319956D01*
X165104547Y-55548121D01*
X165052607Y-55796598D01*
X164998021Y-56061067D01*
X164941649Y-56337213D01*
X164884350Y-56620718D01*
X164826982Y-56907263D01*
X164770406Y-57192532D01*
X164715479Y-57472207D01*
X164663062Y-57741971D01*
X164614014Y-57997506D01*
X164569193Y-58234495D01*
X164529458Y-58448620D01*
X164495670Y-58635564D01*
X164468686Y-58791010D01*
X164449366Y-58910639D01*
X164445238Y-58938583D01*
X164372359Y-59492508D01*
X164306709Y-60084669D01*
X164248380Y-60711574D01*
X164197465Y-61369730D01*
X164154056Y-62055646D01*
X164118246Y-62765829D01*
X164090126Y-63496789D01*
X164069790Y-64245032D01*
X164057329Y-65007067D01*
X164052836Y-65779402D01*
X164056403Y-66558545D01*
X164068122Y-67341004D01*
X164088087Y-68123288D01*
X164116388Y-68901904D01*
X164153119Y-69673360D01*
X164158682Y-69775916D01*
X164185756Y-70239744D01*
X164215161Y-70686325D01*
X164247470Y-71120878D01*
X164283253Y-71548625D01*
X164323083Y-71974787D01*
X164367530Y-72404584D01*
X164417168Y-72843237D01*
X164472566Y-73295965D01*
X164534297Y-73767991D01*
X164602933Y-74264535D01*
X164679045Y-74790816D01*
X164763204Y-75352057D01*
X164784415Y-75490916D01*
X164838246Y-75838898D01*
X164889947Y-76165736D01*
X164940766Y-76478601D01*
X164991954Y-76784664D01*
X165044757Y-77091096D01*
X165100426Y-77405066D01*
X165160209Y-77733746D01*
X165225354Y-78084306D01*
X165297111Y-78463916D01*
X165353938Y-78761166D01*
X165399300Y-78999682D01*
X165447889Y-79259015D01*
X165497874Y-79529150D01*
X165547427Y-79800070D01*
X165594718Y-80061757D01*
X165637916Y-80304196D01*
X165675192Y-80517370D01*
X165682586Y-80560333D01*
X165728758Y-80827179D01*
X165773724Y-81081653D01*
X165818507Y-81328959D01*
X165864130Y-81574302D01*
X165911618Y-81822885D01*
X165961994Y-82079915D01*
X166016283Y-82350595D01*
X166075508Y-82640129D01*
X166140693Y-82953722D01*
X166212863Y-83296580D01*
X166293040Y-83673905D01*
X166319712Y-83798833D01*
X166382620Y-84094180D01*
X166443527Y-84382278D01*
X166503376Y-84667748D01*
X166563108Y-84955211D01*
X166623662Y-85249290D01*
X166685982Y-85554604D01*
X166751006Y-85875777D01*
X166819677Y-86217429D01*
X166892936Y-86584182D01*
X166971724Y-86980658D01*
X167056981Y-87411477D01*
X167108469Y-87672333D01*
X167160164Y-87931906D01*
X167211733Y-88185321D01*
X167264438Y-88438362D01*
X167319542Y-88696812D01*
X167378307Y-88966456D01*
X167441996Y-89253076D01*
X167511871Y-89562457D01*
X167589197Y-89900383D01*
X167675234Y-90272637D01*
X167690721Y-90339333D01*
X167759800Y-90638376D01*
X167823070Y-90916276D01*
X167882124Y-91180526D01*
X167938554Y-91438619D01*
X167993954Y-91698049D01*
X168049916Y-91966310D01*
X168108033Y-92250894D01*
X168169899Y-92559296D01*
X168237106Y-92899010D01*
X168264419Y-93038083D01*
X168309756Y-93267102D01*
X168361951Y-93526978D01*
X168418848Y-93807203D01*
X168478291Y-94097271D01*
X168538123Y-94386675D01*
X168596190Y-94664910D01*
X168650334Y-94921467D01*
X168666208Y-94996000D01*
X168727518Y-95283809D01*
X168782859Y-95545260D01*
X168833564Y-95786983D01*
X168880967Y-96015612D01*
X168926402Y-96237777D01*
X168971202Y-96460110D01*
X169016703Y-96689243D01*
X169064236Y-96931807D01*
X169115137Y-97194434D01*
X169170738Y-97483755D01*
X169232374Y-97806404D01*
X169248988Y-97893606D01*
X169341846Y-98375402D01*
X169429871Y-98820291D01*
X169512839Y-99227180D01*
X169590525Y-99594978D01*
X169662704Y-99922590D01*
X169702750Y-100097166D01*
X169769047Y-100387658D01*
X169827279Y-100657761D01*
X169879244Y-100917414D01*
X169926737Y-101176554D01*
X169971555Y-101445121D01*
X170015494Y-101733053D01*
X170060351Y-102050287D01*
X170074189Y-102152167D01*
X170092183Y-102282060D01*
X170115579Y-102445316D01*
X170143121Y-102633492D01*
X170173557Y-102838143D01*
X170205632Y-103050827D01*
X170238091Y-103263100D01*
X170264399Y-103432750D01*
X170320659Y-103794674D01*
X170370436Y-104119079D01*
X170414263Y-104410196D01*
X170452670Y-104672255D01*
X170486187Y-104909487D01*
X170515345Y-105126122D01*
X170540675Y-105326389D01*
X170562706Y-105514520D01*
X170581970Y-105694744D01*
X170598998Y-105871292D01*
X170614319Y-106048394D01*
X170628465Y-106230280D01*
X170641966Y-106421180D01*
X170645137Y-106468333D01*
X170677377Y-106987571D01*
X170707587Y-107547505D01*
X170735706Y-108146542D01*
X170761672Y-108783092D01*
X170785424Y-109455560D01*
X170806899Y-110162357D01*
X170826037Y-110901889D01*
X170838099Y-111442500D01*
X170842903Y-111708004D01*
X170846818Y-111998757D01*
X170849865Y-112310792D01*
X170852068Y-112640139D01*
X170853449Y-112982831D01*
X170854031Y-113334899D01*
X170853838Y-113692374D01*
X170852892Y-114051289D01*
X170851216Y-114407675D01*
X170848833Y-114757564D01*
X170845766Y-115096988D01*
X170842039Y-115421978D01*
X170837673Y-115728565D01*
X170832691Y-116012783D01*
X170827118Y-116270661D01*
X170820975Y-116498233D01*
X170814286Y-116691530D01*
X170807073Y-116846582D01*
X170806850Y-116850583D01*
X170745517Y-117775633D01*
X170666863Y-118667108D01*
X170570068Y-119530417D01*
X170454312Y-120370970D01*
X170318776Y-121194177D01*
X170162640Y-122005448D01*
X169985083Y-122810191D01*
X169785286Y-123613817D01*
X169777066Y-123645083D01*
X169706212Y-123909072D01*
X169623906Y-124207105D01*
X169531957Y-124533024D01*
X169432178Y-124880672D01*
X169326381Y-125243890D01*
X169216378Y-125616522D01*
X169103979Y-125992409D01*
X168990998Y-126365395D01*
X168879246Y-126729320D01*
X168770534Y-127078029D01*
X168718308Y-127243416D01*
X168601096Y-127607495D01*
X168492330Y-127933565D01*
X168390707Y-128224816D01*
X168294929Y-128484437D01*
X168203692Y-128715614D01*
X168115698Y-128921538D01*
X168029643Y-129105395D01*
X167944229Y-129270376D01*
X167858153Y-129419667D01*
X167781226Y-129540000D01*
X167670445Y-129686279D01*
X167535872Y-129834154D01*
X167388586Y-129972990D01*
X167239666Y-130092151D01*
X167132323Y-130162944D01*
X166923422Y-130272854D01*
X166689301Y-130374118D01*
X166443788Y-130461834D01*
X166200713Y-130531100D01*
X165973904Y-130577014D01*
X165957250Y-130579478D01*
X165909315Y-130583408D01*
X165823660Y-130587265D01*
X165704897Y-130591006D01*
X165557636Y-130594586D01*
X165386492Y-130597961D01*
X165196076Y-130601087D01*
X164991000Y-130603921D01*
X164775877Y-130606419D01*
X164555320Y-130608537D01*
X164333939Y-130610230D01*
X164116349Y-130611456D01*
X163907160Y-130612169D01*
X163710986Y-130612326D01*
X163532439Y-130611884D01*
X163376130Y-130610798D01*
X163246673Y-130609025D01*
X163148679Y-130606520D01*
X163142083Y-130606277D01*
X163083236Y-130604297D01*
X162987770Y-130601397D01*
X162861387Y-130597739D01*
X162709788Y-130593480D01*
X162538674Y-130588780D01*
X162353746Y-130583800D01*
X162160705Y-130578700D01*
X162115500Y-130577519D01*
X161892743Y-130571624D01*
X161652081Y-130565091D01*
X161404030Y-130558216D01*
X161159110Y-130551296D01*
X160927837Y-130544627D01*
X160720731Y-130538505D01*
X160591500Y-130534573D01*
X160428163Y-130529541D01*
X160230606Y-130523488D01*
X160006922Y-130516659D01*
X159765206Y-130509301D01*
X159513551Y-130501659D01*
X159260052Y-130493981D01*
X159012801Y-130486511D01*
X158855833Y-130481781D01*
X158598959Y-130474013D01*
X158315181Y-130465366D01*
X158015390Y-130456177D01*
X157710479Y-130446782D01*
X157411340Y-130437517D01*
X157128862Y-130428717D01*
X156873940Y-130420718D01*
X156792083Y-130418133D01*
X156578368Y-130411376D01*
X156330438Y-130403546D01*
X156056390Y-130394896D01*
X155764319Y-130385684D01*
X155462323Y-130376163D01*
X155158499Y-130366590D01*
X154860944Y-130357219D01*
X154577754Y-130348306D01*
X154453166Y-130344387D01*
X154195591Y-130336255D01*
X153932710Y-130327897D01*
X153670652Y-130319512D01*
X153415544Y-130311298D01*
X153173516Y-130303454D01*
X152950697Y-130296179D01*
X152753214Y-130289669D01*
X152587196Y-130284125D01*
X152484666Y-130280639D01*
X152366333Y-130276594D01*
X152210193Y-130271297D01*
X152020752Y-130264898D01*
X151802513Y-130257549D01*
X151559981Y-130249401D01*
X151297660Y-130240605D01*
X151020054Y-130231312D01*
X150731667Y-130221673D01*
X150437003Y-130211840D01*
X150140567Y-130201962D01*
X149987000Y-130196852D01*
X149702126Y-130187331D01*
X149424393Y-130177963D01*
X149157403Y-130168874D01*
X148904761Y-130160191D01*
X148670070Y-130152039D01*
X148456932Y-130144546D01*
X148268952Y-130137838D01*
X148109732Y-130132041D01*
X147982876Y-130127283D01*
X147891988Y-130123688D01*
X147849166Y-130121812D01*
X147789239Y-130119750D01*
X147690443Y-130117382D01*
X147556243Y-130114755D01*
X147390103Y-130111919D01*
X147195485Y-130108924D01*
X146975855Y-130105816D01*
X146734675Y-130102647D01*
X146475410Y-130099463D01*
X146201523Y-130096315D01*
X145916478Y-130093250D01*
X145623738Y-130090319D01*
X145594916Y-130090042D01*
X145416354Y-130088330D01*
X145245285Y-130086671D01*
X145080520Y-130085029D01*
X144920867Y-130083370D01*
X144765137Y-130081661D01*
X144612137Y-130079867D01*
X144460679Y-130077953D01*
X144309570Y-130075885D01*
X144157621Y-130073630D01*
X144003642Y-130071153D01*
X143846440Y-130068419D01*
X143684826Y-130065395D01*
X143517610Y-130062047D01*
X143343600Y-130058339D01*
X143161605Y-130054238D01*
X142970437Y-130049710D01*
X142768902Y-130044720D01*
X142555812Y-130039234D01*
X142329976Y-130033218D01*
X142090202Y-130026638D01*
X141835301Y-130019459D01*
X141564081Y-130011647D01*
X141275353Y-130003169D01*
X140967925Y-129993989D01*
X140640606Y-129984073D01*
X140292208Y-129973388D01*
X139921537Y-129961899D01*
X139527405Y-129949572D01*
X139108620Y-129936372D01*
X138663992Y-129922266D01*
X138192331Y-129907218D01*
X137692445Y-129891196D01*
X137163144Y-129874164D01*
X136603237Y-129856089D01*
X136011534Y-129836936D01*
X135386845Y-129816671D01*
X134727978Y-129795259D01*
X134033743Y-129772667D01*
X133302949Y-129748861D01*
X132534406Y-129723805D01*
X131726924Y-129697466D01*
X130879311Y-129669810D01*
X130143250Y-129645790D01*
X129937707Y-129639111D01*
X129694890Y-129631267D01*
X129419840Y-129622420D01*
X129117595Y-129612730D01*
X128793195Y-129602358D01*
X128451679Y-129591465D01*
X128098086Y-129580212D01*
X127737456Y-129568758D01*
X127374827Y-129557265D01*
X127015240Y-129545893D01*
X126663733Y-129534803D01*
X126492000Y-129529395D01*
X126150063Y-129518582D01*
X125800011Y-129507410D01*
X125446612Y-129496037D01*
X125094631Y-129484620D01*
X124748835Y-129473316D01*
X124413990Y-129462284D01*
X124094863Y-129451681D01*
X123796220Y-129441663D01*
X123522828Y-129432388D01*
X123279454Y-129424014D01*
X123070863Y-129416699D01*
X122967750Y-129413004D01*
X122723941Y-129404193D01*
X122472138Y-129395116D01*
X122219437Y-129386026D01*
X121972931Y-129377178D01*
X121739715Y-129368826D01*
X121526885Y-129361225D01*
X121341535Y-129354629D01*
X121190759Y-129349292D01*
X121179166Y-129348883D01*
X121061957Y-129345293D01*
X120906838Y-129341391D01*
X120718229Y-129337250D01*
X120500552Y-129332948D01*
X120258228Y-129328557D01*
X119995679Y-129324155D01*
X119717325Y-129319815D01*
X119427588Y-129315614D01*
X119130888Y-129311625D01*
X118831648Y-129307925D01*
X118639166Y-129305724D01*
X118354400Y-129302480D01*
X118079168Y-129299156D01*
X117816762Y-129295802D01*
X117570477Y-129292470D01*
X117343607Y-129289209D01*
X117139444Y-129286071D01*
X116961282Y-129283105D01*
X116812415Y-129280362D01*
X116696137Y-129277894D01*
X116615741Y-129275750D01*
X116575416Y-129274046D01*
X116228614Y-129248866D01*
X115919847Y-129225096D01*
X115644861Y-129202242D01*
X115399400Y-129179810D01*
X115179211Y-129157305D01*
X114980038Y-129134234D01*
X114797626Y-129110101D01*
X114627720Y-129084413D01*
X114466065Y-129056676D01*
X114308408Y-129026394D01*
X114150491Y-128993074D01*
X114143399Y-128991515D01*
X113893764Y-128930267D01*
X113682774Y-128864039D01*
X113506829Y-128790630D01*
X113362334Y-128707839D01*
X113245689Y-128613464D01*
X113153297Y-128505304D01*
X113081561Y-128381157D01*
X113058238Y-128327514D01*
X113033726Y-128258436D01*
X113016600Y-128187321D01*
X113004964Y-128102489D01*
X112996924Y-127992262D01*
X112993978Y-127931333D01*
X112993139Y-127753272D01*
X113005932Y-127559348D01*
X113032973Y-127346786D01*
X113074879Y-127112811D01*
X113132266Y-126854646D01*
X113205751Y-126569518D01*
X113295950Y-126254650D01*
X113403481Y-125907267D01*
X113528111Y-125527119D01*
X113631015Y-125215358D01*
X113719550Y-124934976D01*
X113795624Y-124678272D01*
X113861143Y-124437545D01*
X113918015Y-124205093D01*
X113968147Y-123973217D01*
X114013445Y-123734214D01*
X114055816Y-123480385D01*
X114088507Y-123264083D01*
X114100660Y-123183729D01*
X114118954Y-123067072D01*
X114142507Y-122919554D01*
X114170434Y-122746619D01*
X114201852Y-122553709D01*
X114235878Y-122346268D01*
X114271629Y-122129738D01*
X114308222Y-121909563D01*
X114311778Y-121888250D01*
X114431752Y-121152432D01*
X114540811Y-120448426D01*
X114638753Y-119777704D01*
X114725376Y-119141738D01*
X114800481Y-118542001D01*
X114863866Y-117979966D01*
X114912742Y-117485583D01*
X114936075Y-117218160D01*
X114957059Y-116951216D01*
X114975756Y-116681877D01*
X114992232Y-116407270D01*
X115006548Y-116124521D01*
X115018770Y-115830758D01*
X115028960Y-115523108D01*
X115037182Y-115198697D01*
X115043500Y-114854652D01*
X115047977Y-114488100D01*
X115050676Y-114096168D01*
X115051662Y-113675982D01*
X115050998Y-113224670D01*
X115048747Y-112739359D01*
X115044974Y-112217174D01*
X115040371Y-111717666D01*
X115037100Y-111407152D01*
X115033553Y-111099971D01*
X115029792Y-110799875D01*
X115025876Y-110510611D01*
X115021865Y-110235931D01*
X115017820Y-109979582D01*
X115013801Y-109745315D01*
X115009868Y-109536878D01*
X115006080Y-109358023D01*
X115002499Y-109212497D01*
X114999184Y-109104051D01*
X114997943Y-109071833D01*
X114981716Y-108738642D01*
X114959713Y-108374684D01*
X114931826Y-107978727D01*
X114897945Y-107549543D01*
X114857960Y-107085899D01*
X114811760Y-106586567D01*
X114759235Y-106050315D01*
X114700277Y-105475914D01*
X114634774Y-104862133D01*
X114565692Y-104235250D01*
X114535630Y-103966782D01*
X114509699Y-103736818D01*
X114487434Y-103541778D01*
X114468370Y-103378081D01*
X114452043Y-103242148D01*
X114437987Y-103130399D01*
X114425738Y-103039255D01*
X114414830Y-102965135D01*
X114404800Y-102904460D01*
X114395180Y-102853650D01*
X114385508Y-102809125D01*
X114375318Y-102767305D01*
X114374774Y-102765169D01*
X114359089Y-102700069D01*
X114343519Y-102626956D01*
X114327474Y-102541949D01*
X114310368Y-102441167D01*
X114291611Y-102320728D01*
X114270615Y-102176752D01*
X114246793Y-102005356D01*
X114219557Y-101802661D01*
X114188318Y-101564784D01*
X114161344Y-101356583D01*
X114117244Y-101017307D01*
X114076536Y-100710714D01*
X114038187Y-100430540D01*
X114001167Y-100170520D01*
X113964444Y-99924389D01*
X113926986Y-99685885D01*
X113887762Y-99448741D01*
X113845740Y-99206694D01*
X113799888Y-98953480D01*
X113749176Y-98682833D01*
X113692571Y-98388491D01*
X113629041Y-98064188D01*
X113570524Y-97768833D01*
X113524475Y-97536278D01*
X113472162Y-97270368D01*
X113415186Y-96979342D01*
X113355150Y-96671439D01*
X113293655Y-96354901D01*
X113232303Y-96037968D01*
X113172697Y-95728878D01*
X113116438Y-95435873D01*
X113084802Y-95270411D01*
X113006427Y-94861162D01*
X112934804Y-94490370D01*
X112869246Y-94154815D01*
X112809068Y-93851280D01*
X112753583Y-93576546D01*
X112702107Y-93327394D01*
X112653952Y-93100607D01*
X112608434Y-92892965D01*
X112564865Y-92701249D01*
X112522562Y-92522243D01*
X112480836Y-92352726D01*
X112439003Y-92189481D01*
X112396377Y-92029289D01*
X112385787Y-91990333D01*
X112324243Y-91761190D01*
X112273921Y-91564211D01*
X112233271Y-91391201D01*
X112200744Y-91233964D01*
X112174789Y-91084304D01*
X112153856Y-90934025D01*
X112136394Y-90774931D01*
X112120855Y-90598825D01*
X112119568Y-90582750D01*
X112106773Y-90436301D01*
X112091751Y-90295484D01*
X112073508Y-90154839D01*
X112051050Y-90008910D01*
X112023382Y-89852236D01*
X111989510Y-89679360D01*
X111948440Y-89484824D01*
X111899178Y-89263169D01*
X111840729Y-89008937D01*
X111805345Y-88857666D01*
X111751234Y-88624697D01*
X111701877Y-88405792D01*
X111656198Y-88195233D01*
X111613124Y-87987305D01*
X111571580Y-87776289D01*
X111530492Y-87556468D01*
X111488787Y-87322126D01*
X111445389Y-87067544D01*
X111399225Y-86787006D01*
X111349219Y-86474794D01*
X111305988Y-86200040D01*
X111249332Y-85843663D01*
X111195201Y-85516655D01*
X111141739Y-85209224D01*
X111087088Y-84911576D01*
X111029392Y-84613918D01*
X110966793Y-84306458D01*
X110897434Y-83979403D01*
X110819458Y-83622960D01*
X110804473Y-83555416D01*
X110729785Y-83217107D01*
X110663477Y-82911384D01*
X110603848Y-82629717D01*
X110549199Y-82363575D01*
X110497827Y-82104429D01*
X110448034Y-81843748D01*
X110398119Y-81573003D01*
X110346380Y-81283664D01*
X110308662Y-81068333D01*
X110220223Y-80566572D01*
X110135210Y-80098316D01*
X110052003Y-79655034D01*
X109968986Y-79228199D01*
X109884538Y-78809283D01*
X109831516Y-78553432D01*
X109741600Y-78114494D01*
X109662234Y-77705561D01*
X109591725Y-77316112D01*
X109528383Y-76935626D01*
X109470517Y-76553584D01*
X109416435Y-76159463D01*
X109364447Y-75742745D01*
X109325191Y-75403522D01*
X109293517Y-75125037D01*
X109265056Y-74882725D01*
X109238964Y-74670623D01*
X109214399Y-74482764D01*
X109190515Y-74313185D01*
X109166471Y-74155921D01*
X109141421Y-74005007D01*
X109114522Y-73854477D01*
X109084932Y-73698368D01*
X109081586Y-73681166D01*
X109048266Y-73507138D01*
X109020223Y-73352421D01*
X108996250Y-73208307D01*
X108975137Y-73066085D01*
X108955676Y-72917048D01*
X108936660Y-72752485D01*
X108916880Y-72563687D01*
X108895127Y-72341945D01*
X108893646Y-72326500D01*
X108858073Y-71931411D01*
X108826034Y-71524770D01*
X108797393Y-71103323D01*
X108772014Y-70663813D01*
X108749759Y-70202985D01*
X108730492Y-69717584D01*
X108714075Y-69204354D01*
X108700373Y-68660040D01*
X108689249Y-68081387D01*
X108680564Y-67465139D01*
X108677499Y-67183000D01*
X108674586Y-66760266D01*
X108673981Y-66318279D01*
X108674270Y-66235306D01*
X109866429Y-66235306D01*
X109868210Y-66936117D01*
X109874286Y-67626449D01*
X109884700Y-68301041D01*
X109899498Y-68954627D01*
X109918724Y-69581945D01*
X109942422Y-70177731D01*
X109951331Y-70368583D01*
X109977024Y-70859537D01*
X110004555Y-71310290D01*
X110034129Y-71722946D01*
X110065948Y-72099605D01*
X110100215Y-72442369D01*
X110137133Y-72753340D01*
X110176906Y-73034620D01*
X110219736Y-73288311D01*
X110246782Y-73427166D01*
X110290928Y-73659734D01*
X110336044Y-73932035D01*
X110381760Y-74241493D01*
X110427707Y-74585528D01*
X110473516Y-74961564D01*
X110500018Y-75194583D01*
X110528689Y-75449819D01*
X110555879Y-75683886D01*
X110582365Y-75901538D01*
X110608922Y-76107527D01*
X110636328Y-76306607D01*
X110665358Y-76503533D01*
X110696789Y-76703057D01*
X110731397Y-76909934D01*
X110769958Y-77128917D01*
X110813249Y-77364760D01*
X110862046Y-77622215D01*
X110917125Y-77906038D01*
X110979263Y-78220982D01*
X111049236Y-78571800D01*
X111061729Y-78634166D01*
X111113201Y-78893181D01*
X111166804Y-79166940D01*
X111221087Y-79447786D01*
X111274601Y-79728065D01*
X111325897Y-80000120D01*
X111373525Y-80256296D01*
X111416036Y-80488936D01*
X111451979Y-80690386D01*
X111462518Y-80750833D01*
X111512663Y-81038155D01*
X111559579Y-81301307D01*
X111604744Y-81547726D01*
X111649634Y-81784850D01*
X111695726Y-82020116D01*
X111744496Y-82260961D01*
X111797422Y-82514822D01*
X111855979Y-82789136D01*
X111921645Y-83091340D01*
X111979439Y-83354333D01*
X112053126Y-83691358D01*
X112118611Y-83998015D01*
X112177539Y-84283052D01*
X112231555Y-84555219D01*
X112282306Y-84823266D01*
X112331436Y-85095941D01*
X112380592Y-85381993D01*
X112431419Y-85690173D01*
X112485562Y-86029228D01*
X112500957Y-86127166D01*
X112560421Y-86500911D01*
X112616257Y-86839335D01*
X112669737Y-87149166D01*
X112722133Y-87437133D01*
X112774719Y-87709962D01*
X112828767Y-87974382D01*
X112885549Y-88237121D01*
X112946338Y-88504906D01*
X112969407Y-88603666D01*
X113038721Y-88902081D01*
X113097770Y-89165085D01*
X113147532Y-89398082D01*
X113188980Y-89606474D01*
X113223089Y-89795667D01*
X113250835Y-89971062D01*
X113273191Y-90138064D01*
X113291134Y-90302076D01*
X113305470Y-90466333D01*
X113317978Y-90614314D01*
X113331892Y-90746234D01*
X113348748Y-90870234D01*
X113370084Y-90994455D01*
X113397438Y-91127039D01*
X113432347Y-91276127D01*
X113476348Y-91449860D01*
X113528312Y-91646423D01*
X113575518Y-91825413D01*
X113621631Y-92006086D01*
X113667308Y-92191536D01*
X113713202Y-92384858D01*
X113759967Y-92589146D01*
X113808259Y-92807496D01*
X113858731Y-93043002D01*
X113912039Y-93298759D01*
X113968835Y-93577861D01*
X114029775Y-93883403D01*
X114095514Y-94218480D01*
X114166705Y-94586186D01*
X114244003Y-94989616D01*
X114321677Y-95398166D01*
X114355018Y-95573015D01*
X114395234Y-95782153D01*
X114440917Y-96018356D01*
X114490661Y-96274400D01*
X114543056Y-96543057D01*
X114596696Y-96817104D01*
X114650174Y-97089316D01*
X114702080Y-97352466D01*
X114723741Y-97461916D01*
X114797024Y-97833422D01*
X114862446Y-98169116D01*
X114920935Y-98474597D01*
X114973417Y-98755466D01*
X115020820Y-99017322D01*
X115064069Y-99265764D01*
X115104092Y-99506393D01*
X115141816Y-99744806D01*
X115178167Y-99986605D01*
X115214073Y-100237389D01*
X115250460Y-100502756D01*
X115288254Y-100788307D01*
X115328383Y-101099642D01*
X115336846Y-101166083D01*
X115370367Y-101427907D01*
X115399567Y-101651629D01*
X115425042Y-101841195D01*
X115447386Y-102000549D01*
X115467195Y-102133637D01*
X115485065Y-102244404D01*
X115501592Y-102336794D01*
X115517370Y-102414754D01*
X115532994Y-102482227D01*
X115539179Y-102506565D01*
X115552847Y-102563695D01*
X115566607Y-102631644D01*
X115580948Y-102714025D01*
X115596358Y-102814453D01*
X115613327Y-102936541D01*
X115632344Y-103083905D01*
X115653897Y-103260157D01*
X115678476Y-103468911D01*
X115706569Y-103713783D01*
X115727233Y-103896583D01*
X115794182Y-104498246D01*
X115855178Y-105060949D01*
X115910462Y-105587610D01*
X115960274Y-106081145D01*
X116004857Y-106544473D01*
X116044450Y-106980511D01*
X116079297Y-107392176D01*
X116109637Y-107782387D01*
X116135711Y-108154060D01*
X116157762Y-108510113D01*
X116176030Y-108853464D01*
X116190756Y-109187030D01*
X116202181Y-109513729D01*
X116207532Y-109706833D01*
X116211749Y-109898667D01*
X116215606Y-110120798D01*
X116219102Y-110369984D01*
X116222236Y-110642984D01*
X116225007Y-110936558D01*
X116227414Y-111247466D01*
X116229455Y-111572466D01*
X116231130Y-111908317D01*
X116232437Y-112251780D01*
X116233375Y-112599613D01*
X116233943Y-112948575D01*
X116234141Y-113295427D01*
X116233966Y-113636926D01*
X116233417Y-113969833D01*
X116232495Y-114290906D01*
X116231196Y-114596906D01*
X116229521Y-114884590D01*
X116227469Y-115150719D01*
X116225037Y-115392052D01*
X116222225Y-115605347D01*
X116219031Y-115787365D01*
X116215456Y-115934865D01*
X116211497Y-116044605D01*
X116209758Y-116078000D01*
X116177054Y-116586381D01*
X116139384Y-117089272D01*
X116096211Y-117591025D01*
X116046998Y-118095993D01*
X115991206Y-118608525D01*
X115928298Y-119132976D01*
X115857736Y-119673696D01*
X115778983Y-120235037D01*
X115691500Y-120821351D01*
X115594749Y-121436991D01*
X115488194Y-122086307D01*
X115410696Y-122544416D01*
X115381475Y-122717584D01*
X115351309Y-122900439D01*
X115322026Y-123081608D01*
X115295453Y-123249723D01*
X115273418Y-123393412D01*
X115264378Y-123454583D01*
X115218859Y-123752742D01*
X115171561Y-124028176D01*
X115120473Y-124289072D01*
X115063586Y-124543617D01*
X114998890Y-124799999D01*
X114924377Y-125066407D01*
X114838037Y-125351028D01*
X114737860Y-125662051D01*
X114680003Y-125835833D01*
X114617988Y-126022683D01*
X114556624Y-126211775D01*
X114498191Y-126395775D01*
X114444971Y-126567354D01*
X114399245Y-126719178D01*
X114363293Y-126843918D01*
X114343818Y-126916454D01*
X114315599Y-127032306D01*
X114286864Y-127158878D01*
X114258922Y-127289372D01*
X114233081Y-127416990D01*
X114210650Y-127534934D01*
X114192937Y-127636406D01*
X114181252Y-127714608D01*
X114176903Y-127762742D01*
X114178606Y-127774662D01*
X114201036Y-127781798D01*
X114256445Y-127795614D01*
X114336386Y-127814092D01*
X114428257Y-127834319D01*
X114695294Y-127885498D01*
X115003588Y-127932936D01*
X115352220Y-127976530D01*
X115740272Y-128016175D01*
X116166823Y-128051764D01*
X116586000Y-128080436D01*
X116659172Y-128083849D01*
X116770987Y-128087519D01*
X116917756Y-128091381D01*
X117095791Y-128095370D01*
X117301401Y-128099420D01*
X117530898Y-128103467D01*
X117780592Y-128107444D01*
X118046796Y-128111287D01*
X118325819Y-128114931D01*
X118613973Y-128118310D01*
X118893166Y-128121219D01*
X119183920Y-128124170D01*
X119467164Y-128127260D01*
X119739421Y-128130439D01*
X119997212Y-128133656D01*
X120237061Y-128136862D01*
X120455490Y-128140006D01*
X120649019Y-128143038D01*
X120814173Y-128145908D01*
X120947472Y-128148566D01*
X121045439Y-128150963D01*
X121104596Y-128153047D01*
X121105083Y-128153071D01*
X121228755Y-128158817D01*
X121394704Y-128165780D01*
X121602889Y-128173958D01*
X121853270Y-128183351D01*
X122145807Y-128193958D01*
X122480461Y-128205776D01*
X122857192Y-128218804D01*
X123275960Y-128233041D01*
X123736725Y-128248486D01*
X124239447Y-128265138D01*
X124784087Y-128282994D01*
X125370604Y-128302054D01*
X125998959Y-128322317D01*
X126669112Y-128343780D01*
X127381023Y-128366443D01*
X128026583Y-128386890D01*
X128219291Y-128393005D01*
X128451268Y-128400407D01*
X128719472Y-128408998D01*
X129020862Y-128418679D01*
X129352397Y-128429353D01*
X129711035Y-128440920D01*
X130093734Y-128453282D01*
X130497453Y-128466341D01*
X130919150Y-128479999D01*
X131355783Y-128494156D01*
X131804312Y-128508714D01*
X132261694Y-128523575D01*
X132724889Y-128538641D01*
X133190853Y-128553813D01*
X133656547Y-128568992D01*
X134118928Y-128584080D01*
X134228416Y-128587656D01*
X134976224Y-128612061D01*
X135683321Y-128635096D01*
X136351307Y-128656803D01*
X136981780Y-128677227D01*
X137576339Y-128696412D01*
X138136583Y-128714401D01*
X138664112Y-128731237D01*
X139160524Y-128746966D01*
X139627418Y-128761630D01*
X140066394Y-128775273D01*
X140479050Y-128787940D01*
X140866984Y-128799674D01*
X141231798Y-128810518D01*
X141575088Y-128820517D01*
X141898455Y-128829715D01*
X142203496Y-128838155D01*
X142491813Y-128845880D01*
X142765002Y-128852936D01*
X143024663Y-128859365D01*
X143272396Y-128865211D01*
X143509798Y-128870519D01*
X143738470Y-128875332D01*
X143960010Y-128879693D01*
X144176018Y-128883647D01*
X144388091Y-128887238D01*
X144597829Y-128890508D01*
X144806832Y-128893503D01*
X145016698Y-128896265D01*
X145229026Y-128898840D01*
X145445414Y-128901269D01*
X145667464Y-128903598D01*
X145817166Y-128905093D01*
X146125671Y-128908402D01*
X146439348Y-128912289D01*
X146753258Y-128916663D01*
X147062460Y-128921436D01*
X147362016Y-128926516D01*
X147646986Y-128931813D01*
X147912431Y-128937237D01*
X148153411Y-128942699D01*
X148364987Y-128948106D01*
X148542219Y-128953371D01*
X148632333Y-128956510D01*
X148920816Y-128967166D01*
X149248705Y-128978968D01*
X149613089Y-128991821D01*
X150011058Y-129005634D01*
X150439704Y-129020315D01*
X150896115Y-129035770D01*
X151377383Y-129051908D01*
X151880596Y-129068636D01*
X152402846Y-129085862D01*
X152941222Y-129103493D01*
X153492814Y-129121436D01*
X154054713Y-129139600D01*
X154624009Y-129157892D01*
X155197792Y-129176220D01*
X155773152Y-129194490D01*
X156347178Y-129212611D01*
X156916962Y-129230490D01*
X157479594Y-129248035D01*
X158032162Y-129265154D01*
X158571759Y-129281753D01*
X159095473Y-129297741D01*
X159600395Y-129313025D01*
X160083614Y-129327512D01*
X160542222Y-129341111D01*
X160973308Y-129353729D01*
X161373963Y-129365272D01*
X161741276Y-129375650D01*
X162072337Y-129384769D01*
X162337750Y-129391847D01*
X162534569Y-129396997D01*
X162725913Y-129402012D01*
X162905885Y-129406736D01*
X163068586Y-129411014D01*
X163208119Y-129414691D01*
X163318585Y-129417612D01*
X163394086Y-129419621D01*
X163406666Y-129419959D01*
X163565166Y-129423465D01*
X163746509Y-129426167D01*
X163945036Y-129428088D01*
X164155091Y-129429249D01*
X164371015Y-129429673D01*
X164587150Y-129429381D01*
X164797839Y-129428395D01*
X164997424Y-129426737D01*
X165180246Y-129424430D01*
X165340648Y-129421493D01*
X165472972Y-129417951D01*
X165571561Y-129413823D01*
X165607554Y-129411458D01*
X165878698Y-129375895D01*
X166125141Y-129315307D01*
X166343730Y-129230899D01*
X166531306Y-129123880D01*
X166678149Y-129002120D01*
X166748948Y-128922138D01*
X166820181Y-128823188D01*
X166892798Y-128703013D01*
X166967750Y-128559353D01*
X167045988Y-128389948D01*
X167128464Y-128192538D01*
X167216128Y-127964866D01*
X167309932Y-127704671D01*
X167410827Y-127409694D01*
X167519764Y-127077676D01*
X167617536Y-126770553D01*
X167815383Y-126136350D01*
X167998258Y-125538323D01*
X168166915Y-124973347D01*
X168322111Y-124438294D01*
X168464601Y-123930040D01*
X168595141Y-123445457D01*
X168714486Y-122981419D01*
X168823392Y-122534800D01*
X168922615Y-122102474D01*
X169012911Y-121681315D01*
X169095035Y-121268196D01*
X169169743Y-120859990D01*
X169237791Y-120453573D01*
X169299934Y-120045817D01*
X169356928Y-119633595D01*
X169373339Y-119507000D01*
X169422654Y-119106758D01*
X169466388Y-118720231D01*
X169504855Y-118342167D01*
X169538369Y-117967319D01*
X169567243Y-117590437D01*
X169591791Y-117206272D01*
X169612327Y-116809575D01*
X169629164Y-116395097D01*
X169642617Y-115957588D01*
X169652999Y-115491801D01*
X169660624Y-114992484D01*
X169664327Y-114638666D01*
X169667428Y-114117305D01*
X169667783Y-113580656D01*
X169665497Y-113032108D01*
X169660676Y-112475054D01*
X169653424Y-111912883D01*
X169643848Y-111348988D01*
X169632052Y-110786759D01*
X169618143Y-110229586D01*
X169602224Y-109680862D01*
X169584402Y-109143977D01*
X169564782Y-108622322D01*
X169543469Y-108119288D01*
X169520568Y-107638266D01*
X169496186Y-107182647D01*
X169470426Y-106755823D01*
X169443394Y-106361183D01*
X169415197Y-106002119D01*
X169386250Y-105685166D01*
X169376286Y-105588677D01*
X169365109Y-105489060D01*
X169352172Y-105382497D01*
X169336927Y-105265173D01*
X169318827Y-105133271D01*
X169297325Y-104982973D01*
X169271873Y-104810463D01*
X169241924Y-104611925D01*
X169206932Y-104383542D01*
X169166348Y-104121497D01*
X169119625Y-103821973D01*
X169113085Y-103780166D01*
X169079599Y-103564409D01*
X169044929Y-103337810D01*
X169010386Y-103109159D01*
X168977281Y-102887250D01*
X168946928Y-102680873D01*
X168920636Y-102498821D01*
X168899929Y-102351416D01*
X168852804Y-102018113D01*
X168807711Y-101719490D01*
X168763343Y-101448024D01*
X168718396Y-101196195D01*
X168671567Y-100956479D01*
X168621550Y-100721355D01*
X168602633Y-100636916D01*
X168524846Y-100290243D01*
X168450043Y-99948717D01*
X168376706Y-99604990D01*
X168303316Y-99251714D01*
X168228356Y-98881544D01*
X168150305Y-98487130D01*
X168067646Y-98061126D01*
X168033911Y-97885250D01*
X167959432Y-97497328D01*
X167890872Y-97143668D01*
X167826730Y-96816855D01*
X167765501Y-96509474D01*
X167705683Y-96214109D01*
X167645771Y-95923345D01*
X167584263Y-95629767D01*
X167519656Y-95325959D01*
X167450445Y-95004506D01*
X167441728Y-94964250D01*
X167407331Y-94803283D01*
X167366634Y-94609138D01*
X167321351Y-94390207D01*
X167273195Y-94154878D01*
X167223879Y-93911542D01*
X167175117Y-93668590D01*
X167128623Y-93434412D01*
X167111029Y-93345000D01*
X167033250Y-92950627D01*
X166961492Y-92591408D01*
X166894359Y-92260817D01*
X166830456Y-91952330D01*
X166768387Y-91659421D01*
X166706758Y-91375565D01*
X166644172Y-91094238D01*
X166579234Y-90808913D01*
X166510549Y-90513067D01*
X166454666Y-90275833D01*
X166352710Y-89839971D01*
X166257522Y-89421307D01*
X166166902Y-89009545D01*
X166078653Y-88594390D01*
X165990576Y-88165546D01*
X165900473Y-87712716D01*
X165830950Y-87354833D01*
X165740201Y-86887714D01*
X165647899Y-86421387D01*
X165552531Y-85948450D01*
X165452581Y-85461500D01*
X165346534Y-84953134D01*
X165232874Y-84415950D01*
X165153001Y-84042250D01*
X165061021Y-83611098D01*
X164977698Y-83215262D01*
X164901877Y-82848876D01*
X164832406Y-82506075D01*
X164768132Y-82180994D01*
X164707901Y-81867766D01*
X164650561Y-81560527D01*
X164594959Y-81253411D01*
X164539941Y-80940552D01*
X164516339Y-80803750D01*
X164481090Y-80601213D01*
X164439503Y-80367050D01*
X164393388Y-80111175D01*
X164344557Y-79843505D01*
X164294821Y-79573954D01*
X164245991Y-79312438D01*
X164199879Y-79068870D01*
X164189606Y-79015166D01*
X164012426Y-78068530D01*
X163848040Y-77143960D01*
X163696739Y-76243481D01*
X163558815Y-75369120D01*
X163434557Y-74522904D01*
X163324257Y-73706860D01*
X163228205Y-72923013D01*
X163146692Y-72173391D01*
X163080009Y-71460020D01*
X163047705Y-71056500D01*
X162997619Y-70325906D01*
X162955447Y-69583164D01*
X162921117Y-68831348D01*
X162894559Y-68073529D01*
X162875701Y-67312781D01*
X162864473Y-66552176D01*
X162860802Y-65794788D01*
X162864618Y-65043690D01*
X162875850Y-64301955D01*
X162894427Y-63572655D01*
X162920276Y-62858863D01*
X162953328Y-62163653D01*
X162993511Y-61490097D01*
X163040754Y-60841269D01*
X163094986Y-60220240D01*
X163156135Y-59630086D01*
X163224131Y-59073877D01*
X163298902Y-58554687D01*
X163343508Y-58282416D01*
X163363653Y-58169572D01*
X163391517Y-58020183D01*
X163426114Y-57839131D01*
X163466458Y-57631299D01*
X163511560Y-57401572D01*
X163560435Y-57154830D01*
X163612095Y-56895959D01*
X163665555Y-56629840D01*
X163719828Y-56361356D01*
X163773926Y-56095392D01*
X163826863Y-55836828D01*
X163877653Y-55590550D01*
X163925309Y-55361439D01*
X163968844Y-55154379D01*
X164007271Y-54974252D01*
X164039604Y-54825942D01*
X164062049Y-54726416D01*
X164175142Y-54252469D01*
X164301487Y-53750494D01*
X164438130Y-53231574D01*
X164582118Y-52706790D01*
X164730497Y-52187225D01*
X164815862Y-51897806D01*
X164919633Y-51543211D01*
X165007754Y-51226655D01*
X165080433Y-50946925D01*
X165137883Y-50702809D01*
X165180313Y-50493096D01*
X165207934Y-50316575D01*
X165220957Y-50172033D01*
X165219592Y-50058260D01*
X165204051Y-49974044D01*
X165174543Y-49918172D01*
X165162111Y-49906021D01*
X165100510Y-49871369D01*
X165002877Y-49836492D01*
X164875471Y-49803079D01*
X164724551Y-49772819D01*
X164592000Y-49752142D01*
X164506937Y-49742448D01*
X164400045Y-49734017D01*
X164267908Y-49726716D01*
X164107113Y-49720411D01*
X163914245Y-49714967D01*
X163685891Y-49710252D01*
X163418637Y-49706132D01*
X163417250Y-49706114D01*
X163161177Y-49703437D01*
X162904402Y-49702367D01*
X162642650Y-49702986D01*
X162371643Y-49705380D01*
X162087107Y-49709633D01*
X161784764Y-49715829D01*
X161460338Y-49724053D01*
X161109554Y-49734389D01*
X160728136Y-49746923D01*
X160311807Y-49761737D01*
X159988250Y-49773856D01*
X159283411Y-49800719D01*
X158618972Y-49826029D01*
X157993030Y-49849855D01*
X157403682Y-49872266D01*
X156849025Y-49893332D01*
X156327158Y-49913122D01*
X155836176Y-49931705D01*
X155374178Y-49949150D01*
X154939261Y-49965528D01*
X154529522Y-49980906D01*
X154143059Y-49995355D01*
X153777968Y-50008944D01*
X153432347Y-50021742D01*
X153104294Y-50033818D01*
X152791905Y-50045242D01*
X152493279Y-50056084D01*
X152206512Y-50066411D01*
X151929701Y-50076295D01*
X151660945Y-50085803D01*
X151398340Y-50095006D01*
X151139984Y-50103972D01*
X150883973Y-50112772D01*
X150628406Y-50121473D01*
X150371380Y-50130147D01*
X150110992Y-50138861D01*
X149845339Y-50147686D01*
X149572518Y-50156690D01*
X149290628Y-50165943D01*
X148997765Y-50175515D01*
X148692026Y-50185473D01*
X148674666Y-50186038D01*
X148135016Y-50203680D01*
X147632440Y-50220318D01*
X147162124Y-50236145D01*
X146719254Y-50251354D01*
X146299015Y-50266138D01*
X145896594Y-50280688D01*
X145507177Y-50295199D01*
X145125950Y-50309861D01*
X144748099Y-50324869D01*
X144368809Y-50340415D01*
X143983266Y-50356692D01*
X143586658Y-50373891D01*
X143174168Y-50392207D01*
X142740985Y-50411831D01*
X142282292Y-50432956D01*
X141793277Y-50455776D01*
X141269126Y-50480482D01*
X141001750Y-50493157D01*
X140434064Y-50519933D01*
X139904340Y-50544524D01*
X139408272Y-50567104D01*
X138941555Y-50587842D01*
X138499883Y-50606910D01*
X138078949Y-50624478D01*
X137674449Y-50640718D01*
X137282076Y-50655800D01*
X136897524Y-50669896D01*
X136516488Y-50683176D01*
X136134662Y-50695812D01*
X135747740Y-50707974D01*
X135351417Y-50719834D01*
X135138583Y-50725984D01*
X134518880Y-50744038D01*
X133937513Y-50761722D01*
X133390491Y-50779190D01*
X132873819Y-50796593D01*
X132383505Y-50814085D01*
X131915555Y-50831820D01*
X131465977Y-50849951D01*
X131030776Y-50868630D01*
X130605961Y-50888010D01*
X130187538Y-50908246D01*
X129771513Y-50929489D01*
X129614083Y-50937812D01*
X128798961Y-50980980D01*
X128003580Y-51022468D01*
X127229408Y-51062211D01*
X126477915Y-51100140D01*
X125750569Y-51136189D01*
X125048839Y-51170291D01*
X124374194Y-51202378D01*
X123728103Y-51232384D01*
X123112036Y-51260241D01*
X122527460Y-51285883D01*
X121975845Y-51309242D01*
X121458661Y-51330252D01*
X120977375Y-51348844D01*
X120533456Y-51364954D01*
X120128375Y-51378512D01*
X119763599Y-51389452D01*
X119655166Y-51392402D01*
X119023300Y-51409616D01*
X118431654Y-51426806D01*
X117878114Y-51444070D01*
X117360568Y-51461506D01*
X116876901Y-51479211D01*
X116425002Y-51497283D01*
X116002756Y-51515820D01*
X115608051Y-51534921D01*
X115238773Y-51554681D01*
X114892809Y-51575201D01*
X114568045Y-51596576D01*
X114262368Y-51618905D01*
X113973666Y-51642286D01*
X113699824Y-51666817D01*
X113675583Y-51669109D01*
X113471298Y-51689919D01*
X113263510Y-51713677D01*
X113059311Y-51739385D01*
X112865792Y-51766046D01*
X112690045Y-51792663D01*
X112539162Y-51818239D01*
X112420235Y-51841777D01*
X112379592Y-51851298D01*
X112306224Y-51871206D01*
X112260486Y-51891943D01*
X112228824Y-51924131D01*
X112197683Y-51978391D01*
X112184648Y-52004067D01*
X112154637Y-52064571D01*
X112125476Y-52125830D01*
X112096180Y-52190572D01*
X112065761Y-52261522D01*
X112033234Y-52341408D01*
X111997611Y-52432956D01*
X111957906Y-52538893D01*
X111913133Y-52661945D01*
X111862306Y-52804839D01*
X111804437Y-52970302D01*
X111738540Y-53161059D01*
X111663629Y-53379839D01*
X111578717Y-53629367D01*
X111482819Y-53912370D01*
X111374946Y-54231575D01*
X111322236Y-54387750D01*
X111227260Y-54669526D01*
X111144521Y-54916133D01*
X111072629Y-55132482D01*
X111010192Y-55323484D01*
X110955819Y-55494050D01*
X110908117Y-55649089D01*
X110865695Y-55793512D01*
X110827162Y-55932231D01*
X110791125Y-56070156D01*
X110756195Y-56212196D01*
X110720978Y-56363264D01*
X110684084Y-56528270D01*
X110644121Y-56712123D01*
X110599697Y-56919736D01*
X110584470Y-56991250D01*
X110484758Y-57467104D01*
X110396239Y-57905402D01*
X110318400Y-58309269D01*
X110250726Y-58681832D01*
X110192704Y-59026216D01*
X110143820Y-59345547D01*
X110103559Y-59642952D01*
X110071408Y-59921555D01*
X110046852Y-60184482D01*
X110036298Y-60325000D01*
X110001434Y-60883249D01*
X109970463Y-61478394D01*
X109943430Y-62105169D01*
X109920380Y-62758311D01*
X109901358Y-63432557D01*
X109886407Y-64122643D01*
X109875572Y-64823306D01*
X109868898Y-65529281D01*
X109866429Y-66235306D01*
X108674270Y-66235306D01*
X108675580Y-65860777D01*
X108679279Y-65391493D01*
X108684976Y-64914164D01*
X108692566Y-64432526D01*
X108701946Y-63950313D01*
X108713013Y-63471262D01*
X108725663Y-62999108D01*
X108739793Y-62537587D01*
X108755299Y-62090434D01*
X108772077Y-61661385D01*
X108790025Y-61254176D01*
X108809039Y-60872543D01*
X108829014Y-60520220D01*
X108849849Y-60200944D01*
X108871439Y-59918450D01*
X108882148Y-59795833D01*
X108901131Y-59621237D01*
X108929078Y-59410448D01*
X108965034Y-59168428D01*
X109008045Y-58900139D01*
X109057155Y-58610543D01*
X109111410Y-58304602D01*
X109169855Y-57987278D01*
X109231535Y-57663533D01*
X109295496Y-57338329D01*
X109360783Y-57016627D01*
X109426441Y-56703390D01*
X109491515Y-56403580D01*
X109555051Y-56122159D01*
X109616093Y-55864089D01*
X109673687Y-55634331D01*
X109706888Y-55509583D01*
X109726139Y-55443876D01*
X109757589Y-55342331D01*
X109799829Y-55209193D01*
X109851450Y-55048711D01*
X109911042Y-54865131D01*
X109977195Y-54662701D01*
X110048501Y-54445668D01*
X110123549Y-54218278D01*
X110200930Y-53984779D01*
X110279236Y-53749419D01*
X110357055Y-53516444D01*
X110432980Y-53290101D01*
X110505599Y-53074638D01*
X110573505Y-52874302D01*
X110635287Y-52693340D01*
X110689536Y-52535999D01*
X110734843Y-52406526D01*
X110760608Y-52334401D01*
X110873046Y-52035672D01*
X110982539Y-51768748D01*
X111088231Y-51535334D01*
X111189267Y-51337141D01*
X111284791Y-51175873D01*
X111373947Y-51053241D01*
X111434985Y-50988671D01*
X111529020Y-50918036D01*
X111650040Y-50848674D01*
X111783286Y-50788886D01*
X111804816Y-50780740D01*
X111960607Y-50730863D01*
X112151175Y-50683209D01*
X112377023Y-50637739D01*
X112638658Y-50594410D01*
X112936584Y-50553184D01*
X113271309Y-50514018D01*
X113643336Y-50476873D01*
X114053172Y-50441708D01*
X114501322Y-50408482D01*
X114988292Y-50377155D01*
X115514587Y-50347685D01*
X116080712Y-50320033D01*
X116687174Y-50294158D01*
X117334477Y-50270018D01*
X118023127Y-50247575D01*
X118670916Y-50229001D01*
X119394800Y-50208120D01*
X120154684Y-50183562D01*
X120951174Y-50155302D01*
X121784876Y-50123313D01*
X122656398Y-50087568D01*
X123566344Y-50048041D01*
X124515323Y-50004706D01*
X125503940Y-49957535D01*
X126532801Y-49906503D01*
X127602513Y-49851583D01*
X128713683Y-49792749D01*
X128873250Y-49784163D01*
X129393995Y-49756485D01*
X129886282Y-49731193D01*
X130357184Y-49707992D01*
X130813776Y-49686590D01*
X131263131Y-49666690D01*
X131712324Y-49647999D01*
X132168429Y-49630223D01*
X132638520Y-49613067D01*
X133129671Y-49596237D01*
X133648957Y-49579439D01*
X134203452Y-49562379D01*
X134207250Y-49562264D01*
X134448431Y-49555008D01*
X134704303Y-49547310D01*
X134966178Y-49539432D01*
X135225368Y-49531635D01*
X135473185Y-49524182D01*
X135700941Y-49517332D01*
X135899949Y-49511348D01*
X135995833Y-49508465D01*
X136356434Y-49497024D01*
X136754638Y-49483287D01*
X137185787Y-49467441D01*
X137645222Y-49449675D01*
X138128285Y-49430175D01*
X138630320Y-49409131D01*
X139146667Y-49386730D01*
X139672669Y-49363161D01*
X140197416Y-49338904D01*
X140628508Y-49318674D01*
X141020199Y-49300307D01*
X141375374Y-49283670D01*
X141696919Y-49268633D01*
X141987719Y-49255064D01*
X142250659Y-49242831D01*
X142488626Y-49231803D01*
X142704504Y-49221848D01*
X142901179Y-49212835D01*
X143081535Y-49204632D01*
X143248459Y-49197107D01*
X143404836Y-49190129D01*
X143553551Y-49183567D01*
X143697490Y-49177289D01*
X143839537Y-49171162D01*
X143982579Y-49165057D01*
X144129501Y-49158841D01*
X144283188Y-49152382D01*
X144346083Y-49149748D01*
X144613932Y-49138577D01*
X144861827Y-49128332D01*
X145094000Y-49118861D01*
X145314683Y-49110010D01*
X145528110Y-49101628D01*
X145738511Y-49093562D01*
X145950120Y-49085660D01*
X146167169Y-49077769D01*
X146393890Y-49069737D01*
X146634515Y-49061411D01*
X146893278Y-49052639D01*
X147174409Y-49043269D01*
X147482142Y-49033148D01*
X147820709Y-49022123D01*
X148194342Y-49010043D01*
X148484166Y-49000711D01*
X149080636Y-48981453D01*
X149637366Y-48963313D01*
X150156932Y-48946204D01*
X150641910Y-48930038D01*
X151094875Y-48914727D01*
X151518405Y-48900186D01*
X151915074Y-48886325D01*
X152287459Y-48873057D01*
X152638136Y-48860295D01*
X152844500Y-48852646D01*
X153342147Y-48834063D01*
X153801566Y-48816895D01*
X154226832Y-48800990D01*
X154622022Y-48786193D01*
X154991210Y-48772351D01*
X155338474Y-48759310D01*
X155667888Y-48746916D01*
X155983528Y-48735015D01*
X156289471Y-48723454D01*
X156589791Y-48712078D01*
X156888566Y-48700734D01*
X157189870Y-48689268D01*
X157497780Y-48677526D01*
X157816370Y-48665354D01*
X158149718Y-48652599D01*
X158443083Y-48641361D01*
X158900310Y-48623875D01*
X159317920Y-48608002D01*
X159698597Y-48593661D01*
X160045023Y-48580777D01*
X160359882Y-48569271D01*
X160645855Y-48559066D01*
X160905627Y-48550084D01*
X161141880Y-48542248D01*
X161357297Y-48535479D01*
X161554561Y-48529701D01*
X161736355Y-48524835D01*
X161905362Y-48520804D01*
X162064265Y-48517530D01*
X162215747Y-48514937D01*
X162362491Y-48512945D01*
X162507180Y-48511478D01*
X162652497Y-48510458D01*
X162801125Y-48509807D01*
X162955746Y-48509447D01*
X163004500Y-48509384D01*
X163347602Y-48510121D01*
M02*
